G04 #@! TF.GenerationSoftware,KiCad,Pcbnew,6.0.0-unknown-b25ffc0~86~ubuntu16.04.1*
G04 #@! TF.CreationDate,2019-08-26T10:53:55-04:00*
G04 #@! TF.ProjectId,UV_Curing_Box,55565f43-7572-4696-9e67-5f426f782e6b,rev?*
G04 #@! TF.SameCoordinates,PX5f5e100PY68e7780*
G04 #@! TF.FileFunction,Legend,Top*
G04 #@! TF.FilePolarity,Positive*
%FSLAX46Y46*%
G04 Gerber Fmt 4.6, Leading zero omitted, Abs format (unit mm)*
G04 Created by KiCad (PCBNEW 6.0.0-unknown-b25ffc0~86~ubuntu16.04.1) date 2019-08-26 10:53:55*
%MOMM*%
%LPD*%
G04 APERTURE LIST*
%ADD10C,0.150000*%
%ADD11C,0.010000*%
G04 APERTURE END LIST*
D10*
X27452380Y68047620D02*
X27452380Y69047620D01*
X28023809Y68047620D02*
X27595238Y68619048D01*
X28023809Y69047620D02*
X27452380Y68476191D01*
X29214285Y68571429D02*
X29976190Y68571429D01*
X29976190Y68285715D02*
X29214285Y68285715D01*
X31785714Y68142858D02*
X31738095Y68095239D01*
X31595238Y68047620D01*
X31500000Y68047620D01*
X31357142Y68095239D01*
X31261904Y68190477D01*
X31214285Y68285715D01*
X31166666Y68476191D01*
X31166666Y68619048D01*
X31214285Y68809524D01*
X31261904Y68904762D01*
X31357142Y69000000D01*
X31500000Y69047620D01*
X31595238Y69047620D01*
X31738095Y69000000D01*
X31785714Y68952381D01*
X32642857Y68047620D02*
X32642857Y68571429D01*
X32595238Y68666667D01*
X32500000Y68714286D01*
X32309523Y68714286D01*
X32214285Y68666667D01*
X32642857Y68095239D02*
X32547619Y68047620D01*
X32309523Y68047620D01*
X32214285Y68095239D01*
X32166666Y68190477D01*
X32166666Y68285715D01*
X32214285Y68380953D01*
X32309523Y68428572D01*
X32547619Y68428572D01*
X32642857Y68476191D01*
X32976190Y68714286D02*
X33357142Y68714286D01*
X33119047Y69047620D02*
X33119047Y68190477D01*
X33166666Y68095239D01*
X33261904Y68047620D01*
X33357142Y68047620D01*
X33690476Y68047620D02*
X33690476Y69047620D01*
X34119047Y68047620D02*
X34119047Y68571429D01*
X34071428Y68666667D01*
X33976190Y68714286D01*
X33833333Y68714286D01*
X33738095Y68666667D01*
X33690476Y68619048D01*
X34738095Y68047620D02*
X34642857Y68095239D01*
X34595238Y68142858D01*
X34547619Y68238096D01*
X34547619Y68523810D01*
X34595238Y68619048D01*
X34642857Y68666667D01*
X34738095Y68714286D01*
X34880952Y68714286D01*
X34976190Y68666667D01*
X35023809Y68619048D01*
X35071428Y68523810D01*
X35071428Y68238096D01*
X35023809Y68142858D01*
X34976190Y68095239D01*
X34880952Y68047620D01*
X34738095Y68047620D01*
X35928571Y68047620D02*
X35928571Y69047620D01*
X35928571Y68095239D02*
X35833333Y68047620D01*
X35642857Y68047620D01*
X35547619Y68095239D01*
X35500000Y68142858D01*
X35452380Y68238096D01*
X35452380Y68523810D01*
X35500000Y68619048D01*
X35547619Y68666667D01*
X35642857Y68714286D01*
X35833333Y68714286D01*
X35928571Y68666667D01*
X36785714Y68095239D02*
X36690476Y68047620D01*
X36500000Y68047620D01*
X36404761Y68095239D01*
X36357142Y68190477D01*
X36357142Y68571429D01*
X36404761Y68666667D01*
X36500000Y68714286D01*
X36690476Y68714286D01*
X36785714Y68666667D01*
X36833333Y68571429D01*
X36833333Y68476191D01*
X36357142Y68380953D01*
X38023809Y68571429D02*
X38785714Y68571429D01*
X38785714Y68285715D02*
X38023809Y68285715D01*
X39976190Y68095239D02*
X40119047Y68047620D01*
X40357142Y68047620D01*
X40452380Y68095239D01*
X40500000Y68142858D01*
X40547619Y68238096D01*
X40547619Y68333334D01*
X40500000Y68428572D01*
X40452380Y68476191D01*
X40357142Y68523810D01*
X40166666Y68571429D01*
X40071428Y68619048D01*
X40023809Y68666667D01*
X39976190Y68761905D01*
X39976190Y68857143D01*
X40023809Y68952381D01*
X40071428Y69000000D01*
X40166666Y69047620D01*
X40404761Y69047620D01*
X40547619Y69000000D01*
X40976190Y68047620D02*
X40976190Y69047620D01*
X41404761Y68047620D02*
X41404761Y68571429D01*
X41357142Y68666667D01*
X41261904Y68714286D01*
X41119047Y68714286D01*
X41023809Y68666667D01*
X40976190Y68619048D01*
X42023809Y68047620D02*
X41928571Y68095239D01*
X41880952Y68142858D01*
X41833333Y68238096D01*
X41833333Y68523810D01*
X41880952Y68619048D01*
X41928571Y68666667D01*
X42023809Y68714286D01*
X42166666Y68714286D01*
X42261904Y68666667D01*
X42309523Y68619048D01*
X42357142Y68523810D01*
X42357142Y68238096D01*
X42309523Y68142858D01*
X42261904Y68095239D01*
X42166666Y68047620D01*
X42023809Y68047620D01*
X42785714Y68047620D02*
X42785714Y68714286D01*
X42785714Y68523810D02*
X42833333Y68619048D01*
X42880952Y68666667D01*
X42976190Y68714286D01*
X43071428Y68714286D01*
X43261904Y68714286D02*
X43642857Y68714286D01*
X43404761Y69047620D02*
X43404761Y68190477D01*
X43452380Y68095239D01*
X43547619Y68047620D01*
X43642857Y68047620D01*
X45214285Y68047620D02*
X44738095Y68047620D01*
X44738095Y69047620D01*
X45928571Y68095239D02*
X45833333Y68047620D01*
X45642857Y68047620D01*
X45547619Y68095239D01*
X45500000Y68190477D01*
X45500000Y68571429D01*
X45547619Y68666667D01*
X45642857Y68714286D01*
X45833333Y68714286D01*
X45928571Y68666667D01*
X45976190Y68571429D01*
X45976190Y68476191D01*
X45500000Y68380953D01*
X46833333Y68714286D02*
X46833333Y67904762D01*
X46785714Y67809524D01*
X46738095Y67761905D01*
X46642857Y67714286D01*
X46500000Y67714286D01*
X46404761Y67761905D01*
X46833333Y68095239D02*
X46738095Y68047620D01*
X46547619Y68047620D01*
X46452380Y68095239D01*
X46404761Y68142858D01*
X46357142Y68238096D01*
X46357142Y68523810D01*
X46404761Y68619048D01*
X46452380Y68666667D01*
X46547619Y68714286D01*
X46738095Y68714286D01*
X46833333Y68666667D01*
X48214285Y68047620D02*
X48119047Y68095239D01*
X48071428Y68142858D01*
X48023809Y68238096D01*
X48023809Y68523810D01*
X48071428Y68619048D01*
X48119047Y68666667D01*
X48214285Y68714286D01*
X48357142Y68714286D01*
X48452380Y68666667D01*
X48500000Y68619048D01*
X48547619Y68523810D01*
X48547619Y68238096D01*
X48500000Y68142858D01*
X48452380Y68095239D01*
X48357142Y68047620D01*
X48214285Y68047620D01*
X48833333Y68714286D02*
X49214285Y68714286D01*
X48976190Y68047620D02*
X48976190Y68904762D01*
X49023809Y69000000D01*
X49119047Y69047620D01*
X49214285Y69047620D01*
X50785714Y68047620D02*
X50309523Y68047620D01*
X50309523Y69047620D01*
X51119047Y68571429D02*
X51452380Y68571429D01*
X51595238Y68047620D02*
X51119047Y68047620D01*
X51119047Y69047620D01*
X51595238Y69047620D01*
X52023809Y68047620D02*
X52023809Y69047620D01*
X52261904Y69047620D01*
X52404761Y69000000D01*
X52500000Y68904762D01*
X52547619Y68809524D01*
X52595238Y68619048D01*
X52595238Y68476191D01*
X52547619Y68285715D01*
X52500000Y68190477D01*
X52404761Y68095239D01*
X52261904Y68047620D01*
X52023809Y68047620D01*
X51523809Y6352620D02*
X51523809Y5543096D01*
X51571428Y5447858D01*
X51619047Y5400239D01*
X51714285Y5352620D01*
X51904761Y5352620D01*
X52000000Y5400239D01*
X52047619Y5447858D01*
X52095238Y5543096D01*
X52095238Y6352620D01*
X52428571Y6352620D02*
X52761904Y5352620D01*
X53095238Y6352620D01*
X54761904Y5352620D02*
X54428571Y5828810D01*
X54190476Y5352620D02*
X54190476Y6352620D01*
X54571428Y6352620D01*
X54666666Y6305000D01*
X54714285Y6257381D01*
X54761904Y6162143D01*
X54761904Y6019286D01*
X54714285Y5924048D01*
X54666666Y5876429D01*
X54571428Y5828810D01*
X54190476Y5828810D01*
X55571428Y5400239D02*
X55476190Y5352620D01*
X55285714Y5352620D01*
X55190476Y5400239D01*
X55142857Y5495477D01*
X55142857Y5876429D01*
X55190476Y5971667D01*
X55285714Y6019286D01*
X55476190Y6019286D01*
X55571428Y5971667D01*
X55619047Y5876429D01*
X55619047Y5781191D01*
X55142857Y5685953D01*
X56000000Y5400239D02*
X56095238Y5352620D01*
X56285714Y5352620D01*
X56380952Y5400239D01*
X56428571Y5495477D01*
X56428571Y5543096D01*
X56380952Y5638334D01*
X56285714Y5685953D01*
X56142857Y5685953D01*
X56047619Y5733572D01*
X56000000Y5828810D01*
X56000000Y5876429D01*
X56047619Y5971667D01*
X56142857Y6019286D01*
X56285714Y6019286D01*
X56380952Y5971667D01*
X56857142Y5352620D02*
X56857142Y6019286D01*
X56857142Y6352620D02*
X56809523Y6305000D01*
X56857142Y6257381D01*
X56904761Y6305000D01*
X56857142Y6352620D01*
X56857142Y6257381D01*
X57333333Y6019286D02*
X57333333Y5352620D01*
X57333333Y5924048D02*
X57380952Y5971667D01*
X57476190Y6019286D01*
X57619047Y6019286D01*
X57714285Y5971667D01*
X57761904Y5876429D01*
X57761904Y5352620D01*
X59571428Y5447858D02*
X59523809Y5400239D01*
X59380952Y5352620D01*
X59285714Y5352620D01*
X59142857Y5400239D01*
X59047619Y5495477D01*
X59000000Y5590715D01*
X58952380Y5781191D01*
X58952380Y5924048D01*
X59000000Y6114524D01*
X59047619Y6209762D01*
X59142857Y6305000D01*
X59285714Y6352620D01*
X59380952Y6352620D01*
X59523809Y6305000D01*
X59571428Y6257381D01*
X60428571Y6019286D02*
X60428571Y5352620D01*
X60000000Y6019286D02*
X60000000Y5495477D01*
X60047619Y5400239D01*
X60142857Y5352620D01*
X60285714Y5352620D01*
X60380952Y5400239D01*
X60428571Y5447858D01*
X60904761Y5352620D02*
X60904761Y6019286D01*
X60904761Y5828810D02*
X60952380Y5924048D01*
X61000000Y5971667D01*
X61095238Y6019286D01*
X61190476Y6019286D01*
X61904761Y5400239D02*
X61809523Y5352620D01*
X61619047Y5352620D01*
X61523809Y5400239D01*
X61476190Y5495477D01*
X61476190Y5876429D01*
X61523809Y5971667D01*
X61619047Y6019286D01*
X61809523Y6019286D01*
X61904761Y5971667D01*
X61952380Y5876429D01*
X61952380Y5781191D01*
X61476190Y5685953D01*
X63476190Y5876429D02*
X63619047Y5828810D01*
X63666666Y5781191D01*
X63714285Y5685953D01*
X63714285Y5543096D01*
X63666666Y5447858D01*
X63619047Y5400239D01*
X63523809Y5352620D01*
X63142857Y5352620D01*
X63142857Y6352620D01*
X63476190Y6352620D01*
X63571428Y6305000D01*
X63619047Y6257381D01*
X63666666Y6162143D01*
X63666666Y6066905D01*
X63619047Y5971667D01*
X63571428Y5924048D01*
X63476190Y5876429D01*
X63142857Y5876429D01*
X64285714Y5352620D02*
X64190476Y5400239D01*
X64142857Y5447858D01*
X64095238Y5543096D01*
X64095238Y5828810D01*
X64142857Y5924048D01*
X64190476Y5971667D01*
X64285714Y6019286D01*
X64428571Y6019286D01*
X64523809Y5971667D01*
X64571428Y5924048D01*
X64619047Y5828810D01*
X64619047Y5543096D01*
X64571428Y5447858D01*
X64523809Y5400239D01*
X64428571Y5352620D01*
X64285714Y5352620D01*
X64952380Y5352620D02*
X65476190Y6019286D01*
X64952380Y6019286D02*
X65476190Y5352620D01*
X67190476Y5352620D02*
X66857142Y5828810D01*
X66619047Y5352620D02*
X66619047Y6352620D01*
X67000000Y6352620D01*
X67095238Y6305000D01*
X67142857Y6257381D01*
X67190476Y6162143D01*
X67190476Y6019286D01*
X67142857Y5924048D01*
X67095238Y5876429D01*
X67000000Y5828810D01*
X66619047Y5828810D01*
X68000000Y5400239D02*
X67904761Y5352620D01*
X67714285Y5352620D01*
X67619047Y5400239D01*
X67571428Y5495477D01*
X67571428Y5876429D01*
X67619047Y5971667D01*
X67714285Y6019286D01*
X67904761Y6019286D01*
X68000000Y5971667D01*
X68047619Y5876429D01*
X68047619Y5781191D01*
X67571428Y5685953D01*
X68380952Y6019286D02*
X68619047Y5352620D01*
X68857142Y6019286D01*
X70190476Y6352620D02*
X70285714Y6352620D01*
X70380952Y6305000D01*
X70428571Y6257381D01*
X70476190Y6162143D01*
X70523809Y5971667D01*
X70523809Y5733572D01*
X70476190Y5543096D01*
X70428571Y5447858D01*
X70380952Y5400239D01*
X70285714Y5352620D01*
X70190476Y5352620D01*
X70095238Y5400239D01*
X70047619Y5447858D01*
X70000000Y5543096D01*
X69952380Y5733572D01*
X69952380Y5971667D01*
X70000000Y6162143D01*
X70047619Y6257381D01*
X70095238Y6305000D01*
X70190476Y6352620D01*
X52190476Y3790239D02*
X52333333Y3742620D01*
X52571428Y3742620D01*
X52666666Y3790239D01*
X52714285Y3837858D01*
X52761904Y3933096D01*
X52761904Y4028334D01*
X52714285Y4123572D01*
X52666666Y4171191D01*
X52571428Y4218810D01*
X52380952Y4266429D01*
X52285714Y4314048D01*
X52238095Y4361667D01*
X52190476Y4456905D01*
X52190476Y4552143D01*
X52238095Y4647381D01*
X52285714Y4695000D01*
X52380952Y4742620D01*
X52619047Y4742620D01*
X52761904Y4695000D01*
X53190476Y3837858D02*
X53238095Y3790239D01*
X53190476Y3742620D01*
X53142857Y3790239D01*
X53190476Y3837858D01*
X53190476Y3742620D01*
X54619047Y4742620D02*
X54809523Y4742620D01*
X54904761Y4695000D01*
X55000000Y4599762D01*
X55047619Y4409286D01*
X55047619Y4075953D01*
X55000000Y3885477D01*
X54904761Y3790239D01*
X54809523Y3742620D01*
X54619047Y3742620D01*
X54523809Y3790239D01*
X54428571Y3885477D01*
X54380952Y4075953D01*
X54380952Y4409286D01*
X54428571Y4599762D01*
X54523809Y4695000D01*
X54619047Y4742620D01*
X55476190Y3742620D02*
X55476190Y4742620D01*
X55476190Y4361667D02*
X55571428Y4409286D01*
X55761904Y4409286D01*
X55857142Y4361667D01*
X55904761Y4314048D01*
X55952380Y4218810D01*
X55952380Y3933096D01*
X55904761Y3837858D01*
X55857142Y3790239D01*
X55761904Y3742620D01*
X55571428Y3742620D01*
X55476190Y3790239D01*
X56761904Y3790239D02*
X56666666Y3742620D01*
X56476190Y3742620D01*
X56380952Y3790239D01*
X56333333Y3885477D01*
X56333333Y4266429D01*
X56380952Y4361667D01*
X56476190Y4409286D01*
X56666666Y4409286D01*
X56761904Y4361667D01*
X56809523Y4266429D01*
X56809523Y4171191D01*
X56333333Y4075953D01*
X57238095Y3742620D02*
X57238095Y4409286D01*
X57238095Y4218810D02*
X57285714Y4314048D01*
X57333333Y4361667D01*
X57428571Y4409286D01*
X57523809Y4409286D01*
X58000000Y3742620D02*
X57904761Y3790239D01*
X57857142Y3885477D01*
X57857142Y4742620D01*
X58523809Y3742620D02*
X58428571Y3790239D01*
X58380952Y3837858D01*
X58333333Y3933096D01*
X58333333Y4218810D01*
X58380952Y4314048D01*
X58428571Y4361667D01*
X58523809Y4409286D01*
X58666666Y4409286D01*
X58761904Y4361667D01*
X58809523Y4314048D01*
X58857142Y4218810D01*
X58857142Y3933096D01*
X58809523Y3837858D01*
X58761904Y3790239D01*
X58666666Y3742620D01*
X58523809Y3742620D01*
X59285714Y3742620D02*
X59285714Y4409286D01*
X59285714Y4742620D02*
X59238095Y4695000D01*
X59285714Y4647381D01*
X59333333Y4695000D01*
X59285714Y4742620D01*
X59285714Y4647381D01*
X60142857Y3790239D02*
X60047619Y3742620D01*
X59857142Y3742620D01*
X59761904Y3790239D01*
X59714285Y3885477D01*
X59714285Y4266429D01*
X59761904Y4361667D01*
X59857142Y4409286D01*
X60047619Y4409286D01*
X60142857Y4361667D01*
X60190476Y4266429D01*
X60190476Y4171191D01*
X59714285Y4075953D01*
X60619047Y3742620D02*
X60619047Y4409286D01*
X60619047Y4218810D02*
X60666666Y4314048D01*
X60714285Y4361667D01*
X60809523Y4409286D01*
X60904761Y4409286D01*
X61952380Y4028334D02*
X62428571Y4028334D01*
X61857142Y3742620D02*
X62190476Y4742620D01*
X62523809Y3742620D01*
X62857142Y3837858D02*
X62904761Y3790239D01*
X62857142Y3742620D01*
X62809523Y3790239D01*
X62857142Y3837858D01*
X62857142Y3742620D01*
X64095238Y3742620D02*
X64095238Y4742620D01*
X64666666Y3742620D02*
X64238095Y4314048D01*
X64666666Y4742620D02*
X64095238Y4171191D01*
X65523809Y4409286D02*
X65523809Y3742620D01*
X65095238Y4409286D02*
X65095238Y3885477D01*
X65142857Y3790239D01*
X65238095Y3742620D01*
X65380952Y3742620D01*
X65476190Y3790239D01*
X65523809Y3837858D01*
X66142857Y3742620D02*
X66047619Y3790239D01*
X66000000Y3885477D01*
X66000000Y4742620D01*
X66523809Y3742620D02*
X66523809Y4742620D01*
X66619047Y4123572D02*
X66904761Y3742620D01*
X66904761Y4409286D02*
X66523809Y4028334D01*
X67761904Y3742620D02*
X67761904Y4266429D01*
X67714285Y4361667D01*
X67619047Y4409286D01*
X67428571Y4409286D01*
X67333333Y4361667D01*
X67761904Y3790239D02*
X67666666Y3742620D01*
X67428571Y3742620D01*
X67333333Y3790239D01*
X67285714Y3885477D01*
X67285714Y3980715D01*
X67333333Y4075953D01*
X67428571Y4123572D01*
X67666666Y4123572D01*
X67761904Y4171191D01*
X68238095Y3742620D02*
X68238095Y4409286D01*
X68238095Y4218810D02*
X68285714Y4314048D01*
X68333333Y4361667D01*
X68428571Y4409286D01*
X68523809Y4409286D01*
X68857142Y4409286D02*
X68857142Y3742620D01*
X68857142Y4314048D02*
X68904761Y4361667D01*
X69000000Y4409286D01*
X69142857Y4409286D01*
X69238095Y4361667D01*
X69285714Y4266429D01*
X69285714Y3742620D01*
X69761904Y3742620D02*
X69761904Y4409286D01*
X69761904Y4742620D02*
X69714285Y4695000D01*
X69761904Y4647381D01*
X69809523Y4695000D01*
X69761904Y4742620D01*
X69761904Y4647381D01*
X29976190Y75500000D02*
X29785714Y75595239D01*
X29500000Y75595239D01*
X29214285Y75500000D01*
X29023809Y75309524D01*
X28928571Y75119048D01*
X28833333Y74738096D01*
X28833333Y74452381D01*
X28928571Y74071429D01*
X29023809Y73880953D01*
X29214285Y73690477D01*
X29500000Y73595239D01*
X29690476Y73595239D01*
X29976190Y73690477D01*
X30071428Y73785715D01*
X30071428Y74452381D01*
X29690476Y74452381D01*
X30928571Y73595239D02*
X30928571Y75595239D01*
X32071428Y73595239D01*
X32071428Y75595239D01*
X33023809Y73595239D02*
X33023809Y75595239D01*
X33500000Y75595239D01*
X33785714Y75500000D01*
X33976190Y75309524D01*
X34071428Y75119048D01*
X34166666Y74738096D01*
X34166666Y74452381D01*
X34071428Y74071429D01*
X33976190Y73880953D01*
X33785714Y73690477D01*
X33500000Y73595239D01*
X33023809Y73595239D01*
X45880952Y74357143D02*
X47404761Y74357143D01*
X46642857Y73595239D02*
X46642857Y75119048D01*
X48071428Y75595239D02*
X48738095Y73595239D01*
X49404761Y75595239D01*
X45880952Y4357143D02*
X47404761Y4357143D01*
X46642857Y3595239D02*
X46642857Y5119048D01*
X48071428Y5595239D02*
X48738095Y3595239D01*
X49404761Y5595239D01*
X29976190Y5500000D02*
X29785714Y5595239D01*
X29500000Y5595239D01*
X29214285Y5500000D01*
X29023809Y5309524D01*
X28928571Y5119048D01*
X28833333Y4738096D01*
X28833333Y4452381D01*
X28928571Y4071429D01*
X29023809Y3880953D01*
X29214285Y3690477D01*
X29500000Y3595239D01*
X29690476Y3595239D01*
X29976190Y3690477D01*
X30071428Y3785715D01*
X30071428Y4452381D01*
X29690476Y4452381D01*
X30928571Y3595239D02*
X30928571Y5595239D01*
X32071428Y3595239D01*
X32071428Y5595239D01*
X33023809Y3595239D02*
X33023809Y5595239D01*
X33500000Y5595239D01*
X33785714Y5500000D01*
X33976190Y5309524D01*
X34071428Y5119048D01*
X34166666Y4738096D01*
X34166666Y4452381D01*
X34071428Y4071429D01*
X33976190Y3880953D01*
X33785714Y3690477D01*
X33500000Y3595239D01*
X33023809Y3595239D01*
X64976190Y43500000D02*
X64785714Y43595239D01*
X64500000Y43595239D01*
X64214285Y43500000D01*
X64023809Y43309524D01*
X63928571Y43119048D01*
X63833333Y42738096D01*
X63833333Y42452381D01*
X63928571Y42071429D01*
X64023809Y41880953D01*
X64214285Y41690477D01*
X64500000Y41595239D01*
X64690476Y41595239D01*
X64976190Y41690477D01*
X65071428Y41785715D01*
X65071428Y42452381D01*
X64690476Y42452381D01*
X65928571Y41595239D02*
X65928571Y43595239D01*
X67071428Y41595239D01*
X67071428Y43595239D01*
X68023809Y41595239D02*
X68023809Y43595239D01*
X68500000Y43595239D01*
X68785714Y43500000D01*
X68976190Y43309524D01*
X69071428Y43119048D01*
X69166666Y42738096D01*
X69166666Y42452381D01*
X69071428Y42071429D01*
X68976190Y41880953D01*
X68785714Y41690477D01*
X68500000Y41595239D01*
X68023809Y41595239D01*
X64880952Y37357143D02*
X66404761Y37357143D01*
X65642857Y36595239D02*
X65642857Y38119048D01*
X67071428Y38595239D02*
X67738095Y36595239D01*
X68404761Y38595239D01*
X11880952Y37357143D02*
X13404761Y37357143D01*
X12642857Y36595239D02*
X12642857Y38119048D01*
X14071428Y38595239D02*
X14738095Y36595239D01*
X15404761Y38595239D01*
X11976190Y43500000D02*
X11785714Y43595239D01*
X11500000Y43595239D01*
X11214285Y43500000D01*
X11023809Y43309524D01*
X10928571Y43119048D01*
X10833333Y42738096D01*
X10833333Y42452381D01*
X10928571Y42071429D01*
X11023809Y41880953D01*
X11214285Y41690477D01*
X11500000Y41595239D01*
X11690476Y41595239D01*
X11976190Y41690477D01*
X12071428Y41785715D01*
X12071428Y42452381D01*
X11690476Y42452381D01*
X12928571Y41595239D02*
X12928571Y43595239D01*
X14071428Y41595239D01*
X14071428Y43595239D01*
X15023809Y41595239D02*
X15023809Y43595239D01*
X15500000Y43595239D01*
X15785714Y43500000D01*
X15976190Y43309524D01*
X16071428Y43119048D01*
X16166666Y42738096D01*
X16166666Y42452381D01*
X16071428Y42071429D01*
X15976190Y41880953D01*
X15785714Y41690477D01*
X15500000Y41595239D01*
X15023809Y41595239D01*
D11*
G36*
X10056247Y4174618D02*
G01*
X10061826Y4269913D01*
X10069746Y4337636D01*
X10080731Y4385493D01*
X10095501Y4421187D01*
X10114782Y4452422D01*
X10123049Y4464176D01*
X10232712Y4575203D01*
X10371365Y4638153D01*
X10531754Y4655703D01*
X10671900Y4638097D01*
X10783450Y4582478D01*
X10881908Y4480069D01*
X10909023Y4442136D01*
X10938562Y4392500D01*
X10957728Y4338588D01*
X10968693Y4266636D01*
X10973629Y4162878D01*
X10974713Y4025899D01*
X10969818Y3838185D01*
X10952804Y3697242D01*
X10920177Y3592092D01*
X10868442Y3511757D01*
X10794104Y3445259D01*
X10788642Y3441322D01*
X10715380Y3401047D01*
X10627160Y3381120D01*
X10514962Y3376207D01*
X10332567Y3376207D01*
X10332491Y3199143D01*
X10330793Y3100530D01*
X10320450Y3042686D01*
X10293422Y3007994D01*
X10241668Y2978836D01*
X10229239Y2972879D01*
X10171077Y2944961D01*
X10126044Y2927328D01*
X10092559Y2925806D01*
X10069038Y2946219D01*
X10053900Y2994393D01*
X10045563Y3076154D01*
X10042444Y3197328D01*
X10042960Y3363740D01*
X10045529Y3581215D01*
X10046332Y3646264D01*
X10049222Y3870498D01*
X10051812Y4017179D01*
X10332414Y4017179D01*
X10333991Y3892674D01*
X10341000Y3811213D01*
X10356858Y3757485D01*
X10384981Y3716177D01*
X10404075Y3696029D01*
X10482135Y3637079D01*
X10551247Y3632280D01*
X10622560Y3680962D01*
X10624368Y3682759D01*
X10653383Y3720382D01*
X10671033Y3771516D01*
X10679936Y3850262D01*
X10682709Y3970724D01*
X10682759Y3997412D01*
X10676058Y4163417D01*
X10654248Y4278495D01*
X10614765Y4348746D01*
X10555044Y4380271D01*
X10520528Y4383448D01*
X10438611Y4368540D01*
X10382421Y4319452D01*
X10348598Y4229638D01*
X10333780Y4092555D01*
X10332414Y4017179D01*
X10051812Y4017179D01*
X10052287Y4044048D01*
X10056247Y4174618D01*
G37*
X10056247Y4174618D02*
X10061826Y4269913D01*
X10069746Y4337636D01*
X10080731Y4385493D01*
X10095501Y4421187D01*
X10114782Y4452422D01*
X10123049Y4464176D01*
X10232712Y4575203D01*
X10371365Y4638153D01*
X10531754Y4655703D01*
X10671900Y4638097D01*
X10783450Y4582478D01*
X10881908Y4480069D01*
X10909023Y4442136D01*
X10938562Y4392500D01*
X10957728Y4338588D01*
X10968693Y4266636D01*
X10973629Y4162878D01*
X10974713Y4025899D01*
X10969818Y3838185D01*
X10952804Y3697242D01*
X10920177Y3592092D01*
X10868442Y3511757D01*
X10794104Y3445259D01*
X10788642Y3441322D01*
X10715380Y3401047D01*
X10627160Y3381120D01*
X10514962Y3376207D01*
X10332567Y3376207D01*
X10332491Y3199143D01*
X10330793Y3100530D01*
X10320450Y3042686D01*
X10293422Y3007994D01*
X10241668Y2978836D01*
X10229239Y2972879D01*
X10171077Y2944961D01*
X10126044Y2927328D01*
X10092559Y2925806D01*
X10069038Y2946219D01*
X10053900Y2994393D01*
X10045563Y3076154D01*
X10042444Y3197328D01*
X10042960Y3363740D01*
X10045529Y3581215D01*
X10046332Y3646264D01*
X10049222Y3870498D01*
X10051812Y4017179D01*
X10332414Y4017179D01*
X10333991Y3892674D01*
X10341000Y3811213D01*
X10356858Y3757485D01*
X10384981Y3716177D01*
X10404075Y3696029D01*
X10482135Y3637079D01*
X10551247Y3632280D01*
X10622560Y3680962D01*
X10624368Y3682759D01*
X10653383Y3720382D01*
X10671033Y3771516D01*
X10679936Y3850262D01*
X10682709Y3970724D01*
X10682759Y3997412D01*
X10676058Y4163417D01*
X10654248Y4278495D01*
X10614765Y4348746D01*
X10555044Y4380271D01*
X10520528Y4383448D01*
X10438611Y4368540D01*
X10382421Y4319452D01*
X10348598Y4229638D01*
X10333780Y4092555D01*
X10332414Y4017179D01*
X10051812Y4017179D01*
X10052287Y4044048D01*
X10056247Y4174618D01*
G36*
X12917429Y4622281D02*
G01*
X13011123Y4568086D01*
X13076264Y4514293D01*
X13123907Y4457934D01*
X13156728Y4389013D01*
X13177406Y4297532D01*
X13188620Y4173494D01*
X13193049Y4006902D01*
X13193563Y3887149D01*
X13193563Y3446341D01*
X13069483Y3390717D01*
X12945402Y3335093D01*
X12930805Y3817905D01*
X12924773Y3998221D01*
X12918445Y4129099D01*
X12910606Y4219489D01*
X12900037Y4278336D01*
X12885523Y4314587D01*
X12865848Y4337190D01*
X12859535Y4342083D01*
X12763888Y4380294D01*
X12667207Y4365173D01*
X12609655Y4325057D01*
X12586245Y4296630D01*
X12570039Y4259328D01*
X12559741Y4202777D01*
X12554049Y4116606D01*
X12551664Y3990442D01*
X12551264Y3858958D01*
X12551186Y3694001D01*
X12548361Y3577239D01*
X12538907Y3498490D01*
X12518940Y3447569D01*
X12484576Y3414294D01*
X12431932Y3388480D01*
X12361617Y3361656D01*
X12284820Y3332458D01*
X12293962Y3850654D01*
X12297643Y4037461D01*
X12301950Y4175510D01*
X12308123Y4274432D01*
X12317402Y4343855D01*
X12331027Y4393410D01*
X12350239Y4432727D01*
X12373402Y4467416D01*
X12485152Y4578230D01*
X12621513Y4642311D01*
X12769825Y4657661D01*
X12917429Y4622281D01*
G37*
X12917429Y4622281D02*
X13011123Y4568086D01*
X13076264Y4514293D01*
X13123907Y4457934D01*
X13156728Y4389013D01*
X13177406Y4297532D01*
X13188620Y4173494D01*
X13193049Y4006902D01*
X13193563Y3887149D01*
X13193563Y3446341D01*
X13069483Y3390717D01*
X12945402Y3335093D01*
X12930805Y3817905D01*
X12924773Y3998221D01*
X12918445Y4129099D01*
X12910606Y4219489D01*
X12900037Y4278336D01*
X12885523Y4314587D01*
X12865848Y4337190D01*
X12859535Y4342083D01*
X12763888Y4380294D01*
X12667207Y4365173D01*
X12609655Y4325057D01*
X12586245Y4296630D01*
X12570039Y4259328D01*
X12559741Y4202777D01*
X12554049Y4116606D01*
X12551664Y3990442D01*
X12551264Y3858958D01*
X12551186Y3694001D01*
X12548361Y3577239D01*
X12538907Y3498490D01*
X12518940Y3447569D01*
X12484576Y3414294D01*
X12431932Y3388480D01*
X12361617Y3361656D01*
X12284820Y3332458D01*
X12293962Y3850654D01*
X12297643Y4037461D01*
X12301950Y4175510D01*
X12308123Y4274432D01*
X12317402Y4343855D01*
X12331027Y4393410D01*
X12350239Y4432727D01*
X12373402Y4467416D01*
X12485152Y4578230D01*
X12621513Y4642311D01*
X12769825Y4657661D01*
X12917429Y4622281D01*
G36*
X8936688Y4259451D02*
G01*
X8946688Y4332286D01*
X8964079Y4385892D01*
X8990816Y4433319D01*
X8996724Y4442136D01*
X9096032Y4560993D01*
X9204242Y4629992D01*
X9335981Y4657381D01*
X9380717Y4658719D01*
X9548221Y4633985D01*
X9685061Y4562032D01*
X9786051Y4446234D01*
X9821925Y4371787D01*
X9849839Y4260008D01*
X9864129Y4118773D01*
X9865484Y3964629D01*
X9854595Y3814121D01*
X9832153Y3683795D01*
X9798850Y3590197D01*
X9788615Y3574078D01*
X9667382Y3453751D01*
X9523387Y3381683D01*
X9367139Y3360592D01*
X9209148Y3393198D01*
X9165180Y3412747D01*
X9079556Y3472988D01*
X9004408Y3552865D01*
X8997306Y3562996D01*
X8968439Y3611819D01*
X8949357Y3664010D01*
X8938084Y3732715D01*
X8932645Y3831082D01*
X8931062Y3972256D01*
X8931035Y4003908D01*
X8931107Y4013981D01*
X9222989Y4013981D01*
X9224687Y3880744D01*
X9231372Y3792326D01*
X9245425Y3735215D01*
X9269229Y3695898D01*
X9281379Y3682759D01*
X9351236Y3632828D01*
X9419059Y3635105D01*
X9487635Y3678416D01*
X9528535Y3724654D01*
X9552758Y3792143D01*
X9566361Y3898567D01*
X9567294Y3910980D01*
X9569616Y4103853D01*
X9545350Y4247100D01*
X9494824Y4339840D01*
X9418368Y4381193D01*
X9391076Y4383448D01*
X9319411Y4372107D01*
X9270390Y4332816D01*
X9240418Y4257674D01*
X9225899Y4138778D01*
X9222989Y4013981D01*
X8931107Y4013981D01*
X8932122Y4154341D01*
X8936688Y4259451D01*
G37*
X8936688Y4259451D02*
X8946688Y4332286D01*
X8964079Y4385892D01*
X8990816Y4433319D01*
X8996724Y4442136D01*
X9096032Y4560993D01*
X9204242Y4629992D01*
X9335981Y4657381D01*
X9380717Y4658719D01*
X9548221Y4633985D01*
X9685061Y4562032D01*
X9786051Y4446234D01*
X9821925Y4371787D01*
X9849839Y4260008D01*
X9864129Y4118773D01*
X9865484Y3964629D01*
X9854595Y3814121D01*
X9832153Y3683795D01*
X9798850Y3590197D01*
X9788615Y3574078D01*
X9667382Y3453751D01*
X9523387Y3381683D01*
X9367139Y3360592D01*
X9209148Y3393198D01*
X9165180Y3412747D01*
X9079556Y3472988D01*
X9004408Y3552865D01*
X8997306Y3562996D01*
X8968439Y3611819D01*
X8949357Y3664010D01*
X8938084Y3732715D01*
X8932645Y3831082D01*
X8931062Y3972256D01*
X8931035Y4003908D01*
X8931107Y4013981D01*
X9222989Y4013981D01*
X9224687Y3880744D01*
X9231372Y3792326D01*
X9245425Y3735215D01*
X9269229Y3695898D01*
X9281379Y3682759D01*
X9351236Y3632828D01*
X9419059Y3635105D01*
X9487635Y3678416D01*
X9528535Y3724654D01*
X9552758Y3792143D01*
X9566361Y3898567D01*
X9567294Y3910980D01*
X9569616Y4103853D01*
X9545350Y4247100D01*
X9494824Y4339840D01*
X9418368Y4381193D01*
X9391076Y4383448D01*
X9319411Y4372107D01*
X9270390Y4332816D01*
X9240418Y4257674D01*
X9225899Y4138778D01*
X9222989Y4013981D01*
X8931107Y4013981D01*
X8932122Y4154341D01*
X8936688Y4259451D01*
G36*
X11218634Y4404171D02*
G01*
X11286836Y4502553D01*
X11409935Y4601970D01*
X11545528Y4651289D01*
X11683955Y4654432D01*
X11815552Y4615324D01*
X11930658Y4537889D01*
X12019611Y4426051D01*
X12072749Y4283735D01*
X12083497Y4178985D01*
X12082276Y4135274D01*
X12072056Y4101806D01*
X12043961Y4071821D01*
X11989116Y4038560D01*
X11898645Y3995262D01*
X11763672Y3935167D01*
X11762989Y3934866D01*
X11638751Y3877963D01*
X11536873Y3827435D01*
X11467767Y3788720D01*
X11441846Y3767260D01*
X11441839Y3767087D01*
X11464685Y3720356D01*
X11518109Y3668846D01*
X11579442Y3631739D01*
X11610515Y3624368D01*
X11695289Y3649862D01*
X11768293Y3713709D01*
X11803913Y3783906D01*
X11838180Y3835657D01*
X11905303Y3894591D01*
X11984208Y3945504D01*
X12053821Y3973191D01*
X12068377Y3974713D01*
X12084763Y3949679D01*
X12085750Y3885689D01*
X12073708Y3799407D01*
X12051007Y3707499D01*
X12020014Y3626631D01*
X12018448Y3623491D01*
X11925181Y3493266D01*
X11804304Y3404689D01*
X11667027Y3361214D01*
X11524560Y3366294D01*
X11388112Y3423384D01*
X11382045Y3427398D01*
X11274710Y3524674D01*
X11204132Y3651591D01*
X11165074Y3818474D01*
X11159832Y3865361D01*
X11150548Y4086671D01*
X11161678Y4189876D01*
X11441839Y4189876D01*
X11445479Y4125497D01*
X11465389Y4106709D01*
X11515026Y4120765D01*
X11593267Y4153991D01*
X11680726Y4195641D01*
X11682899Y4196744D01*
X11757030Y4235735D01*
X11786781Y4261756D01*
X11779445Y4289035D01*
X11748553Y4324879D01*
X11669960Y4376749D01*
X11585323Y4380561D01*
X11509403Y4342811D01*
X11456965Y4269999D01*
X11441839Y4189876D01*
X11161678Y4189876D01*
X11169644Y4263739D01*
X11218634Y4404171D01*
G37*
X11218634Y4404171D02*
X11286836Y4502553D01*
X11409935Y4601970D01*
X11545528Y4651289D01*
X11683955Y4654432D01*
X11815552Y4615324D01*
X11930658Y4537889D01*
X12019611Y4426051D01*
X12072749Y4283735D01*
X12083497Y4178985D01*
X12082276Y4135274D01*
X12072056Y4101806D01*
X12043961Y4071821D01*
X11989116Y4038560D01*
X11898645Y3995262D01*
X11763672Y3935167D01*
X11762989Y3934866D01*
X11638751Y3877963D01*
X11536873Y3827435D01*
X11467767Y3788720D01*
X11441846Y3767260D01*
X11441839Y3767087D01*
X11464685Y3720356D01*
X11518109Y3668846D01*
X11579442Y3631739D01*
X11610515Y3624368D01*
X11695289Y3649862D01*
X11768293Y3713709D01*
X11803913Y3783906D01*
X11838180Y3835657D01*
X11905303Y3894591D01*
X11984208Y3945504D01*
X12053821Y3973191D01*
X12068377Y3974713D01*
X12084763Y3949679D01*
X12085750Y3885689D01*
X12073708Y3799407D01*
X12051007Y3707499D01*
X12020014Y3626631D01*
X12018448Y3623491D01*
X11925181Y3493266D01*
X11804304Y3404689D01*
X11667027Y3361214D01*
X11524560Y3366294D01*
X11388112Y3423384D01*
X11382045Y3427398D01*
X11274710Y3524674D01*
X11204132Y3651591D01*
X11165074Y3818474D01*
X11159832Y3865361D01*
X11150548Y4086671D01*
X11161678Y4189876D01*
X11441839Y4189876D01*
X11445479Y4125497D01*
X11465389Y4106709D01*
X11515026Y4120765D01*
X11593267Y4153991D01*
X11680726Y4195641D01*
X11682899Y4196744D01*
X11757030Y4235735D01*
X11786781Y4261756D01*
X11779445Y4289035D01*
X11748553Y4324879D01*
X11669960Y4376749D01*
X11585323Y4380561D01*
X11509403Y4342811D01*
X11456965Y4269999D01*
X11441839Y4189876D01*
X11161678Y4189876D01*
X11169644Y4263739D01*
X11218634Y4404171D01*
G36*
X14244598Y4776143D02*
G01*
X14253154Y4656812D01*
X14262981Y4586494D01*
X14276599Y4555821D01*
X14296527Y4555429D01*
X14302989Y4559090D01*
X14388940Y4585602D01*
X14500745Y4584054D01*
X14614414Y4556801D01*
X14685510Y4521545D01*
X14758405Y4465222D01*
X14811693Y4401481D01*
X14848275Y4320490D01*
X14871050Y4212414D01*
X14882919Y4067420D01*
X14886782Y3875674D01*
X14886851Y3838891D01*
X14886897Y3425712D01*
X14794954Y3393661D01*
X14729652Y3371856D01*
X14693824Y3361703D01*
X14692770Y3361609D01*
X14689242Y3389140D01*
X14686239Y3465077D01*
X14683990Y3579435D01*
X14682724Y3722231D01*
X14682529Y3809049D01*
X14682123Y3980227D01*
X14680032Y4102912D01*
X14674947Y4187000D01*
X14665560Y4242386D01*
X14650561Y4278968D01*
X14628642Y4306641D01*
X14614957Y4319968D01*
X14520949Y4373672D01*
X14418364Y4377693D01*
X14325290Y4332275D01*
X14308078Y4315877D01*
X14282832Y4285043D01*
X14265320Y4248469D01*
X14254142Y4195585D01*
X14247896Y4115823D01*
X14245182Y3998615D01*
X14244598Y3837009D01*
X14244598Y3425712D01*
X14152655Y3393661D01*
X14087353Y3371856D01*
X14051525Y3361703D01*
X14050471Y3361609D01*
X14047775Y3389552D01*
X14045345Y3468370D01*
X14043278Y3590547D01*
X14041671Y3748568D01*
X14040623Y3934917D01*
X14040231Y4142080D01*
X14040230Y4151294D01*
X14040230Y4940980D01*
X14135115Y4981003D01*
X14230000Y5021027D01*
X14244598Y4776143D01*
G37*
X14244598Y4776143D02*
X14253154Y4656812D01*
X14262981Y4586494D01*
X14276599Y4555821D01*
X14296527Y4555429D01*
X14302989Y4559090D01*
X14388940Y4585602D01*
X14500745Y4584054D01*
X14614414Y4556801D01*
X14685510Y4521545D01*
X14758405Y4465222D01*
X14811693Y4401481D01*
X14848275Y4320490D01*
X14871050Y4212414D01*
X14882919Y4067420D01*
X14886782Y3875674D01*
X14886851Y3838891D01*
X14886897Y3425712D01*
X14794954Y3393661D01*
X14729652Y3371856D01*
X14693824Y3361703D01*
X14692770Y3361609D01*
X14689242Y3389140D01*
X14686239Y3465077D01*
X14683990Y3579435D01*
X14682724Y3722231D01*
X14682529Y3809049D01*
X14682123Y3980227D01*
X14680032Y4102912D01*
X14674947Y4187000D01*
X14665560Y4242386D01*
X14650561Y4278968D01*
X14628642Y4306641D01*
X14614957Y4319968D01*
X14520949Y4373672D01*
X14418364Y4377693D01*
X14325290Y4332275D01*
X14308078Y4315877D01*
X14282832Y4285043D01*
X14265320Y4248469D01*
X14254142Y4195585D01*
X14247896Y4115823D01*
X14245182Y3998615D01*
X14244598Y3837009D01*
X14244598Y3425712D01*
X14152655Y3393661D01*
X14087353Y3371856D01*
X14051525Y3361703D01*
X14050471Y3361609D01*
X14047775Y3389552D01*
X14045345Y3468370D01*
X14043278Y3590547D01*
X14041671Y3748568D01*
X14040623Y3934917D01*
X14040231Y4142080D01*
X14040230Y4151294D01*
X14040230Y4940980D01*
X14135115Y4981003D01*
X14230000Y5021027D01*
X14244598Y4776143D01*
G36*
X15579944Y4575640D02*
G01*
X15694343Y4533158D01*
X15695652Y4532342D01*
X15766403Y4480270D01*
X15818636Y4419416D01*
X15855371Y4340113D01*
X15879634Y4232691D01*
X15894445Y4087483D01*
X15902829Y3894821D01*
X15903564Y3867372D01*
X15914120Y3453479D01*
X15825291Y3407544D01*
X15761018Y3376502D01*
X15722210Y3361794D01*
X15720415Y3361609D01*
X15713700Y3388750D01*
X15708365Y3461959D01*
X15705083Y3568919D01*
X15704368Y3655531D01*
X15704351Y3795838D01*
X15697937Y3883949D01*
X15675580Y3925975D01*
X15627732Y3928025D01*
X15544849Y3896210D01*
X15419713Y3837728D01*
X15327697Y3789155D01*
X15280371Y3747014D01*
X15266458Y3701084D01*
X15266437Y3698811D01*
X15289395Y3619689D01*
X15357370Y3576945D01*
X15461398Y3570754D01*
X15536330Y3571828D01*
X15575839Y3550247D01*
X15600478Y3498409D01*
X15614659Y3432368D01*
X15594223Y3394896D01*
X15586528Y3389533D01*
X15514083Y3367994D01*
X15412633Y3364945D01*
X15308157Y3379222D01*
X15234125Y3405312D01*
X15131772Y3492215D01*
X15073591Y3613184D01*
X15062069Y3707692D01*
X15070862Y3792938D01*
X15102680Y3862524D01*
X15165684Y3924328D01*
X15268031Y3986228D01*
X15417882Y4056103D01*
X15427012Y4060052D01*
X15561997Y4122412D01*
X15645294Y4173554D01*
X15680997Y4219512D01*
X15673203Y4266317D01*
X15626007Y4320002D01*
X15611894Y4332356D01*
X15517359Y4380259D01*
X15419406Y4378242D01*
X15334097Y4331276D01*
X15277496Y4244331D01*
X15272237Y4227266D01*
X15221023Y4144496D01*
X15156037Y4104628D01*
X15062069Y4065118D01*
X15062069Y4167342D01*
X15090653Y4315928D01*
X15175495Y4452216D01*
X15219645Y4497809D01*
X15320005Y4556326D01*
X15447635Y4582816D01*
X15579944Y4575640D01*
G37*
X15579944Y4575640D02*
X15694343Y4533158D01*
X15695652Y4532342D01*
X15766403Y4480270D01*
X15818636Y4419416D01*
X15855371Y4340113D01*
X15879634Y4232691D01*
X15894445Y4087483D01*
X15902829Y3894821D01*
X15903564Y3867372D01*
X15914120Y3453479D01*
X15825291Y3407544D01*
X15761018Y3376502D01*
X15722210Y3361794D01*
X15720415Y3361609D01*
X15713700Y3388750D01*
X15708365Y3461959D01*
X15705083Y3568919D01*
X15704368Y3655531D01*
X15704351Y3795838D01*
X15697937Y3883949D01*
X15675580Y3925975D01*
X15627732Y3928025D01*
X15544849Y3896210D01*
X15419713Y3837728D01*
X15327697Y3789155D01*
X15280371Y3747014D01*
X15266458Y3701084D01*
X15266437Y3698811D01*
X15289395Y3619689D01*
X15357370Y3576945D01*
X15461398Y3570754D01*
X15536330Y3571828D01*
X15575839Y3550247D01*
X15600478Y3498409D01*
X15614659Y3432368D01*
X15594223Y3394896D01*
X15586528Y3389533D01*
X15514083Y3367994D01*
X15412633Y3364945D01*
X15308157Y3379222D01*
X15234125Y3405312D01*
X15131772Y3492215D01*
X15073591Y3613184D01*
X15062069Y3707692D01*
X15070862Y3792938D01*
X15102680Y3862524D01*
X15165684Y3924328D01*
X15268031Y3986228D01*
X15417882Y4056103D01*
X15427012Y4060052D01*
X15561997Y4122412D01*
X15645294Y4173554D01*
X15680997Y4219512D01*
X15673203Y4266317D01*
X15626007Y4320002D01*
X15611894Y4332356D01*
X15517359Y4380259D01*
X15419406Y4378242D01*
X15334097Y4331276D01*
X15277496Y4244331D01*
X15272237Y4227266D01*
X15221023Y4144496D01*
X15156037Y4104628D01*
X15062069Y4065118D01*
X15062069Y4167342D01*
X15090653Y4315928D01*
X15175495Y4452216D01*
X15219645Y4497809D01*
X15320005Y4556326D01*
X15447635Y4582816D01*
X15579944Y4575640D01*
G36*
X16565943Y4578080D02*
G01*
X16698565Y4529141D01*
X16806010Y4442581D01*
X16848032Y4381648D01*
X16893843Y4269839D01*
X16892891Y4188994D01*
X16844808Y4134622D01*
X16827017Y4125376D01*
X16750204Y4096550D01*
X16710976Y4103935D01*
X16697689Y4152342D01*
X16697012Y4179080D01*
X16672686Y4277452D01*
X16609281Y4346266D01*
X16521154Y4379502D01*
X16422663Y4371139D01*
X16342602Y4327704D01*
X16315561Y4302928D01*
X16296394Y4272871D01*
X16283446Y4227435D01*
X16275064Y4156524D01*
X16269593Y4050040D01*
X16265378Y3897888D01*
X16264287Y3849713D01*
X16260307Y3684905D01*
X16255781Y3568912D01*
X16248995Y3492167D01*
X16238231Y3445107D01*
X16221773Y3418165D01*
X16197906Y3401777D01*
X16182626Y3394537D01*
X16117733Y3369780D01*
X16079534Y3361609D01*
X16066912Y3388897D01*
X16059208Y3471397D01*
X16056380Y3610059D01*
X16058386Y3805838D01*
X16059011Y3836035D01*
X16063421Y4014651D01*
X16068635Y4145077D01*
X16076055Y4237508D01*
X16087082Y4302142D01*
X16103117Y4349175D01*
X16125561Y4388804D01*
X16137302Y4405785D01*
X16204619Y4480920D01*
X16279910Y4539362D01*
X16289128Y4544464D01*
X16424133Y4584740D01*
X16565943Y4578080D01*
G37*
X16565943Y4578080D02*
X16698565Y4529141D01*
X16806010Y4442581D01*
X16848032Y4381648D01*
X16893843Y4269839D01*
X16892891Y4188994D01*
X16844808Y4134622D01*
X16827017Y4125376D01*
X16750204Y4096550D01*
X16710976Y4103935D01*
X16697689Y4152342D01*
X16697012Y4179080D01*
X16672686Y4277452D01*
X16609281Y4346266D01*
X16521154Y4379502D01*
X16422663Y4371139D01*
X16342602Y4327704D01*
X16315561Y4302928D01*
X16296394Y4272871D01*
X16283446Y4227435D01*
X16275064Y4156524D01*
X16269593Y4050040D01*
X16265378Y3897888D01*
X16264287Y3849713D01*
X16260307Y3684905D01*
X16255781Y3568912D01*
X16248995Y3492167D01*
X16238231Y3445107D01*
X16221773Y3418165D01*
X16197906Y3401777D01*
X16182626Y3394537D01*
X16117733Y3369780D01*
X16079534Y3361609D01*
X16066912Y3388897D01*
X16059208Y3471397D01*
X16056380Y3610059D01*
X16058386Y3805838D01*
X16059011Y3836035D01*
X16063421Y4014651D01*
X16068635Y4145077D01*
X16076055Y4237508D01*
X16087082Y4302142D01*
X16103117Y4349175D01*
X16125561Y4388804D01*
X16137302Y4405785D01*
X16204619Y4480920D01*
X16279910Y4539362D01*
X16289128Y4544464D01*
X16424133Y4584740D01*
X16565943Y4578080D01*
G36*
X17078472Y4295805D02*
G01*
X17123548Y4399368D01*
X17193928Y4480144D01*
X17248743Y4521545D01*
X17348376Y4566272D01*
X17463855Y4587033D01*
X17571199Y4581475D01*
X17631264Y4559057D01*
X17654835Y4552677D01*
X17670477Y4576465D01*
X17681395Y4640212D01*
X17689655Y4737313D01*
X17698699Y4845459D01*
X17711261Y4910525D01*
X17734119Y4947732D01*
X17774051Y4972301D01*
X17799138Y4983181D01*
X17894023Y5022928D01*
X17893914Y4345545D01*
X17893543Y4127339D01*
X17892108Y3959481D01*
X17889002Y3833930D01*
X17883622Y3742645D01*
X17875362Y3677585D01*
X17863616Y3630709D01*
X17847781Y3593976D01*
X17835790Y3573009D01*
X17736490Y3459306D01*
X17610588Y3388035D01*
X17471291Y3362462D01*
X17331805Y3385850D01*
X17248743Y3427881D01*
X17161545Y3500589D01*
X17102117Y3589388D01*
X17066261Y3705680D01*
X17049781Y3860865D01*
X17047447Y3974713D01*
X17047761Y3982894D01*
X17251724Y3982894D01*
X17252970Y3852343D01*
X17258678Y3765920D01*
X17271804Y3709382D01*
X17295306Y3668486D01*
X17323386Y3637638D01*
X17417688Y3578095D01*
X17518940Y3573008D01*
X17614636Y3622721D01*
X17622084Y3629457D01*
X17653874Y3664498D01*
X17673808Y3706189D01*
X17684600Y3768238D01*
X17688965Y3864356D01*
X17689655Y3970621D01*
X17688159Y4104120D01*
X17681964Y4193178D01*
X17668514Y4251707D01*
X17645251Y4293618D01*
X17626175Y4315877D01*
X17537563Y4372015D01*
X17435508Y4378765D01*
X17338095Y4335886D01*
X17319296Y4319968D01*
X17287293Y4284618D01*
X17267318Y4242498D01*
X17256593Y4179749D01*
X17252339Y4082513D01*
X17251724Y3982894D01*
X17047761Y3982894D01*
X17054504Y4158053D01*
X17078472Y4295805D01*
G37*
X17078472Y4295805D02*
X17123548Y4399368D01*
X17193928Y4480144D01*
X17248743Y4521545D01*
X17348376Y4566272D01*
X17463855Y4587033D01*
X17571199Y4581475D01*
X17631264Y4559057D01*
X17654835Y4552677D01*
X17670477Y4576465D01*
X17681395Y4640212D01*
X17689655Y4737313D01*
X17698699Y4845459D01*
X17711261Y4910525D01*
X17734119Y4947732D01*
X17774051Y4972301D01*
X17799138Y4983181D01*
X17894023Y5022928D01*
X17893914Y4345545D01*
X17893543Y4127339D01*
X17892108Y3959481D01*
X17889002Y3833930D01*
X17883622Y3742645D01*
X17875362Y3677585D01*
X17863616Y3630709D01*
X17847781Y3593976D01*
X17835790Y3573009D01*
X17736490Y3459306D01*
X17610588Y3388035D01*
X17471291Y3362462D01*
X17331805Y3385850D01*
X17248743Y3427881D01*
X17161545Y3500589D01*
X17102117Y3589388D01*
X17066261Y3705680D01*
X17049781Y3860865D01*
X17047447Y3974713D01*
X17047761Y3982894D01*
X17251724Y3982894D01*
X17252970Y3852343D01*
X17258678Y3765920D01*
X17271804Y3709382D01*
X17295306Y3668486D01*
X17323386Y3637638D01*
X17417688Y3578095D01*
X17518940Y3573008D01*
X17614636Y3622721D01*
X17622084Y3629457D01*
X17653874Y3664498D01*
X17673808Y3706189D01*
X17684600Y3768238D01*
X17688965Y3864356D01*
X17689655Y3970621D01*
X17688159Y4104120D01*
X17681964Y4193178D01*
X17668514Y4251707D01*
X17645251Y4293618D01*
X17626175Y4315877D01*
X17537563Y4372015D01*
X17435508Y4378765D01*
X17338095Y4335886D01*
X17319296Y4319968D01*
X17287293Y4284618D01*
X17267318Y4242498D01*
X17256593Y4179749D01*
X17252339Y4082513D01*
X17251724Y3982894D01*
X17047761Y3982894D01*
X17054504Y4158053D01*
X17078472Y4295805D01*
G36*
X19080124Y4560160D02*
G01*
X19084579Y4483347D01*
X19088071Y4366609D01*
X19090315Y4219179D01*
X19091035Y4064545D01*
X19091035Y3541273D01*
X18998645Y3448883D01*
X18934978Y3391953D01*
X18879089Y3368893D01*
X18802702Y3370353D01*
X18772380Y3374066D01*
X18677610Y3384874D01*
X18599222Y3391067D01*
X18580115Y3391639D01*
X18515699Y3387898D01*
X18423571Y3378506D01*
X18387850Y3374066D01*
X18300114Y3367199D01*
X18241153Y3382115D01*
X18182690Y3428165D01*
X18161585Y3448883D01*
X18069195Y3541273D01*
X18069195Y4520053D01*
X18143558Y4553934D01*
X18207590Y4579030D01*
X18245052Y4587816D01*
X18254657Y4560050D01*
X18263635Y4482470D01*
X18271386Y4363652D01*
X18277314Y4212172D01*
X18280173Y4084195D01*
X18288161Y3580575D01*
X18357848Y3570722D01*
X18421229Y3577611D01*
X18452286Y3599917D01*
X18460967Y3641621D01*
X18468378Y3730456D01*
X18473931Y3855166D01*
X18477036Y4004493D01*
X18477484Y4081339D01*
X18477931Y4523713D01*
X18569874Y4555765D01*
X18634949Y4577557D01*
X18670347Y4587719D01*
X18671368Y4587816D01*
X18674920Y4560191D01*
X18678823Y4483589D01*
X18682751Y4367421D01*
X18686376Y4221096D01*
X18688908Y4084195D01*
X18696897Y3580575D01*
X18872069Y3580575D01*
X18880107Y4040035D01*
X18888146Y4499495D01*
X18973543Y4543656D01*
X19036593Y4573981D01*
X19073910Y4587742D01*
X19074987Y4587816D01*
X19080124Y4560160D01*
G37*
X19080124Y4560160D02*
X19084579Y4483347D01*
X19088071Y4366609D01*
X19090315Y4219179D01*
X19091035Y4064545D01*
X19091035Y3541273D01*
X18998645Y3448883D01*
X18934978Y3391953D01*
X18879089Y3368893D01*
X18802702Y3370353D01*
X18772380Y3374066D01*
X18677610Y3384874D01*
X18599222Y3391067D01*
X18580115Y3391639D01*
X18515699Y3387898D01*
X18423571Y3378506D01*
X18387850Y3374066D01*
X18300114Y3367199D01*
X18241153Y3382115D01*
X18182690Y3428165D01*
X18161585Y3448883D01*
X18069195Y3541273D01*
X18069195Y4520053D01*
X18143558Y4553934D01*
X18207590Y4579030D01*
X18245052Y4587816D01*
X18254657Y4560050D01*
X18263635Y4482470D01*
X18271386Y4363652D01*
X18277314Y4212172D01*
X18280173Y4084195D01*
X18288161Y3580575D01*
X18357848Y3570722D01*
X18421229Y3577611D01*
X18452286Y3599917D01*
X18460967Y3641621D01*
X18468378Y3730456D01*
X18473931Y3855166D01*
X18477036Y4004493D01*
X18477484Y4081339D01*
X18477931Y4523713D01*
X18569874Y4555765D01*
X18634949Y4577557D01*
X18670347Y4587719D01*
X18671368Y4587816D01*
X18674920Y4560191D01*
X18678823Y4483589D01*
X18682751Y4367421D01*
X18686376Y4221096D01*
X18688908Y4084195D01*
X18696897Y3580575D01*
X18872069Y3580575D01*
X18880107Y4040035D01*
X18888146Y4499495D01*
X18973543Y4543656D01*
X19036593Y4573981D01*
X19073910Y4587742D01*
X19074987Y4587816D01*
X19080124Y4560160D01*
G36*
X19814406Y4564844D02*
G01*
X19898469Y4526607D01*
X19964450Y4480274D01*
X20012794Y4428468D01*
X20046172Y4361637D01*
X20067253Y4270231D01*
X20078707Y4144699D01*
X20083203Y3975492D01*
X20083678Y3864067D01*
X20083678Y3429373D01*
X20009316Y3395491D01*
X19950746Y3370728D01*
X19921730Y3361609D01*
X19916179Y3388743D01*
X19911775Y3461906D01*
X19909078Y3568737D01*
X19908506Y3653563D01*
X19906046Y3776113D01*
X19899412Y3873332D01*
X19889726Y3932866D01*
X19882032Y3945517D01*
X19830311Y3932598D01*
X19749117Y3899461D01*
X19655102Y3854539D01*
X19564917Y3806265D01*
X19495215Y3763072D01*
X19462648Y3733392D01*
X19462519Y3733071D01*
X19465320Y3678143D01*
X19490439Y3625708D01*
X19534541Y3583119D01*
X19598909Y3568874D01*
X19653921Y3570534D01*
X19731835Y3571755D01*
X19772732Y3553502D01*
X19797295Y3505274D01*
X19800392Y3496180D01*
X19811040Y3427402D01*
X19782565Y3385640D01*
X19708344Y3365737D01*
X19628168Y3362056D01*
X19483890Y3389342D01*
X19409203Y3428310D01*
X19316963Y3519852D01*
X19268043Y3632218D01*
X19263654Y3750949D01*
X19305001Y3861589D01*
X19367197Y3930920D01*
X19429294Y3969735D01*
X19526895Y4018875D01*
X19640632Y4068708D01*
X19659590Y4076323D01*
X19784521Y4131455D01*
X19856539Y4180046D01*
X19879700Y4228353D01*
X19858064Y4282630D01*
X19820920Y4325057D01*
X19733127Y4377298D01*
X19636530Y4381216D01*
X19547944Y4340959D01*
X19484186Y4260674D01*
X19475817Y4239960D01*
X19427096Y4163775D01*
X19355965Y4107215D01*
X19266207Y4060799D01*
X19266207Y4192416D01*
X19271490Y4272832D01*
X19294142Y4336214D01*
X19344367Y4403837D01*
X19392582Y4455924D01*
X19467554Y4529678D01*
X19525806Y4569298D01*
X19588372Y4585190D01*
X19659193Y4587816D01*
X19814406Y4564844D01*
G37*
X19814406Y4564844D02*
X19898469Y4526607D01*
X19964450Y4480274D01*
X20012794Y4428468D01*
X20046172Y4361637D01*
X20067253Y4270231D01*
X20078707Y4144699D01*
X20083203Y3975492D01*
X20083678Y3864067D01*
X20083678Y3429373D01*
X20009316Y3395491D01*
X19950746Y3370728D01*
X19921730Y3361609D01*
X19916179Y3388743D01*
X19911775Y3461906D01*
X19909078Y3568737D01*
X19908506Y3653563D01*
X19906046Y3776113D01*
X19899412Y3873332D01*
X19889726Y3932866D01*
X19882032Y3945517D01*
X19830311Y3932598D01*
X19749117Y3899461D01*
X19655102Y3854539D01*
X19564917Y3806265D01*
X19495215Y3763072D01*
X19462648Y3733392D01*
X19462519Y3733071D01*
X19465320Y3678143D01*
X19490439Y3625708D01*
X19534541Y3583119D01*
X19598909Y3568874D01*
X19653921Y3570534D01*
X19731835Y3571755D01*
X19772732Y3553502D01*
X19797295Y3505274D01*
X19800392Y3496180D01*
X19811040Y3427402D01*
X19782565Y3385640D01*
X19708344Y3365737D01*
X19628168Y3362056D01*
X19483890Y3389342D01*
X19409203Y3428310D01*
X19316963Y3519852D01*
X19268043Y3632218D01*
X19263654Y3750949D01*
X19305001Y3861589D01*
X19367197Y3930920D01*
X19429294Y3969735D01*
X19526895Y4018875D01*
X19640632Y4068708D01*
X19659590Y4076323D01*
X19784521Y4131455D01*
X19856539Y4180046D01*
X19879700Y4228353D01*
X19858064Y4282630D01*
X19820920Y4325057D01*
X19733127Y4377298D01*
X19636530Y4381216D01*
X19547944Y4340959D01*
X19484186Y4260674D01*
X19475817Y4239960D01*
X19427096Y4163775D01*
X19355965Y4107215D01*
X19266207Y4060799D01*
X19266207Y4192416D01*
X19271490Y4272832D01*
X19294142Y4336214D01*
X19344367Y4403837D01*
X19392582Y4455924D01*
X19467554Y4529678D01*
X19525806Y4569298D01*
X19588372Y4585190D01*
X19659193Y4587816D01*
X19814406Y4564844D01*
G36*
X20835690Y4559982D02*
G01*
X20870585Y4544731D01*
X20953877Y4478765D01*
X21025103Y4383382D01*
X21069153Y4281594D01*
X21076322Y4231413D01*
X21052285Y4161353D01*
X20999561Y4124283D01*
X20943031Y4101836D01*
X20917146Y4097700D01*
X20904542Y4127717D01*
X20879654Y4193039D01*
X20868735Y4222555D01*
X20807508Y4324652D01*
X20718861Y4375577D01*
X20605193Y4374011D01*
X20596774Y4372006D01*
X20536088Y4343233D01*
X20491474Y4287141D01*
X20461002Y4196837D01*
X20442744Y4065429D01*
X20434771Y3886026D01*
X20434023Y3790567D01*
X20433652Y3640087D01*
X20431223Y3537505D01*
X20424760Y3472328D01*
X20412288Y3434062D01*
X20391833Y3412215D01*
X20361419Y3396293D01*
X20359661Y3395491D01*
X20301091Y3370728D01*
X20272075Y3361609D01*
X20267616Y3389178D01*
X20263799Y3465380D01*
X20260899Y3580459D01*
X20259191Y3724659D01*
X20258851Y3830186D01*
X20260588Y4034387D01*
X20267382Y4189303D01*
X20281607Y4303976D01*
X20305638Y4387449D01*
X20341848Y4448764D01*
X20392612Y4496966D01*
X20442739Y4530607D01*
X20563275Y4575381D01*
X20703557Y4585479D01*
X20835690Y4559982D01*
G37*
X20835690Y4559982D02*
X20870585Y4544731D01*
X20953877Y4478765D01*
X21025103Y4383382D01*
X21069153Y4281594D01*
X21076322Y4231413D01*
X21052285Y4161353D01*
X20999561Y4124283D01*
X20943031Y4101836D01*
X20917146Y4097700D01*
X20904542Y4127717D01*
X20879654Y4193039D01*
X20868735Y4222555D01*
X20807508Y4324652D01*
X20718861Y4375577D01*
X20605193Y4374011D01*
X20596774Y4372006D01*
X20536088Y4343233D01*
X20491474Y4287141D01*
X20461002Y4196837D01*
X20442744Y4065429D01*
X20434771Y3886026D01*
X20434023Y3790567D01*
X20433652Y3640087D01*
X20431223Y3537505D01*
X20424760Y3472328D01*
X20412288Y3434062D01*
X20391833Y3412215D01*
X20361419Y3396293D01*
X20359661Y3395491D01*
X20301091Y3370728D01*
X20272075Y3361609D01*
X20267616Y3389178D01*
X20263799Y3465380D01*
X20260899Y3580459D01*
X20259191Y3724659D01*
X20258851Y3830186D01*
X20260588Y4034387D01*
X20267382Y4189303D01*
X20281607Y4303976D01*
X20305638Y4387449D01*
X20341848Y4448764D01*
X20392612Y4496966D01*
X20442739Y4530607D01*
X20563275Y4575381D01*
X20703557Y4585479D01*
X20835690Y4559982D01*
G36*
X21269359Y4285147D02*
G01*
X21296894Y4383084D01*
X21341572Y4455189D01*
X21406901Y4512187D01*
X21435383Y4530607D01*
X21564763Y4578578D01*
X21706412Y4581597D01*
X21843439Y4543460D01*
X21958950Y4467966D01*
X22014664Y4400383D01*
X22058804Y4277745D01*
X22062309Y4180702D01*
X22054368Y4050944D01*
X21755115Y3919961D01*
X21609611Y3853042D01*
X21514537Y3799210D01*
X21465101Y3752584D01*
X21456511Y3707280D01*
X21483972Y3657418D01*
X21514253Y3624368D01*
X21602363Y3571367D01*
X21698196Y3567653D01*
X21786212Y3608959D01*
X21850869Y3691017D01*
X21862433Y3719992D01*
X21917825Y3810491D01*
X21981553Y3849060D01*
X22068966Y3882054D01*
X22068966Y3756966D01*
X22061238Y3671844D01*
X22030966Y3600062D01*
X21967518Y3517644D01*
X21958088Y3506934D01*
X21887513Y3433609D01*
X21826847Y3394258D01*
X21750950Y3376155D01*
X21688030Y3370226D01*
X21575487Y3368749D01*
X21495370Y3387465D01*
X21445390Y3415253D01*
X21366838Y3476359D01*
X21312463Y3542446D01*
X21278052Y3625559D01*
X21259388Y3737746D01*
X21252256Y3891054D01*
X21251687Y3968864D01*
X21253622Y4062147D01*
X21429899Y4062147D01*
X21431944Y4012104D01*
X21437039Y4003908D01*
X21470666Y4015042D01*
X21543030Y4044507D01*
X21639747Y4086399D01*
X21659973Y4095403D01*
X21782203Y4157558D01*
X21849547Y4212185D01*
X21864348Y4263351D01*
X21828947Y4315124D01*
X21799711Y4338000D01*
X21694216Y4383750D01*
X21595476Y4376192D01*
X21512812Y4320349D01*
X21455548Y4221247D01*
X21437188Y4142586D01*
X21429899Y4062147D01*
X21253622Y4062147D01*
X21255459Y4150649D01*
X21269359Y4285147D01*
G37*
X21269359Y4285147D02*
X21296894Y4383084D01*
X21341572Y4455189D01*
X21406901Y4512187D01*
X21435383Y4530607D01*
X21564763Y4578578D01*
X21706412Y4581597D01*
X21843439Y4543460D01*
X21958950Y4467966D01*
X22014664Y4400383D01*
X22058804Y4277745D01*
X22062309Y4180702D01*
X22054368Y4050944D01*
X21755115Y3919961D01*
X21609611Y3853042D01*
X21514537Y3799210D01*
X21465101Y3752584D01*
X21456511Y3707280D01*
X21483972Y3657418D01*
X21514253Y3624368D01*
X21602363Y3571367D01*
X21698196Y3567653D01*
X21786212Y3608959D01*
X21850869Y3691017D01*
X21862433Y3719992D01*
X21917825Y3810491D01*
X21981553Y3849060D01*
X22068966Y3882054D01*
X22068966Y3756966D01*
X22061238Y3671844D01*
X22030966Y3600062D01*
X21967518Y3517644D01*
X21958088Y3506934D01*
X21887513Y3433609D01*
X21826847Y3394258D01*
X21750950Y3376155D01*
X21688030Y3370226D01*
X21575487Y3368749D01*
X21495370Y3387465D01*
X21445390Y3415253D01*
X21366838Y3476359D01*
X21312463Y3542446D01*
X21278052Y3625559D01*
X21259388Y3737746D01*
X21252256Y3891054D01*
X21251687Y3968864D01*
X21253622Y4062147D01*
X21429899Y4062147D01*
X21431944Y4012104D01*
X21437039Y4003908D01*
X21470666Y4015042D01*
X21543030Y4044507D01*
X21639747Y4086399D01*
X21659973Y4095403D01*
X21782203Y4157558D01*
X21849547Y4212185D01*
X21864348Y4263351D01*
X21828947Y4315124D01*
X21799711Y4338000D01*
X21694216Y4383750D01*
X21595476Y4376192D01*
X21512812Y4320349D01*
X21455548Y4221247D01*
X21437188Y4142586D01*
X21429899Y4062147D01*
X21253622Y4062147D01*
X21255459Y4150649D01*
X21269359Y4285147D01*
G36*
X15709014Y14047002D02*
G01*
X15867006Y14046137D01*
X15981347Y14043795D01*
X16059407Y14039238D01*
X16108554Y14031730D01*
X16136159Y14020534D01*
X16149592Y14004912D01*
X16156221Y13984127D01*
X16156865Y13981437D01*
X16166935Y13932887D01*
X16185575Y13837095D01*
X16210845Y13704257D01*
X16240807Y13544569D01*
X16273522Y13368226D01*
X16274664Y13362033D01*
X16307433Y13189218D01*
X16338093Y13036531D01*
X16364664Y12913129D01*
X16385167Y12828169D01*
X16397626Y12790810D01*
X16398220Y12790148D01*
X16434919Y12771905D01*
X16510586Y12741503D01*
X16608878Y12705507D01*
X16609425Y12705315D01*
X16733233Y12658778D01*
X16879196Y12599496D01*
X17016781Y12539891D01*
X17023293Y12536944D01*
X17247390Y12435235D01*
X17743619Y12774103D01*
X17895846Y12877408D01*
X18033741Y12969763D01*
X18149315Y13045916D01*
X18234579Y13100615D01*
X18281544Y13128607D01*
X18286004Y13130683D01*
X18320134Y13121440D01*
X18383881Y13076844D01*
X18479731Y12994791D01*
X18610169Y12873179D01*
X18743328Y12743795D01*
X18871694Y12616298D01*
X18986581Y12499954D01*
X19081073Y12401948D01*
X19148253Y12329464D01*
X19181206Y12289687D01*
X19182432Y12287639D01*
X19186074Y12260344D01*
X19172350Y12215766D01*
X19137869Y12147888D01*
X19079239Y12050689D01*
X18993070Y11918149D01*
X18878200Y11747524D01*
X18776254Y11597345D01*
X18685123Y11462650D01*
X18610073Y11351260D01*
X18556369Y11270995D01*
X18529280Y11229675D01*
X18527574Y11226870D01*
X18530882Y11187279D01*
X18555953Y11110331D01*
X18597798Y11010568D01*
X18612712Y10978709D01*
X18677786Y10836774D01*
X18747212Y10675727D01*
X18803609Y10536379D01*
X18844247Y10432956D01*
X18876526Y10354358D01*
X18895178Y10313280D01*
X18897497Y10310115D01*
X18931803Y10304872D01*
X19012669Y10290506D01*
X19129343Y10269063D01*
X19271075Y10242587D01*
X19427110Y10213123D01*
X19586698Y10182717D01*
X19739085Y10153412D01*
X19873521Y10127255D01*
X19979252Y10106290D01*
X20045526Y10092561D01*
X20061782Y10088680D01*
X20078573Y10079100D01*
X20091249Y10057464D01*
X20100378Y10016469D01*
X20106531Y9948811D01*
X20110280Y9847188D01*
X20112192Y9704297D01*
X20112840Y9512835D01*
X20112874Y9434355D01*
X20112874Y8796094D01*
X19959598Y8765840D01*
X19874322Y8749436D01*
X19747070Y8725491D01*
X19593315Y8696893D01*
X19428534Y8666533D01*
X19382989Y8658194D01*
X19230932Y8628630D01*
X19098468Y8599558D01*
X18996714Y8573671D01*
X18936788Y8553663D01*
X18926805Y8547699D01*
X18902293Y8505466D01*
X18867148Y8423630D01*
X18828173Y8318317D01*
X18820442Y8295632D01*
X18769360Y8154982D01*
X18705954Y7996286D01*
X18643904Y7853775D01*
X18643598Y7853114D01*
X18540267Y7629560D01*
X19219961Y6629768D01*
X18783621Y6192700D01*
X18651649Y6062619D01*
X18531279Y5947952D01*
X18429273Y5854819D01*
X18352391Y5789342D01*
X18307393Y5757643D01*
X18300938Y5755632D01*
X18263040Y5771471D01*
X18185708Y5815504D01*
X18077389Y5882510D01*
X17946532Y5967266D01*
X17805052Y6062184D01*
X17661461Y6159002D01*
X17533435Y6243249D01*
X17429105Y6309742D01*
X17356600Y6353298D01*
X17324158Y6368736D01*
X17284576Y6355672D01*
X17209519Y6321250D01*
X17114468Y6272620D01*
X17104392Y6267215D01*
X16976391Y6203020D01*
X16888618Y6171537D01*
X16834028Y6171202D01*
X16805575Y6200452D01*
X16805410Y6200862D01*
X16791188Y6235502D01*
X16757269Y6317731D01*
X16706284Y6441186D01*
X16640862Y6599502D01*
X16563634Y6786314D01*
X16477229Y6995258D01*
X16393551Y7197554D01*
X16301588Y7420800D01*
X16217150Y7627608D01*
X16142769Y7811638D01*
X16080974Y7966549D01*
X16034297Y8086004D01*
X16005268Y8163661D01*
X15996322Y8192644D01*
X16018756Y8225890D01*
X16077439Y8278877D01*
X16155689Y8337296D01*
X16378534Y8522048D01*
X16552718Y8733818D01*
X16676154Y8968144D01*
X16746754Y9220566D01*
X16762431Y9486623D01*
X16751036Y9609425D01*
X16688950Y9864207D01*
X16582023Y10089199D01*
X16436889Y10282183D01*
X16260178Y10440939D01*
X16058522Y10563250D01*
X15838554Y10646895D01*
X15606906Y10689656D01*
X15370209Y10689313D01*
X15135095Y10643648D01*
X14908196Y10550441D01*
X14696144Y10407473D01*
X14607636Y10326617D01*
X14437889Y10118993D01*
X14319699Y9892105D01*
X14252278Y9652567D01*
X14234840Y9406993D01*
X14266598Y9161997D01*
X14346765Y8924192D01*
X14474555Y8700193D01*
X14649180Y8496613D01*
X14844312Y8337296D01*
X14925591Y8276398D01*
X14983009Y8223985D01*
X15003678Y8192594D01*
X14992856Y8158361D01*
X14962077Y8076581D01*
X14913874Y7953593D01*
X14850778Y7795737D01*
X14775322Y7609351D01*
X14690038Y7400774D01*
X14606219Y7197504D01*
X14513745Y6974067D01*
X14428089Y6767016D01*
X14351882Y6582714D01*
X14287753Y6427525D01*
X14238332Y6307812D01*
X14206248Y6229939D01*
X14194359Y6200862D01*
X14166274Y6171323D01*
X14111949Y6171409D01*
X14024395Y6202674D01*
X13896619Y6266671D01*
X13895608Y6267215D01*
X13799402Y6316879D01*
X13721631Y6353055D01*
X13677777Y6368592D01*
X13675842Y6368736D01*
X13642829Y6352976D01*
X13569946Y6309150D01*
X13465322Y6242443D01*
X13337090Y6158036D01*
X13194948Y6062184D01*
X13050233Y5965133D01*
X12919804Y5880730D01*
X12812110Y5814199D01*
X12735598Y5770762D01*
X12699062Y5755632D01*
X12665418Y5775518D01*
X12597776Y5831097D01*
X12502893Y5916246D01*
X12387530Y6024847D01*
X12258445Y6150779D01*
X12216229Y6192851D01*
X11779739Y6630069D01*
X12111977Y7117660D01*
X12212946Y7267395D01*
X12301562Y7401780D01*
X12372854Y7513031D01*
X12421850Y7593361D01*
X12443578Y7634986D01*
X12444215Y7637947D01*
X12432760Y7677182D01*
X12401949Y7756105D01*
X12357116Y7861491D01*
X12325647Y7932046D01*
X12266808Y8067124D01*
X12211396Y8203591D01*
X12168436Y8318897D01*
X12156766Y8354023D01*
X12123611Y8447826D01*
X12091201Y8520306D01*
X12073399Y8547699D01*
X12034114Y8564464D01*
X11948374Y8588230D01*
X11827303Y8616303D01*
X11682027Y8645991D01*
X11617012Y8658194D01*
X11451913Y8688532D01*
X11293552Y8717907D01*
X11157404Y8743431D01*
X11058943Y8762215D01*
X11040402Y8765840D01*
X10887127Y8796094D01*
X10887127Y9434355D01*
X10887471Y9644230D01*
X10888884Y9803020D01*
X10891936Y9918027D01*
X10897197Y9996554D01*
X10905237Y10045904D01*
X10916627Y10073381D01*
X10931937Y10086287D01*
X10938218Y10088680D01*
X10976104Y10097167D01*
X11059805Y10114100D01*
X11178567Y10137434D01*
X11321639Y10165125D01*
X11478268Y10195127D01*
X11637703Y10225396D01*
X11789191Y10253885D01*
X11921981Y10278551D01*
X12025319Y10297349D01*
X12088455Y10308233D01*
X12102503Y10310115D01*
X12115230Y10335296D01*
X12143400Y10402378D01*
X12181748Y10498667D01*
X12196391Y10536379D01*
X12255452Y10682079D01*
X12325000Y10843049D01*
X12387288Y10978709D01*
X12433121Y11082439D01*
X12463613Y11167674D01*
X12473792Y11219874D01*
X12472169Y11226870D01*
X12450657Y11259898D01*
X12401535Y11333357D01*
X12330077Y11439423D01*
X12241555Y11570274D01*
X12141241Y11718088D01*
X12121406Y11747266D01*
X12005012Y11920137D01*
X11919452Y12051774D01*
X11861316Y12148239D01*
X11827192Y12215592D01*
X11813669Y12259894D01*
X11817336Y12287206D01*
X11817430Y12287380D01*
X11846293Y12323254D01*
X11910133Y12392609D01*
X12002031Y12488255D01*
X12115067Y12603001D01*
X12242321Y12729659D01*
X12256672Y12743795D01*
X12417043Y12899097D01*
X12540805Y13013130D01*
X12630445Y13087998D01*
X12688448Y13125804D01*
X12713996Y13130683D01*
X12751282Y13109397D01*
X12828657Y13060227D01*
X12938133Y12988425D01*
X13071720Y12899245D01*
X13221430Y12797937D01*
X13256382Y12774103D01*
X13752610Y12435235D01*
X13976707Y12536944D01*
X14112989Y12596217D01*
X14259276Y12655830D01*
X14385035Y12703360D01*
X14390575Y12705315D01*
X14488943Y12741323D01*
X14564771Y12771771D01*
X14601718Y12790095D01*
X14601780Y12790148D01*
X14613504Y12823271D01*
X14633432Y12904733D01*
X14659587Y13025375D01*
X14689990Y13176041D01*
X14722663Y13347572D01*
X14725336Y13362033D01*
X14758110Y13538765D01*
X14788198Y13699190D01*
X14813661Y13833112D01*
X14832559Y13930337D01*
X14842953Y13980668D01*
X14843135Y13981437D01*
X14849461Y14002847D01*
X14861761Y14019012D01*
X14887406Y14030669D01*
X14933765Y14038555D01*
X15008208Y14043407D01*
X15118105Y14045961D01*
X15270825Y14046955D01*
X15473738Y14047126D01*
X15500000Y14047126D01*
X15709014Y14047002D01*
G37*
X15709014Y14047002D02*
X15867006Y14046137D01*
X15981347Y14043795D01*
X16059407Y14039238D01*
X16108554Y14031730D01*
X16136159Y14020534D01*
X16149592Y14004912D01*
X16156221Y13984127D01*
X16156865Y13981437D01*
X16166935Y13932887D01*
X16185575Y13837095D01*
X16210845Y13704257D01*
X16240807Y13544569D01*
X16273522Y13368226D01*
X16274664Y13362033D01*
X16307433Y13189218D01*
X16338093Y13036531D01*
X16364664Y12913129D01*
X16385167Y12828169D01*
X16397626Y12790810D01*
X16398220Y12790148D01*
X16434919Y12771905D01*
X16510586Y12741503D01*
X16608878Y12705507D01*
X16609425Y12705315D01*
X16733233Y12658778D01*
X16879196Y12599496D01*
X17016781Y12539891D01*
X17023293Y12536944D01*
X17247390Y12435235D01*
X17743619Y12774103D01*
X17895846Y12877408D01*
X18033741Y12969763D01*
X18149315Y13045916D01*
X18234579Y13100615D01*
X18281544Y13128607D01*
X18286004Y13130683D01*
X18320134Y13121440D01*
X18383881Y13076844D01*
X18479731Y12994791D01*
X18610169Y12873179D01*
X18743328Y12743795D01*
X18871694Y12616298D01*
X18986581Y12499954D01*
X19081073Y12401948D01*
X19148253Y12329464D01*
X19181206Y12289687D01*
X19182432Y12287639D01*
X19186074Y12260344D01*
X19172350Y12215766D01*
X19137869Y12147888D01*
X19079239Y12050689D01*
X18993070Y11918149D01*
X18878200Y11747524D01*
X18776254Y11597345D01*
X18685123Y11462650D01*
X18610073Y11351260D01*
X18556369Y11270995D01*
X18529280Y11229675D01*
X18527574Y11226870D01*
X18530882Y11187279D01*
X18555953Y11110331D01*
X18597798Y11010568D01*
X18612712Y10978709D01*
X18677786Y10836774D01*
X18747212Y10675727D01*
X18803609Y10536379D01*
X18844247Y10432956D01*
X18876526Y10354358D01*
X18895178Y10313280D01*
X18897497Y10310115D01*
X18931803Y10304872D01*
X19012669Y10290506D01*
X19129343Y10269063D01*
X19271075Y10242587D01*
X19427110Y10213123D01*
X19586698Y10182717D01*
X19739085Y10153412D01*
X19873521Y10127255D01*
X19979252Y10106290D01*
X20045526Y10092561D01*
X20061782Y10088680D01*
X20078573Y10079100D01*
X20091249Y10057464D01*
X20100378Y10016469D01*
X20106531Y9948811D01*
X20110280Y9847188D01*
X20112192Y9704297D01*
X20112840Y9512835D01*
X20112874Y9434355D01*
X20112874Y8796094D01*
X19959598Y8765840D01*
X19874322Y8749436D01*
X19747070Y8725491D01*
X19593315Y8696893D01*
X19428534Y8666533D01*
X19382989Y8658194D01*
X19230932Y8628630D01*
X19098468Y8599558D01*
X18996714Y8573671D01*
X18936788Y8553663D01*
X18926805Y8547699D01*
X18902293Y8505466D01*
X18867148Y8423630D01*
X18828173Y8318317D01*
X18820442Y8295632D01*
X18769360Y8154982D01*
X18705954Y7996286D01*
X18643904Y7853775D01*
X18643598Y7853114D01*
X18540267Y7629560D01*
X19219961Y6629768D01*
X18783621Y6192700D01*
X18651649Y6062619D01*
X18531279Y5947952D01*
X18429273Y5854819D01*
X18352391Y5789342D01*
X18307393Y5757643D01*
X18300938Y5755632D01*
X18263040Y5771471D01*
X18185708Y5815504D01*
X18077389Y5882510D01*
X17946532Y5967266D01*
X17805052Y6062184D01*
X17661461Y6159002D01*
X17533435Y6243249D01*
X17429105Y6309742D01*
X17356600Y6353298D01*
X17324158Y6368736D01*
X17284576Y6355672D01*
X17209519Y6321250D01*
X17114468Y6272620D01*
X17104392Y6267215D01*
X16976391Y6203020D01*
X16888618Y6171537D01*
X16834028Y6171202D01*
X16805575Y6200452D01*
X16805410Y6200862D01*
X16791188Y6235502D01*
X16757269Y6317731D01*
X16706284Y6441186D01*
X16640862Y6599502D01*
X16563634Y6786314D01*
X16477229Y6995258D01*
X16393551Y7197554D01*
X16301588Y7420800D01*
X16217150Y7627608D01*
X16142769Y7811638D01*
X16080974Y7966549D01*
X16034297Y8086004D01*
X16005268Y8163661D01*
X15996322Y8192644D01*
X16018756Y8225890D01*
X16077439Y8278877D01*
X16155689Y8337296D01*
X16378534Y8522048D01*
X16552718Y8733818D01*
X16676154Y8968144D01*
X16746754Y9220566D01*
X16762431Y9486623D01*
X16751036Y9609425D01*
X16688950Y9864207D01*
X16582023Y10089199D01*
X16436889Y10282183D01*
X16260178Y10440939D01*
X16058522Y10563250D01*
X15838554Y10646895D01*
X15606906Y10689656D01*
X15370209Y10689313D01*
X15135095Y10643648D01*
X14908196Y10550441D01*
X14696144Y10407473D01*
X14607636Y10326617D01*
X14437889Y10118993D01*
X14319699Y9892105D01*
X14252278Y9652567D01*
X14234840Y9406993D01*
X14266598Y9161997D01*
X14346765Y8924192D01*
X14474555Y8700193D01*
X14649180Y8496613D01*
X14844312Y8337296D01*
X14925591Y8276398D01*
X14983009Y8223985D01*
X15003678Y8192594D01*
X14992856Y8158361D01*
X14962077Y8076581D01*
X14913874Y7953593D01*
X14850778Y7795737D01*
X14775322Y7609351D01*
X14690038Y7400774D01*
X14606219Y7197504D01*
X14513745Y6974067D01*
X14428089Y6767016D01*
X14351882Y6582714D01*
X14287753Y6427525D01*
X14238332Y6307812D01*
X14206248Y6229939D01*
X14194359Y6200862D01*
X14166274Y6171323D01*
X14111949Y6171409D01*
X14024395Y6202674D01*
X13896619Y6266671D01*
X13895608Y6267215D01*
X13799402Y6316879D01*
X13721631Y6353055D01*
X13677777Y6368592D01*
X13675842Y6368736D01*
X13642829Y6352976D01*
X13569946Y6309150D01*
X13465322Y6242443D01*
X13337090Y6158036D01*
X13194948Y6062184D01*
X13050233Y5965133D01*
X12919804Y5880730D01*
X12812110Y5814199D01*
X12735598Y5770762D01*
X12699062Y5755632D01*
X12665418Y5775518D01*
X12597776Y5831097D01*
X12502893Y5916246D01*
X12387530Y6024847D01*
X12258445Y6150779D01*
X12216229Y6192851D01*
X11779739Y6630069D01*
X12111977Y7117660D01*
X12212946Y7267395D01*
X12301562Y7401780D01*
X12372854Y7513031D01*
X12421850Y7593361D01*
X12443578Y7634986D01*
X12444215Y7637947D01*
X12432760Y7677182D01*
X12401949Y7756105D01*
X12357116Y7861491D01*
X12325647Y7932046D01*
X12266808Y8067124D01*
X12211396Y8203591D01*
X12168436Y8318897D01*
X12156766Y8354023D01*
X12123611Y8447826D01*
X12091201Y8520306D01*
X12073399Y8547699D01*
X12034114Y8564464D01*
X11948374Y8588230D01*
X11827303Y8616303D01*
X11682027Y8645991D01*
X11617012Y8658194D01*
X11451913Y8688532D01*
X11293552Y8717907D01*
X11157404Y8743431D01*
X11058943Y8762215D01*
X11040402Y8765840D01*
X10887127Y8796094D01*
X10887127Y9434355D01*
X10887471Y9644230D01*
X10888884Y9803020D01*
X10891936Y9918027D01*
X10897197Y9996554D01*
X10905237Y10045904D01*
X10916627Y10073381D01*
X10931937Y10086287D01*
X10938218Y10088680D01*
X10976104Y10097167D01*
X11059805Y10114100D01*
X11178567Y10137434D01*
X11321639Y10165125D01*
X11478268Y10195127D01*
X11637703Y10225396D01*
X11789191Y10253885D01*
X11921981Y10278551D01*
X12025319Y10297349D01*
X12088455Y10308233D01*
X12102503Y10310115D01*
X12115230Y10335296D01*
X12143400Y10402378D01*
X12181748Y10498667D01*
X12196391Y10536379D01*
X12255452Y10682079D01*
X12325000Y10843049D01*
X12387288Y10978709D01*
X12433121Y11082439D01*
X12463613Y11167674D01*
X12473792Y11219874D01*
X12472169Y11226870D01*
X12450657Y11259898D01*
X12401535Y11333357D01*
X12330077Y11439423D01*
X12241555Y11570274D01*
X12141241Y11718088D01*
X12121406Y11747266D01*
X12005012Y11920137D01*
X11919452Y12051774D01*
X11861316Y12148239D01*
X11827192Y12215592D01*
X11813669Y12259894D01*
X11817336Y12287206D01*
X11817430Y12287380D01*
X11846293Y12323254D01*
X11910133Y12392609D01*
X12002031Y12488255D01*
X12115067Y12603001D01*
X12242321Y12729659D01*
X12256672Y12743795D01*
X12417043Y12899097D01*
X12540805Y13013130D01*
X12630445Y13087998D01*
X12688448Y13125804D01*
X12713996Y13130683D01*
X12751282Y13109397D01*
X12828657Y13060227D01*
X12938133Y12988425D01*
X13071720Y12899245D01*
X13221430Y12797937D01*
X13256382Y12774103D01*
X13752610Y12435235D01*
X13976707Y12536944D01*
X14112989Y12596217D01*
X14259276Y12655830D01*
X14385035Y12703360D01*
X14390575Y12705315D01*
X14488943Y12741323D01*
X14564771Y12771771D01*
X14601718Y12790095D01*
X14601780Y12790148D01*
X14613504Y12823271D01*
X14633432Y12904733D01*
X14659587Y13025375D01*
X14689990Y13176041D01*
X14722663Y13347572D01*
X14725336Y13362033D01*
X14758110Y13538765D01*
X14788198Y13699190D01*
X14813661Y13833112D01*
X14832559Y13930337D01*
X14842953Y13980668D01*
X14843135Y13981437D01*
X14849461Y14002847D01*
X14861761Y14019012D01*
X14887406Y14030669D01*
X14933765Y14038555D01*
X15008208Y14043407D01*
X15118105Y14045961D01*
X15270825Y14046955D01*
X15473738Y14047126D01*
X15500000Y14047126D01*
X15709014Y14047002D01*
D10*
X65575000Y63500000D02*
X65575000Y61500000D01*
X63425000Y61500000D02*
X63425000Y63500000D01*
X47075000Y63500000D02*
X47075000Y61500000D01*
X44925000Y61500000D02*
X44925000Y63500000D01*
X27575000Y63500000D02*
X27575000Y61500000D01*
X25425000Y61500000D02*
X25425000Y63500000D01*
X61714888Y19024904D02*
G75*
G03X61730000Y16000000I-2484888J-1524904D01*
G01*
X61730000Y19000000D02*
X61730000Y16000000D01*
X61747936Y17500000D02*
G75*
G03X61747936Y17500000I-2517936J0D01*
G01*
X61714888Y34024904D02*
G75*
G03X61730000Y31000000I-2484888J-1524904D01*
G01*
X61730000Y34000000D02*
X61730000Y31000000D01*
X61747936Y32500000D02*
G75*
G03X61747936Y32500000I-2517936J0D01*
G01*
X61714888Y49024904D02*
G75*
G03X61730000Y46000000I-2484888J-1524904D01*
G01*
X61730000Y49000000D02*
X61730000Y46000000D01*
X61747936Y47500000D02*
G75*
G03X61747936Y47500000I-2517936J0D01*
G01*
X61714888Y64024904D02*
G75*
G03X61730000Y61000000I-2484888J-1524904D01*
G01*
X61730000Y64000000D02*
X61730000Y61000000D01*
X61747936Y62500000D02*
G75*
G03X61747936Y62500000I-2517936J0D01*
G01*
X40000000Y9100000D02*
X40000000Y9600000D01*
X39500000Y5100000D02*
G75*
G03X39500000Y5100000I-2000000J0D01*
G01*
X44500000Y5100000D02*
G75*
G03X44500000Y5100000I-2000000J0D01*
G01*
X45000000Y7600000D02*
X35000000Y7600000D01*
X45000000Y2700000D02*
X35000000Y2700000D01*
X45000000Y9100000D02*
X35000000Y9100000D01*
X45000000Y9600000D02*
X35000000Y9600000D01*
X35000000Y9600000D02*
X35000000Y-200000D01*
X35000000Y-200000D02*
X45000000Y-200000D01*
X45000000Y-200000D02*
X45000000Y9600000D01*
X70900000Y40500000D02*
X70400000Y40500000D01*
X76900000Y38000000D02*
G75*
G03X76900000Y38000000I-2000000J0D01*
G01*
X76900000Y43000000D02*
G75*
G03X76900000Y43000000I-2000000J0D01*
G01*
X72400000Y45500000D02*
X72400000Y35500000D01*
X77300000Y45500000D02*
X77300000Y35500000D01*
X70900000Y45500000D02*
X70900000Y35500000D01*
X70400000Y45500000D02*
X70400000Y35500000D01*
X70400000Y35500000D02*
X80200000Y35500000D01*
X80200000Y35500000D02*
X80200000Y45500000D01*
X80200000Y45500000D02*
X70400000Y45500000D01*
X40000000Y70900000D02*
X40000000Y70400000D01*
X44500000Y74900000D02*
G75*
G03X44500000Y74900000I-2000000J0D01*
G01*
X39500000Y74900000D02*
G75*
G03X39500000Y74900000I-2000000J0D01*
G01*
X35000000Y72400000D02*
X45000000Y72400000D01*
X35000000Y77300000D02*
X45000000Y77300000D01*
X35000000Y70900000D02*
X45000000Y70900000D01*
X35000000Y70400000D02*
X45000000Y70400000D01*
X45000000Y70400000D02*
X45000000Y80200000D01*
X45000000Y80200000D02*
X35000000Y80200000D01*
X35000000Y80200000D02*
X35000000Y70400000D01*
X9100000Y40000000D02*
X9600000Y40000000D01*
X7100000Y42500000D02*
G75*
G03X7100000Y42500000I-2000000J0D01*
G01*
X7100000Y37500000D02*
G75*
G03X7100000Y37500000I-2000000J0D01*
G01*
X7600000Y35000000D02*
X7600000Y45000000D01*
X2700000Y35000000D02*
X2700000Y45000000D01*
X9100000Y35000000D02*
X9100000Y45000000D01*
X9600000Y35000000D02*
X9600000Y45000000D01*
X9600000Y45000000D02*
X-200000Y45000000D01*
X-200000Y45000000D02*
X-200000Y35000000D01*
X-200000Y35000000D02*
X9600000Y35000000D01*
X43214888Y19024904D02*
G75*
G03X43230000Y16000000I-2484888J-1524904D01*
G01*
X43230000Y19000000D02*
X43230000Y16000000D01*
X43247936Y17500000D02*
G75*
G03X43247936Y17500000I-2517936J0D01*
G01*
X23714888Y19024904D02*
G75*
G03X23730000Y16000000I-2484888J-1524904D01*
G01*
X23730000Y19000000D02*
X23730000Y16000000D01*
X23747936Y17500000D02*
G75*
G03X23747936Y17500000I-2517936J0D01*
G01*
X43214888Y34024904D02*
G75*
G03X43230000Y31000000I-2484888J-1524904D01*
G01*
X43230000Y34000000D02*
X43230000Y31000000D01*
X43247936Y32500000D02*
G75*
G03X43247936Y32500000I-2517936J0D01*
G01*
X23714888Y34024904D02*
G75*
G03X23730000Y31000000I-2484888J-1524904D01*
G01*
X23730000Y34000000D02*
X23730000Y31000000D01*
X23747936Y32500000D02*
G75*
G03X23747936Y32500000I-2517936J0D01*
G01*
X43214888Y49024904D02*
G75*
G03X43230000Y46000000I-2484888J-1524904D01*
G01*
X43230000Y49000000D02*
X43230000Y46000000D01*
X43247936Y47500000D02*
G75*
G03X43247936Y47500000I-2517936J0D01*
G01*
X23714888Y49024904D02*
G75*
G03X23730000Y46000000I-2484888J-1524904D01*
G01*
X23730000Y49000000D02*
X23730000Y46000000D01*
X23747936Y47500000D02*
G75*
G03X23747936Y47500000I-2517936J0D01*
G01*
X43214888Y64024904D02*
G75*
G03X43230000Y61000000I-2484888J-1524904D01*
G01*
X43230000Y64000000D02*
X43230000Y61000000D01*
X43247936Y62500000D02*
G75*
G03X43247936Y62500000I-2517936J0D01*
G01*
X23714888Y64024904D02*
G75*
G03X23730000Y61000000I-2484888J-1524904D01*
G01*
X23730000Y64000000D02*
X23730000Y61000000D01*
X23747936Y62500000D02*
G75*
G03X23747936Y62500000I-2517936J0D01*
G01*
X66952380Y62333334D02*
X66476190Y62000000D01*
X66952380Y61761905D02*
X65952380Y61761905D01*
X65952380Y62142858D01*
X66000000Y62238096D01*
X66047619Y62285715D01*
X66142857Y62333334D01*
X66285714Y62333334D01*
X66380952Y62285715D01*
X66428571Y62238096D01*
X66476190Y62142858D01*
X66476190Y61761905D01*
X65952380Y62666667D02*
X65952380Y63285715D01*
X66333333Y62952381D01*
X66333333Y63095239D01*
X66380952Y63190477D01*
X66428571Y63238096D01*
X66523809Y63285715D01*
X66761904Y63285715D01*
X66857142Y63238096D01*
X66904761Y63190477D01*
X66952380Y63095239D01*
X66952380Y62809524D01*
X66904761Y62714286D01*
X66857142Y62666667D01*
X48452380Y62333334D02*
X47976190Y62000000D01*
X48452380Y61761905D02*
X47452380Y61761905D01*
X47452380Y62142858D01*
X47500000Y62238096D01*
X47547619Y62285715D01*
X47642857Y62333334D01*
X47785714Y62333334D01*
X47880952Y62285715D01*
X47928571Y62238096D01*
X47976190Y62142858D01*
X47976190Y61761905D01*
X47547619Y62714286D02*
X47500000Y62761905D01*
X47452380Y62857143D01*
X47452380Y63095239D01*
X47500000Y63190477D01*
X47547619Y63238096D01*
X47642857Y63285715D01*
X47738095Y63285715D01*
X47880952Y63238096D01*
X48452380Y62666667D01*
X48452380Y63285715D01*
X28952380Y62333334D02*
X28476190Y62000000D01*
X28952380Y61761905D02*
X27952380Y61761905D01*
X27952380Y62142858D01*
X28000000Y62238096D01*
X28047619Y62285715D01*
X28142857Y62333334D01*
X28285714Y62333334D01*
X28380952Y62285715D01*
X28428571Y62238096D01*
X28476190Y62142858D01*
X28476190Y61761905D01*
X28952380Y63285715D02*
X28952380Y62714286D01*
X28952380Y63000000D02*
X27952380Y63000000D01*
X28095238Y62904762D01*
X28190476Y62809524D01*
X28238095Y62714286D01*
X57761714Y21111620D02*
X57761714Y22111620D01*
X57999809Y22111620D01*
X58142666Y22064000D01*
X58237904Y21968762D01*
X58285523Y21873524D01*
X58333142Y21683048D01*
X58333142Y21540191D01*
X58285523Y21349715D01*
X58237904Y21254477D01*
X58142666Y21159239D01*
X57999809Y21111620D01*
X57761714Y21111620D01*
X59285523Y21111620D02*
X58714095Y21111620D01*
X58999809Y21111620D02*
X58999809Y22111620D01*
X58904571Y21968762D01*
X58809333Y21873524D01*
X58714095Y21825905D01*
X59666476Y22016381D02*
X59714095Y22064000D01*
X59809333Y22111620D01*
X60047428Y22111620D01*
X60142666Y22064000D01*
X60190285Y22016381D01*
X60237904Y21921143D01*
X60237904Y21825905D01*
X60190285Y21683048D01*
X59618857Y21111620D01*
X60237904Y21111620D01*
X62143095Y18952620D02*
X62143095Y19952620D01*
X62714523Y18952620D02*
X62285952Y19524048D01*
X62714523Y19952620D02*
X62143095Y19381191D01*
X58237904Y36111620D02*
X58237904Y37111620D01*
X58476000Y37111620D01*
X58618857Y37064000D01*
X58714095Y36968762D01*
X58761714Y36873524D01*
X58809333Y36683048D01*
X58809333Y36540191D01*
X58761714Y36349715D01*
X58714095Y36254477D01*
X58618857Y36159239D01*
X58476000Y36111620D01*
X58237904Y36111620D01*
X59285523Y36111620D02*
X59476000Y36111620D01*
X59571238Y36159239D01*
X59618857Y36206858D01*
X59714095Y36349715D01*
X59761714Y36540191D01*
X59761714Y36921143D01*
X59714095Y37016381D01*
X59666476Y37064000D01*
X59571238Y37111620D01*
X59380761Y37111620D01*
X59285523Y37064000D01*
X59237904Y37016381D01*
X59190285Y36921143D01*
X59190285Y36683048D01*
X59237904Y36587810D01*
X59285523Y36540191D01*
X59380761Y36492572D01*
X59571238Y36492572D01*
X59666476Y36540191D01*
X59714095Y36587810D01*
X59761714Y36683048D01*
X62143095Y33952620D02*
X62143095Y34952620D01*
X62714523Y33952620D02*
X62285952Y34524048D01*
X62714523Y34952620D02*
X62143095Y34381191D01*
X58237904Y51111620D02*
X58237904Y52111620D01*
X58476000Y52111620D01*
X58618857Y52064000D01*
X58714095Y51968762D01*
X58761714Y51873524D01*
X58809333Y51683048D01*
X58809333Y51540191D01*
X58761714Y51349715D01*
X58714095Y51254477D01*
X58618857Y51159239D01*
X58476000Y51111620D01*
X58237904Y51111620D01*
X59666476Y52111620D02*
X59476000Y52111620D01*
X59380761Y52064000D01*
X59333142Y52016381D01*
X59237904Y51873524D01*
X59190285Y51683048D01*
X59190285Y51302096D01*
X59237904Y51206858D01*
X59285523Y51159239D01*
X59380761Y51111620D01*
X59571238Y51111620D01*
X59666476Y51159239D01*
X59714095Y51206858D01*
X59761714Y51302096D01*
X59761714Y51540191D01*
X59714095Y51635429D01*
X59666476Y51683048D01*
X59571238Y51730667D01*
X59380761Y51730667D01*
X59285523Y51683048D01*
X59237904Y51635429D01*
X59190285Y51540191D01*
X62143095Y48952620D02*
X62143095Y49952620D01*
X62714523Y48952620D02*
X62285952Y49524048D01*
X62714523Y49952620D02*
X62143095Y49381191D01*
X58237904Y66111620D02*
X58237904Y67111620D01*
X58476000Y67111620D01*
X58618857Y67064000D01*
X58714095Y66968762D01*
X58761714Y66873524D01*
X58809333Y66683048D01*
X58809333Y66540191D01*
X58761714Y66349715D01*
X58714095Y66254477D01*
X58618857Y66159239D01*
X58476000Y66111620D01*
X58237904Y66111620D01*
X59142666Y67111620D02*
X59761714Y67111620D01*
X59428380Y66730667D01*
X59571238Y66730667D01*
X59666476Y66683048D01*
X59714095Y66635429D01*
X59761714Y66540191D01*
X59761714Y66302096D01*
X59714095Y66206858D01*
X59666476Y66159239D01*
X59571238Y66111620D01*
X59285523Y66111620D01*
X59190285Y66159239D01*
X59142666Y66206858D01*
X62143095Y63952620D02*
X62143095Y64952620D01*
X62714523Y63952620D02*
X62285952Y64524048D01*
X62714523Y64952620D02*
X62143095Y64381191D01*
X46166666Y1547620D02*
X46166666Y833334D01*
X46119047Y690477D01*
X46023809Y595239D01*
X45880952Y547620D01*
X45785714Y547620D01*
X47071428Y1214286D02*
X47071428Y547620D01*
X46833333Y1595239D02*
X46595238Y880953D01*
X47214285Y880953D01*
X78166666Y34547620D02*
X78166666Y33833334D01*
X78119047Y33690477D01*
X78023809Y33595239D01*
X77880952Y33547620D01*
X77785714Y33547620D01*
X78547619Y34547620D02*
X79166666Y34547620D01*
X78833333Y34166667D01*
X78976190Y34166667D01*
X79071428Y34119048D01*
X79119047Y34071429D01*
X79166666Y33976191D01*
X79166666Y33738096D01*
X79119047Y33642858D01*
X79071428Y33595239D01*
X78976190Y33547620D01*
X78690476Y33547620D01*
X78595238Y33595239D01*
X78547619Y33642858D01*
X46166666Y78547620D02*
X46166666Y77833334D01*
X46119047Y77690477D01*
X46023809Y77595239D01*
X45880952Y77547620D01*
X45785714Y77547620D01*
X46595238Y78452381D02*
X46642857Y78500000D01*
X46738095Y78547620D01*
X46976190Y78547620D01*
X47071428Y78500000D01*
X47119047Y78452381D01*
X47166666Y78357143D01*
X47166666Y78261905D01*
X47119047Y78119048D01*
X46547619Y77547620D01*
X47166666Y77547620D01*
X1166666Y34047620D02*
X1166666Y33333334D01*
X1119047Y33190477D01*
X1023809Y33095239D01*
X880952Y33047620D01*
X785714Y33047620D01*
X2166666Y33047620D02*
X1595238Y33047620D01*
X1880952Y33047620D02*
X1880952Y34047620D01*
X1785714Y33904762D01*
X1690476Y33809524D01*
X1595238Y33761905D01*
X4238095Y7747620D02*
X4238095Y8747620D01*
X4238095Y8271429D02*
X4809523Y8271429D01*
X4809523Y7747620D02*
X4809523Y8747620D01*
X5714285Y8414286D02*
X5714285Y7747620D01*
X5476190Y8795239D02*
X5238095Y8080953D01*
X5857142Y8080953D01*
X74238095Y7747620D02*
X74238095Y8747620D01*
X74238095Y8271429D02*
X74809523Y8271429D01*
X74809523Y7747620D02*
X74809523Y8747620D01*
X75190476Y8747620D02*
X75809523Y8747620D01*
X75476190Y8366667D01*
X75619047Y8366667D01*
X75714285Y8319048D01*
X75761904Y8271429D01*
X75809523Y8176191D01*
X75809523Y7938096D01*
X75761904Y7842858D01*
X75714285Y7795239D01*
X75619047Y7747620D01*
X75333333Y7747620D01*
X75238095Y7795239D01*
X75190476Y7842858D01*
X74238095Y77747620D02*
X74238095Y78747620D01*
X74238095Y78271429D02*
X74809523Y78271429D01*
X74809523Y77747620D02*
X74809523Y78747620D01*
X75238095Y78652381D02*
X75285714Y78700000D01*
X75380952Y78747620D01*
X75619047Y78747620D01*
X75714285Y78700000D01*
X75761904Y78652381D01*
X75809523Y78557143D01*
X75809523Y78461905D01*
X75761904Y78319048D01*
X75190476Y77747620D01*
X75809523Y77747620D01*
X4238095Y77747620D02*
X4238095Y78747620D01*
X4238095Y78271429D02*
X4809523Y78271429D01*
X4809523Y77747620D02*
X4809523Y78747620D01*
X5809523Y77747620D02*
X5238095Y77747620D01*
X5523809Y77747620D02*
X5523809Y78747620D01*
X5428571Y78604762D01*
X5333333Y78509524D01*
X5238095Y78461905D01*
X39261714Y21111620D02*
X39261714Y22111620D01*
X39499809Y22111620D01*
X39642666Y22064000D01*
X39737904Y21968762D01*
X39785523Y21873524D01*
X39833142Y21683048D01*
X39833142Y21540191D01*
X39785523Y21349715D01*
X39737904Y21254477D01*
X39642666Y21159239D01*
X39499809Y21111620D01*
X39261714Y21111620D01*
X40785523Y21111620D02*
X40214095Y21111620D01*
X40499809Y21111620D02*
X40499809Y22111620D01*
X40404571Y21968762D01*
X40309333Y21873524D01*
X40214095Y21825905D01*
X41737904Y21111620D02*
X41166476Y21111620D01*
X41452190Y21111620D02*
X41452190Y22111620D01*
X41356952Y21968762D01*
X41261714Y21873524D01*
X41166476Y21825905D01*
X43643095Y18952620D02*
X43643095Y19952620D01*
X44214523Y18952620D02*
X43785952Y19524048D01*
X44214523Y19952620D02*
X43643095Y19381191D01*
X19761714Y21111620D02*
X19761714Y22111620D01*
X19999809Y22111620D01*
X20142666Y22064000D01*
X20237904Y21968762D01*
X20285523Y21873524D01*
X20333142Y21683048D01*
X20333142Y21540191D01*
X20285523Y21349715D01*
X20237904Y21254477D01*
X20142666Y21159239D01*
X19999809Y21111620D01*
X19761714Y21111620D01*
X21285523Y21111620D02*
X20714095Y21111620D01*
X20999809Y21111620D02*
X20999809Y22111620D01*
X20904571Y21968762D01*
X20809333Y21873524D01*
X20714095Y21825905D01*
X21904571Y22111620D02*
X21999809Y22111620D01*
X22095047Y22064000D01*
X22142666Y22016381D01*
X22190285Y21921143D01*
X22237904Y21730667D01*
X22237904Y21492572D01*
X22190285Y21302096D01*
X22142666Y21206858D01*
X22095047Y21159239D01*
X21999809Y21111620D01*
X21904571Y21111620D01*
X21809333Y21159239D01*
X21761714Y21206858D01*
X21714095Y21302096D01*
X21666476Y21492572D01*
X21666476Y21730667D01*
X21714095Y21921143D01*
X21761714Y22016381D01*
X21809333Y22064000D01*
X21904571Y22111620D01*
X24143095Y18952620D02*
X24143095Y19952620D01*
X24714523Y18952620D02*
X24285952Y19524048D01*
X24714523Y19952620D02*
X24143095Y19381191D01*
X39737904Y36111620D02*
X39737904Y37111620D01*
X39976000Y37111620D01*
X40118857Y37064000D01*
X40214095Y36968762D01*
X40261714Y36873524D01*
X40309333Y36683048D01*
X40309333Y36540191D01*
X40261714Y36349715D01*
X40214095Y36254477D01*
X40118857Y36159239D01*
X39976000Y36111620D01*
X39737904Y36111620D01*
X40880761Y36683048D02*
X40785523Y36730667D01*
X40737904Y36778286D01*
X40690285Y36873524D01*
X40690285Y36921143D01*
X40737904Y37016381D01*
X40785523Y37064000D01*
X40880761Y37111620D01*
X41071238Y37111620D01*
X41166476Y37064000D01*
X41214095Y37016381D01*
X41261714Y36921143D01*
X41261714Y36873524D01*
X41214095Y36778286D01*
X41166476Y36730667D01*
X41071238Y36683048D01*
X40880761Y36683048D01*
X40785523Y36635429D01*
X40737904Y36587810D01*
X40690285Y36492572D01*
X40690285Y36302096D01*
X40737904Y36206858D01*
X40785523Y36159239D01*
X40880761Y36111620D01*
X41071238Y36111620D01*
X41166476Y36159239D01*
X41214095Y36206858D01*
X41261714Y36302096D01*
X41261714Y36492572D01*
X41214095Y36587810D01*
X41166476Y36635429D01*
X41071238Y36683048D01*
X43643095Y33952620D02*
X43643095Y34952620D01*
X44214523Y33952620D02*
X43785952Y34524048D01*
X44214523Y34952620D02*
X43643095Y34381191D01*
X20237904Y36111620D02*
X20237904Y37111620D01*
X20476000Y37111620D01*
X20618857Y37064000D01*
X20714095Y36968762D01*
X20761714Y36873524D01*
X20809333Y36683048D01*
X20809333Y36540191D01*
X20761714Y36349715D01*
X20714095Y36254477D01*
X20618857Y36159239D01*
X20476000Y36111620D01*
X20237904Y36111620D01*
X21142666Y37111620D02*
X21809333Y37111620D01*
X21380761Y36111620D01*
X24143095Y33952620D02*
X24143095Y34952620D01*
X24714523Y33952620D02*
X24285952Y34524048D01*
X24714523Y34952620D02*
X24143095Y34381191D01*
X39737904Y51111620D02*
X39737904Y52111620D01*
X39976000Y52111620D01*
X40118857Y52064000D01*
X40214095Y51968762D01*
X40261714Y51873524D01*
X40309333Y51683048D01*
X40309333Y51540191D01*
X40261714Y51349715D01*
X40214095Y51254477D01*
X40118857Y51159239D01*
X39976000Y51111620D01*
X39737904Y51111620D01*
X41214095Y52111620D02*
X40737904Y52111620D01*
X40690285Y51635429D01*
X40737904Y51683048D01*
X40833142Y51730667D01*
X41071238Y51730667D01*
X41166476Y51683048D01*
X41214095Y51635429D01*
X41261714Y51540191D01*
X41261714Y51302096D01*
X41214095Y51206858D01*
X41166476Y51159239D01*
X41071238Y51111620D01*
X40833142Y51111620D01*
X40737904Y51159239D01*
X40690285Y51206858D01*
X43643095Y48952620D02*
X43643095Y49952620D01*
X44214523Y48952620D02*
X43785952Y49524048D01*
X44214523Y49952620D02*
X43643095Y49381191D01*
X20237904Y51111620D02*
X20237904Y52111620D01*
X20476000Y52111620D01*
X20618857Y52064000D01*
X20714095Y51968762D01*
X20761714Y51873524D01*
X20809333Y51683048D01*
X20809333Y51540191D01*
X20761714Y51349715D01*
X20714095Y51254477D01*
X20618857Y51159239D01*
X20476000Y51111620D01*
X20237904Y51111620D01*
X21666476Y51778286D02*
X21666476Y51111620D01*
X21428380Y52159239D02*
X21190285Y51444953D01*
X21809333Y51444953D01*
X24143095Y48952620D02*
X24143095Y49952620D01*
X24714523Y48952620D02*
X24285952Y49524048D01*
X24714523Y49952620D02*
X24143095Y49381191D01*
X39737904Y66111620D02*
X39737904Y67111620D01*
X39976000Y67111620D01*
X40118857Y67064000D01*
X40214095Y66968762D01*
X40261714Y66873524D01*
X40309333Y66683048D01*
X40309333Y66540191D01*
X40261714Y66349715D01*
X40214095Y66254477D01*
X40118857Y66159239D01*
X39976000Y66111620D01*
X39737904Y66111620D01*
X40690285Y67016381D02*
X40737904Y67064000D01*
X40833142Y67111620D01*
X41071238Y67111620D01*
X41166476Y67064000D01*
X41214095Y67016381D01*
X41261714Y66921143D01*
X41261714Y66825905D01*
X41214095Y66683048D01*
X40642666Y66111620D01*
X41261714Y66111620D01*
X43643095Y63952620D02*
X43643095Y64952620D01*
X44214523Y63952620D02*
X43785952Y64524048D01*
X44214523Y64952620D02*
X43643095Y64381191D01*
X20237904Y66111620D02*
X20237904Y67111620D01*
X20476000Y67111620D01*
X20618857Y67064000D01*
X20714095Y66968762D01*
X20761714Y66873524D01*
X20809333Y66683048D01*
X20809333Y66540191D01*
X20761714Y66349715D01*
X20714095Y66254477D01*
X20618857Y66159239D01*
X20476000Y66111620D01*
X20237904Y66111620D01*
X21761714Y66111620D02*
X21190285Y66111620D01*
X21476000Y66111620D02*
X21476000Y67111620D01*
X21380761Y66968762D01*
X21285523Y66873524D01*
X21190285Y66825905D01*
X24143095Y63952620D02*
X24143095Y64952620D01*
X24714523Y63952620D02*
X24285952Y64524048D01*
X24714523Y64952620D02*
X24143095Y64381191D01*
M02*
