M48
; DRILL file {KiCad 6.0.0-unknown-b25ffc0~86~ubuntu16.04.1} date Mon 26 Aug 2019 10:55:38 AM EDT
; FORMAT={-:-/ absolute / inch / decimal}
; #@! TF.CreationDate,2019-08-26T10:55:38-04:00
; #@! TF.GenerationSoftware,Kicad,Pcbnew,6.0.0-unknown-b25ffc0~86~ubuntu16.04.1
; #@! TF.FileFunction,Plated,1,2,PTH
FMAT,2
INCH
T1C0.0394
T2C0.0512
%
G90
G05
T1
X2.2819Y1.8701
X2.3819Y1.8701
X2.2819Y1.2795
X2.3819Y1.2795
X2.2819Y0.689
X2.3819Y0.689
X0.7858Y1.2795
X0.8858Y1.2795
X0.7858Y1.8701
X0.8858Y1.8701
X1.5535Y1.2795
X1.6535Y1.2795
X1.5535Y1.8701
X1.6535Y1.8701
X0.7858Y0.689
X0.8858Y0.689
X0.7858Y2.4606
X0.8858Y2.4606
X1.5535Y0.689
X1.6535Y0.689
X2.2819Y2.4606
X2.3819Y2.4606
X1.5535Y2.4606
X1.6535Y2.4606
T2
X0.1969Y1.6732
X0.1969Y1.4764
X1.4764Y0.1969
X1.6732Y0.1969
X1.4764Y2.9528
X1.6732Y2.9528
X2.9528Y1.6929
X2.9528Y1.4961
T0
M30
