solid OpenSCAD_Model
  facet normal 0 0 1
    outer loop
      vertex 10.1 10.1 1
      vertex 6.05 5 1
      vertex 10.1 0 1
    endloop
  endfacet
  facet normal 0 0 1
    outer loop
      vertex 10.1 10.1 1
      vertex 6.02705 5.21831 1
      vertex 6.05 5 1
    endloop
  endfacet
  facet normal 0 0 1
    outer loop
      vertex 10.1 10.1 1
      vertex 5.95922 5.42707 1
      vertex 6.02705 5.21831 1
    endloop
  endfacet
  facet normal 0 0 1
    outer loop
      vertex 10.1 10.1 1
      vertex 5.84947 5.61717 1
      vertex 5.95922 5.42707 1
    endloop
  endfacet
  facet normal 0 0 1
    outer loop
      vertex 10.1 10.1 1
      vertex 5.70259 5.7803 1
      vertex 5.84947 5.61717 1
    endloop
  endfacet
  facet normal 0 0 1
    outer loop
      vertex 10.1 10.1 1
      vertex 5.525 5.90933 1
      vertex 5.70259 5.7803 1
    endloop
  endfacet
  facet normal 0 0 1
    outer loop
      vertex 10.1 10.1 1
      vertex 5.32447 5.99861 1
      vertex 5.525 5.90933 1
    endloop
  endfacet
  facet normal 0 0 1
    outer loop
      vertex 10.1 10.1 1
      vertex 5.10975 6.04425 1
      vertex 5.32447 5.99861 1
    endloop
  endfacet
  facet normal 0 0 1
    outer loop
      vertex 10.1 10.1 1
      vertex 4.89024 6.04425 1
      vertex 5.10975 6.04425 1
    endloop
  endfacet
  facet normal 0 0 1
    outer loop
      vertex 10.1 10.1 1
      vertex 4.67553 5.99861 1
      vertex 4.89024 6.04425 1
    endloop
  endfacet
  facet normal 0 0 1
    outer loop
      vertex -4.67553 5.99861 1
      vertex 4.67553 5.99861 1
      vertex 10.1 10.1 1
    endloop
  endfacet
  facet normal 0 0 1
    outer loop
      vertex 4.67553 5.99861 1
      vertex -4.67553 5.99861 1
      vertex 4.475 5.90933 1
    endloop
  endfacet
  facet normal 0 0 1
    outer loop
      vertex 3.97294 5.21831 1
      vertex -3.95 5 1
      vertex 3.95 5 1
    endloop
  endfacet
  facet normal 0 0 1
    outer loop
      vertex -3.97294 5.21831 1
      vertex 3.97294 5.21831 1
      vertex 4.04078 5.42707 1
    endloop
  endfacet
  facet normal 0 0 1
    outer loop
      vertex -4.04078 5.42707 1
      vertex 4.04078 5.42707 1
      vertex 4.15053 5.61717 1
    endloop
  endfacet
  facet normal 0 0 1
    outer loop
      vertex -4.15053 5.61717 1
      vertex 4.15053 5.61717 1
      vertex 4.29741 5.7803 1
    endloop
  endfacet
  facet normal 0 -0 1
    outer loop
      vertex -4.475 5.90933 1
      vertex 4.475 5.90933 1
      vertex -4.67553 5.99861 1
    endloop
  endfacet
  facet normal 0 0 1
    outer loop
      vertex 3.97294 5.21831 1
      vertex -3.97294 5.21831 1
      vertex -3.95 5 1
    endloop
  endfacet
  facet normal 0 0 1
    outer loop
      vertex 4.04078 5.42707 1
      vertex -4.04078 5.42707 1
      vertex -3.97294 5.21831 1
    endloop
  endfacet
  facet normal 0 0 1
    outer loop
      vertex 4.15053 5.61717 1
      vertex -4.15053 5.61717 1
      vertex -4.04078 5.42707 1
    endloop
  endfacet
  facet normal 0 0 1
    outer loop
      vertex 4.29741 5.7803 1
      vertex -4.29741 5.7803 1
      vertex -4.15053 5.61717 1
    endloop
  endfacet
  facet normal 0 0 1
    outer loop
      vertex 4.29741 5.7803 1
      vertex -4.475 5.90933 1
      vertex -4.29741 5.7803 1
    endloop
  endfacet
  facet normal 0 0 1
    outer loop
      vertex 4.475 5.90933 1
      vertex -4.475 5.90933 1
      vertex 4.29741 5.7803 1
    endloop
  endfacet
  facet normal -0 0 1
    outer loop
      vertex -10.1 10.1 1
      vertex -4.67553 5.99861 1
      vertex 10.1 10.1 1
    endloop
  endfacet
  facet normal 0 0 1
    outer loop
      vertex -4.67553 5.99861 1
      vertex -10.1 10.1 1
      vertex -4.89024 6.04425 1
    endloop
  endfacet
  facet normal 0 0 1
    outer loop
      vertex -4.89024 6.04425 1
      vertex -10.1 10.1 1
      vertex -5.10975 6.04425 1
    endloop
  endfacet
  facet normal 0 0 1
    outer loop
      vertex -6.02705 5.21831 1
      vertex -10.1 10.1 1
      vertex -6.05 5 1
    endloop
  endfacet
  facet normal 0 0 1
    outer loop
      vertex -5.95922 5.42707 1
      vertex -10.1 10.1 1
      vertex -6.02705 5.21831 1
    endloop
  endfacet
  facet normal 0 0 1
    outer loop
      vertex -5.84947 5.61717 1
      vertex -10.1 10.1 1
      vertex -5.95922 5.42707 1
    endloop
  endfacet
  facet normal 0 0 1
    outer loop
      vertex -5.70259 5.7803 1
      vertex -10.1 10.1 1
      vertex -5.84947 5.61717 1
    endloop
  endfacet
  facet normal 0 0 1
    outer loop
      vertex -5.525 5.90933 1
      vertex -10.1 10.1 1
      vertex -5.70259 5.7803 1
    endloop
  endfacet
  facet normal 0 0 1
    outer loop
      vertex -5.32447 5.99861 1
      vertex -10.1 10.1 1
      vertex -5.525 5.90933 1
    endloop
  endfacet
  facet normal 0 0 1
    outer loop
      vertex -5.10975 6.04425 1
      vertex -10.1 10.1 1
      vertex -5.32447 5.99861 1
    endloop
  endfacet
  facet normal -0 0 1
    outer loop
      vertex 6.02705 4.78169 1
      vertex 10.1 0 1
      vertex 6.05 5 1
    endloop
  endfacet
  facet normal -0 0 1
    outer loop
      vertex 5.95922 4.57293 1
      vertex 10.1 0 1
      vertex 6.02705 4.78169 1
    endloop
  endfacet
  facet normal -0 0 1
    outer loop
      vertex 5.84947 4.38282 1
      vertex 10.1 0 1
      vertex 5.95922 4.57293 1
    endloop
  endfacet
  facet normal -0 0 1
    outer loop
      vertex 5.70259 4.2197 1
      vertex 10.1 0 1
      vertex 5.84947 4.38282 1
    endloop
  endfacet
  facet normal -0 0 1
    outer loop
      vertex 5.525 4.09067 1
      vertex 10.1 0 1
      vertex 5.70259 4.2197 1
    endloop
  endfacet
  facet normal -0 0 1
    outer loop
      vertex 5.32447 4.00139 1
      vertex 10.1 0 1
      vertex 5.525 4.09067 1
    endloop
  endfacet
  facet normal -0 0 1
    outer loop
      vertex 5.10975 3.95575 1
      vertex 10.1 0 1
      vertex 5.32447 4.00139 1
    endloop
  endfacet
  facet normal -0 0 1
    outer loop
      vertex 4.89024 3.95575 1
      vertex 10.1 0 1
      vertex 5.10975 3.95575 1
    endloop
  endfacet
  facet normal 0 0 1
    outer loop
      vertex 4.67553 4.00139 1
      vertex 10.1 0 1
      vertex 4.89024 3.95575 1
    endloop
  endfacet
  facet normal 0 0 1
    outer loop
      vertex -4.67553 4.00139 1
      vertex 4.67553 4.00139 1
      vertex 4.475 4.09067 1
    endloop
  endfacet
  facet normal 0 0 1
    outer loop
      vertex -4.475 4.09067 1
      vertex 4.475 4.09067 1
      vertex 4.29741 4.2197 1
    endloop
  endfacet
  facet normal -0 0 1
    outer loop
      vertex -3.95 5 1
      vertex 3.97294 4.78169 1
      vertex 3.95 5 1
    endloop
  endfacet
  facet normal 0 0 1
    outer loop
      vertex -3.97294 4.78169 1
      vertex 3.97294 4.78169 1
      vertex -3.95 5 1
    endloop
  endfacet
  facet normal 0 0 1
    outer loop
      vertex 3.97294 4.78169 1
      vertex -3.97294 4.78169 1
      vertex 4.04078 4.57293 1
    endloop
  endfacet
  facet normal 0 0 1
    outer loop
      vertex -4.04078 4.57293 1
      vertex 4.04078 4.57293 1
      vertex -3.97294 4.78169 1
    endloop
  endfacet
  facet normal 0 0 1
    outer loop
      vertex 4.04078 4.57293 1
      vertex -4.04078 4.57293 1
      vertex 4.15053 4.38282 1
    endloop
  endfacet
  facet normal 0 0 1
    outer loop
      vertex -4.15053 4.38282 1
      vertex 4.15053 4.38282 1
      vertex -4.04078 4.57293 1
    endloop
  endfacet
  facet normal 0 0 1
    outer loop
      vertex 4.15053 4.38282 1
      vertex -4.15053 4.38282 1
      vertex 4.29741 4.2197 1
    endloop
  endfacet
  facet normal 0 0 1
    outer loop
      vertex -4.29741 4.2197 1
      vertex 4.29741 4.2197 1
      vertex -4.15053 4.38282 1
    endloop
  endfacet
  facet normal 0 0 1
    outer loop
      vertex -4.475 4.09067 1
      vertex 4.29741 4.2197 1
      vertex -4.29741 4.2197 1
    endloop
  endfacet
  facet normal 0 0 1
    outer loop
      vertex 4.475 4.09067 1
      vertex -4.475 4.09067 1
      vertex -4.67553 4.00139 1
    endloop
  endfacet
  facet normal 0 0 1
    outer loop
      vertex 4.67553 4.00139 1
      vertex -4.67553 4.00139 1
      vertex 10.1 0 1
    endloop
  endfacet
  facet normal 0 0 1
    outer loop
      vertex -10.1 0 1
      vertex -4.67553 4.00139 1
      vertex -4.89024 3.95575 1
    endloop
  endfacet
  facet normal 0 0 1
    outer loop
      vertex -10.1 0 1
      vertex -4.89024 3.95575 1
      vertex -5.10975 3.95575 1
    endloop
  endfacet
  facet normal 0 0 1
    outer loop
      vertex -10.1 0 1
      vertex -5.10975 3.95575 1
      vertex -5.32447 4.00139 1
    endloop
  endfacet
  facet normal 0 0 1
    outer loop
      vertex -10.1 0 1
      vertex -6.05 5 1
      vertex -10.1 10.1 1
    endloop
  endfacet
  facet normal 0 0 1
    outer loop
      vertex -6.05 5 1
      vertex -10.1 0 1
      vertex -6.02705 4.78169 1
    endloop
  endfacet
  facet normal 0 0 1
    outer loop
      vertex -6.02705 4.78169 1
      vertex -10.1 0 1
      vertex -5.95922 4.57293 1
    endloop
  endfacet
  facet normal 0 0 1
    outer loop
      vertex -4.67553 4.00139 1
      vertex -10.1 0 1
      vertex 10.1 0 1
    endloop
  endfacet
  facet normal 0 0 1
    outer loop
      vertex -5.525 4.09067 1
      vertex -10.1 0 1
      vertex -5.32447 4.00139 1
    endloop
  endfacet
  facet normal 0 0 1
    outer loop
      vertex -5.70259 4.2197 1
      vertex -10.1 0 1
      vertex -5.525 4.09067 1
    endloop
  endfacet
  facet normal 0 0 1
    outer loop
      vertex -5.84947 4.38282 1
      vertex -10.1 0 1
      vertex -5.70259 4.2197 1
    endloop
  endfacet
  facet normal 0 0 1
    outer loop
      vertex -5.95922 4.57293 1
      vertex -10.1 0 1
      vertex -5.84947 4.38282 1
    endloop
  endfacet
  facet normal 1 -0 0
    outer loop
      vertex 10.1 -3.6 12.7
      vertex 10.1 -1.6 2.6
      vertex 10.1 -1.6 12.7
    endloop
  endfacet
  facet normal 1 0 0
    outer loop
      vertex 10.1 -3.6 0.6
      vertex 10.1 -1.6 2.6
      vertex 10.1 -3.6 12.7
    endloop
  endfacet
  facet normal 1 0 0
    outer loop
      vertex 10.1 0 2.6
      vertex 10.1 -1.6 2.6
      vertex 10.1 0 1
    endloop
  endfacet
  facet normal 1 -0 0
    outer loop
      vertex 10.1 0 1
      vertex 10.1 10.1 -1
      vertex 10.1 10.1 1
    endloop
  endfacet
  facet normal 1 0 0
    outer loop
      vertex 10.1 -3.6 0.6
      vertex 10.1 0 1
      vertex 10.1 -1.6 2.6
    endloop
  endfacet
  facet normal 1 0 0
    outer loop
      vertex 10.1 -3.6 -1
      vertex 10.1 0 1
      vertex 10.1 -3.6 0.6
    endloop
  endfacet
  facet normal 1 0 0
    outer loop
      vertex 10.1 0 1
      vertex 10.1 -3.6 -1
      vertex 10.1 10.1 -1
    endloop
  endfacet
  facet normal 0 1 -0
    outer loop
      vertex 10.1 10.1 -1
      vertex -10.1 10.1 1
      vertex 10.1 10.1 1
    endloop
  endfacet
  facet normal 0 1 0
    outer loop
      vertex -10.1 10.1 1
      vertex 10.1 10.1 -1
      vertex -10.1 10.1 -1
    endloop
  endfacet
  facet normal 0 0 -1
    outer loop
      vertex 6.02705 4.78169 -1
      vertex 10.1 10.1 -1
      vertex 10.1 -3.6 -1
    endloop
  endfacet
  facet normal 0 0 -1
    outer loop
      vertex 10.1 10.1 -1
      vertex 6.02705 4.78169 -1
      vertex 6.05 5 -1
    endloop
  endfacet
  facet normal 0 0 -1
    outer loop
      vertex 10.1 -3.6 -1
      vertex 5.95922 4.57293 -1
      vertex 6.02705 4.78169 -1
    endloop
  endfacet
  facet normal 0 0 -1
    outer loop
      vertex 10.1 -3.6 -1
      vertex 5.84947 4.38282 -1
      vertex 5.95922 4.57293 -1
    endloop
  endfacet
  facet normal 0 0 -1
    outer loop
      vertex 10.1 -3.6 -1
      vertex 5.70259 4.2197 -1
      vertex 5.84947 4.38282 -1
    endloop
  endfacet
  facet normal 0 0 -1
    outer loop
      vertex 10.1 -3.6 -1
      vertex 5.525 4.09067 -1
      vertex 5.70259 4.2197 -1
    endloop
  endfacet
  facet normal 0 0 -1
    outer loop
      vertex 10.1 -3.6 -1
      vertex 5.32447 4.00139 -1
      vertex 5.525 4.09067 -1
    endloop
  endfacet
  facet normal 0 0 -1
    outer loop
      vertex 10.1 -3.6 -1
      vertex 5.10975 3.95575 -1
      vertex 5.32447 4.00139 -1
    endloop
  endfacet
  facet normal 0 0 -1
    outer loop
      vertex 10.1 -3.6 -1
      vertex 4.89024 3.95575 -1
      vertex 5.10975 3.95575 -1
    endloop
  endfacet
  facet normal 0 0 -1
    outer loop
      vertex 10.1 -3.6 -1
      vertex 4.67553 4.00139 -1
      vertex 4.89024 3.95575 -1
    endloop
  endfacet
  facet normal 0 0 -1
    outer loop
      vertex 10.1 -3.6 -1
      vertex 4.475 4.09067 -1
      vertex 4.67553 4.00139 -1
    endloop
  endfacet
  facet normal 0 0 -1
    outer loop
      vertex -4.475 4.09067 -1
      vertex 4.475 4.09067 -1
      vertex 10.1 -3.6 -1
    endloop
  endfacet
  facet normal 0 0 -1
    outer loop
      vertex 4.475 4.09067 -1
      vertex -4.475 4.09067 -1
      vertex 4.29741 4.2197 -1
    endloop
  endfacet
  facet normal 0 0 -1
    outer loop
      vertex 3.97294 4.78169 -1
      vertex -3.95 5 -1
      vertex 3.95 5 -1
    endloop
  endfacet
  facet normal 0 0 -1
    outer loop
      vertex -3.97294 4.78169 -1
      vertex 3.97294 4.78169 -1
      vertex 4.04078 4.57293 -1
    endloop
  endfacet
  facet normal 0 0 -1
    outer loop
      vertex -4.04078 4.57293 -1
      vertex 4.04078 4.57293 -1
      vertex 4.15053 4.38282 -1
    endloop
  endfacet
  facet normal 0 -0 -1
    outer loop
      vertex -4.29741 4.2197 -1
      vertex 4.29741 4.2197 -1
      vertex -4.475 4.09067 -1
    endloop
  endfacet
  facet normal 0 0 -1
    outer loop
      vertex 3.97294 4.78169 -1
      vertex -3.97294 4.78169 -1
      vertex -3.95 5 -1
    endloop
  endfacet
  facet normal 0 0 -1
    outer loop
      vertex 4.04078 4.57293 -1
      vertex -4.04078 4.57293 -1
      vertex -3.97294 4.78169 -1
    endloop
  endfacet
  facet normal 0 0 -1
    outer loop
      vertex 4.15053 4.38282 -1
      vertex -4.15053 4.38282 -1
      vertex -4.04078 4.57293 -1
    endloop
  endfacet
  facet normal -0 0 -1
    outer loop
      vertex 4.15053 4.38282 -1
      vertex -4.29741 4.2197 -1
      vertex -4.15053 4.38282 -1
    endloop
  endfacet
  facet normal 0 0 -1
    outer loop
      vertex 4.29741 4.2197 -1
      vertex -4.29741 4.2197 -1
      vertex 4.15053 4.38282 -1
    endloop
  endfacet
  facet normal 0 0 -1
    outer loop
      vertex -10.1 -3.6 -1
      vertex -4.475 4.09067 -1
      vertex 10.1 -3.6 -1
    endloop
  endfacet
  facet normal 0 0 -1
    outer loop
      vertex -4.475 4.09067 -1
      vertex -10.1 -3.6 -1
      vertex -4.67553 4.00139 -1
    endloop
  endfacet
  facet normal 0 0 -1
    outer loop
      vertex -4.67553 4.00139 -1
      vertex -10.1 -3.6 -1
      vertex -4.89024 3.95575 -1
    endloop
  endfacet
  facet normal -0 0 -1
    outer loop
      vertex -4.89024 3.95575 -1
      vertex -10.1 -3.6 -1
      vertex -5.10975 3.95575 -1
    endloop
  endfacet
  facet normal -0 0 -1
    outer loop
      vertex -5.10975 3.95575 -1
      vertex -10.1 -3.6 -1
      vertex -5.32447 4.00139 -1
    endloop
  endfacet
  facet normal 0 0 -1
    outer loop
      vertex -10.1 10.1 -1
      vertex -6.02705 4.78169 -1
      vertex -10.1 -3.6 -1
    endloop
  endfacet
  facet normal -0 0 -1
    outer loop
      vertex -5.95922 4.57293 -1
      vertex -10.1 -3.6 -1
      vertex -6.02705 4.78169 -1
    endloop
  endfacet
  facet normal -0 0 -1
    outer loop
      vertex -5.84947 4.38282 -1
      vertex -10.1 -3.6 -1
      vertex -5.95922 4.57293 -1
    endloop
  endfacet
  facet normal -0 0 -1
    outer loop
      vertex -5.70259 4.2197 -1
      vertex -10.1 -3.6 -1
      vertex -5.84947 4.38282 -1
    endloop
  endfacet
  facet normal -0 0 -1
    outer loop
      vertex -5.525 4.09067 -1
      vertex -10.1 -3.6 -1
      vertex -5.70259 4.2197 -1
    endloop
  endfacet
  facet normal -0 0 -1
    outer loop
      vertex -5.32447 4.00139 -1
      vertex -10.1 -3.6 -1
      vertex -5.525 4.09067 -1
    endloop
  endfacet
  facet normal 0 0 -1
    outer loop
      vertex 6.02705 5.21831 -1
      vertex 10.1 10.1 -1
      vertex 6.05 5 -1
    endloop
  endfacet
  facet normal 0 0 -1
    outer loop
      vertex 5.95922 5.42707 -1
      vertex 10.1 10.1 -1
      vertex 6.02705 5.21831 -1
    endloop
  endfacet
  facet normal 0 0 -1
    outer loop
      vertex 5.84947 5.61717 -1
      vertex 10.1 10.1 -1
      vertex 5.95922 5.42707 -1
    endloop
  endfacet
  facet normal 0 0 -1
    outer loop
      vertex 5.70259 5.7803 -1
      vertex 10.1 10.1 -1
      vertex 5.84947 5.61717 -1
    endloop
  endfacet
  facet normal 0 0 -1
    outer loop
      vertex 5.525 5.90933 -1
      vertex 10.1 10.1 -1
      vertex 5.70259 5.7803 -1
    endloop
  endfacet
  facet normal 0 0 -1
    outer loop
      vertex 5.32447 5.99861 -1
      vertex 10.1 10.1 -1
      vertex 5.525 5.90933 -1
    endloop
  endfacet
  facet normal 0 0 -1
    outer loop
      vertex 5.10975 6.04425 -1
      vertex 10.1 10.1 -1
      vertex 5.32447 5.99861 -1
    endloop
  endfacet
  facet normal 0 0 -1
    outer loop
      vertex 4.89024 6.04425 -1
      vertex 10.1 10.1 -1
      vertex 5.10975 6.04425 -1
    endloop
  endfacet
  facet normal 0 0 -1
    outer loop
      vertex 4.67553 5.99861 -1
      vertex 10.1 10.1 -1
      vertex 4.89024 6.04425 -1
    endloop
  endfacet
  facet normal 0 0 -1
    outer loop
      vertex -4.67553 5.99861 -1
      vertex 4.67553 5.99861 -1
      vertex 4.475 5.90933 -1
    endloop
  endfacet
  facet normal 0 0 -1
    outer loop
      vertex -4.475 5.90933 -1
      vertex 4.475 5.90933 -1
      vertex 4.29741 5.7803 -1
    endloop
  endfacet
  facet normal 0 0 -1
    outer loop
      vertex -3.95 5 -1
      vertex 3.97294 5.21831 -1
      vertex 3.95 5 -1
    endloop
  endfacet
  facet normal 0 0 -1
    outer loop
      vertex -3.97294 5.21831 -1
      vertex 3.97294 5.21831 -1
      vertex -3.95 5 -1
    endloop
  endfacet
  facet normal 0 0 -1
    outer loop
      vertex 3.97294 5.21831 -1
      vertex -3.97294 5.21831 -1
      vertex 4.04078 5.42707 -1
    endloop
  endfacet
  facet normal 0 0 -1
    outer loop
      vertex -4.04078 5.42707 -1
      vertex 4.04078 5.42707 -1
      vertex -3.97294 5.21831 -1
    endloop
  endfacet
  facet normal 0 0 -1
    outer loop
      vertex 4.04078 5.42707 -1
      vertex -4.04078 5.42707 -1
      vertex 4.15053 5.61717 -1
    endloop
  endfacet
  facet normal 0 0 -1
    outer loop
      vertex -4.15053 5.61717 -1
      vertex 4.15053 5.61717 -1
      vertex -4.04078 5.42707 -1
    endloop
  endfacet
  facet normal 0 0 -1
    outer loop
      vertex 4.15053 5.61717 -1
      vertex -4.15053 5.61717 -1
      vertex 4.29741 5.7803 -1
    endloop
  endfacet
  facet normal 0 0 -1
    outer loop
      vertex -4.29741 5.7803 -1
      vertex 4.29741 5.7803 -1
      vertex -4.15053 5.61717 -1
    endloop
  endfacet
  facet normal 0 0 -1
    outer loop
      vertex -4.475 5.90933 -1
      vertex 4.29741 5.7803 -1
      vertex -4.29741 5.7803 -1
    endloop
  endfacet
  facet normal 0 0 -1
    outer loop
      vertex 4.475 5.90933 -1
      vertex -4.475 5.90933 -1
      vertex -4.67553 5.99861 -1
    endloop
  endfacet
  facet normal 0 0 -1
    outer loop
      vertex 4.67553 5.99861 -1
      vertex -4.67553 5.99861 -1
      vertex 10.1 10.1 -1
    endloop
  endfacet
  facet normal 0 0 -1
    outer loop
      vertex -10.1 10.1 -1
      vertex -4.67553 5.99861 -1
      vertex -4.89024 6.04425 -1
    endloop
  endfacet
  facet normal 0 0 -1
    outer loop
      vertex -10.1 10.1 -1
      vertex -4.89024 6.04425 -1
      vertex -5.10975 6.04425 -1
    endloop
  endfacet
  facet normal 0 0 -1
    outer loop
      vertex -10.1 10.1 -1
      vertex -5.10975 6.04425 -1
      vertex -5.32447 5.99861 -1
    endloop
  endfacet
  facet normal 0 0 -1
    outer loop
      vertex -6.02705 4.78169 -1
      vertex -10.1 10.1 -1
      vertex -6.05 5 -1
    endloop
  endfacet
  facet normal 0 0 -1
    outer loop
      vertex -6.05 5 -1
      vertex -10.1 10.1 -1
      vertex -6.02705 5.21831 -1
    endloop
  endfacet
  facet normal 0 0 -1
    outer loop
      vertex -4.67553 5.99861 -1
      vertex -10.1 10.1 -1
      vertex 10.1 10.1 -1
    endloop
  endfacet
  facet normal 0 0 -1
    outer loop
      vertex -5.525 5.90933 -1
      vertex -10.1 10.1 -1
      vertex -5.32447 5.99861 -1
    endloop
  endfacet
  facet normal 0 0 -1
    outer loop
      vertex -5.70259 5.7803 -1
      vertex -10.1 10.1 -1
      vertex -5.525 5.90933 -1
    endloop
  endfacet
  facet normal 0 0 -1
    outer loop
      vertex -5.84947 5.61717 -1
      vertex -10.1 10.1 -1
      vertex -5.70259 5.7803 -1
    endloop
  endfacet
  facet normal 0 0 -1
    outer loop
      vertex -5.95922 5.42707 -1
      vertex -10.1 10.1 -1
      vertex -5.84947 5.61717 -1
    endloop
  endfacet
  facet normal 0 0 -1
    outer loop
      vertex -6.02705 5.21831 -1
      vertex -10.1 10.1 -1
      vertex -5.95922 5.42707 -1
    endloop
  endfacet
  facet normal -0.994522 -0.104526 0
    outer loop
      vertex 6.05 5 -1
      vertex 6.02705 5.21831 1
      vertex 6.02705 5.21831 -1
    endloop
  endfacet
  facet normal -0.994522 -0.104526 0
    outer loop
      vertex 6.02705 5.21831 1
      vertex 6.05 5 -1
      vertex 6.05 5 1
    endloop
  endfacet
  facet normal 0 -1 0
    outer loop
      vertex 4.89024 6.04425 -1
      vertex 5.10975 6.04425 1
      vertex 4.89024 6.04425 1
    endloop
  endfacet
  facet normal 0 -1 -0
    outer loop
      vertex 5.10975 6.04425 1
      vertex 4.89024 6.04425 -1
      vertex 5.10975 6.04425 -1
    endloop
  endfacet
  facet normal -0.743147 -0.669128 0
    outer loop
      vertex 5.84947 5.61717 -1
      vertex 5.70259 5.7803 1
      vertex 5.70259 5.7803 -1
    endloop
  endfacet
  facet normal -0.743147 -0.669128 0
    outer loop
      vertex 5.70259 5.7803 1
      vertex 5.84947 5.61717 -1
      vertex 5.84947 5.61717 1
    endloop
  endfacet
  facet normal 0.743147 -0.669128 0
    outer loop
      vertex 4.15053 5.61717 1
      vertex 4.29741 5.7803 -1
      vertex 4.29741 5.7803 1
    endloop
  endfacet
  facet normal 0.743147 -0.669128 0
    outer loop
      vertex 4.29741 5.7803 -1
      vertex 4.15053 5.61717 1
      vertex 4.15053 5.61717 -1
    endloop
  endfacet
  facet normal 0.406735 -0.913546 0
    outer loop
      vertex 4.475 5.90933 -1
      vertex 4.67553 5.99861 1
      vertex 4.475 5.90933 1
    endloop
  endfacet
  facet normal 0.406735 -0.913546 0
    outer loop
      vertex 4.67553 5.99861 1
      vertex 4.475 5.90933 -1
      vertex 4.67553 5.99861 -1
    endloop
  endfacet
  facet normal 0.951055 0.30902 0
    outer loop
      vertex 4.04078 4.57293 1
      vertex 3.97294 4.78169 -1
      vertex 3.97294 4.78169 1
    endloop
  endfacet
  facet normal 0.951055 0.30902 0
    outer loop
      vertex 3.97294 4.78169 -1
      vertex 4.04078 4.57293 1
      vertex 4.04078 4.57293 -1
    endloop
  endfacet
  facet normal -0.866027 -0.499998 0
    outer loop
      vertex 5.95922 5.42707 -1
      vertex 5.84947 5.61717 1
      vertex 5.84947 5.61717 -1
    endloop
  endfacet
  facet normal -0.866027 -0.499998 0
    outer loop
      vertex 5.84947 5.61717 1
      vertex 5.95922 5.42707 -1
      vertex 5.95922 5.42707 1
    endloop
  endfacet
  facet normal -0.951055 -0.30902 0
    outer loop
      vertex 6.02705 5.21831 -1
      vertex 5.95922 5.42707 1
      vertex 5.95922 5.42707 -1
    endloop
  endfacet
  facet normal -0.951055 -0.30902 0
    outer loop
      vertex 5.95922 5.42707 1
      vertex 6.02705 5.21831 -1
      vertex 6.02705 5.21831 1
    endloop
  endfacet
  facet normal -0.406735 -0.913546 0
    outer loop
      vertex 5.32447 5.99861 -1
      vertex 5.525 5.90933 1
      vertex 5.32447 5.99861 1
    endloop
  endfacet
  facet normal -0.406735 -0.913546 -0
    outer loop
      vertex 5.525 5.90933 1
      vertex 5.32447 5.99861 -1
      vertex 5.525 5.90933 -1
    endloop
  endfacet
  facet normal -0.207913 -0.978147 0
    outer loop
      vertex 5.10975 6.04425 -1
      vertex 5.32447 5.99861 1
      vertex 5.10975 6.04425 1
    endloop
  endfacet
  facet normal -0.207913 -0.978147 -0
    outer loop
      vertex 5.32447 5.99861 1
      vertex 5.10975 6.04425 -1
      vertex 5.32447 5.99861 -1
    endloop
  endfacet
  facet normal -0.587784 -0.809018 0
    outer loop
      vertex 5.525 5.90933 -1
      vertex 5.70259 5.7803 1
      vertex 5.525 5.90933 1
    endloop
  endfacet
  facet normal -0.587784 -0.809018 -0
    outer loop
      vertex 5.70259 5.7803 1
      vertex 5.525 5.90933 -1
      vertex 5.70259 5.7803 -1
    endloop
  endfacet
  facet normal 0.951055 -0.30902 0
    outer loop
      vertex 3.97294 5.21831 1
      vertex 4.04078 5.42707 -1
      vertex 4.04078 5.42707 1
    endloop
  endfacet
  facet normal 0.951055 -0.30902 0
    outer loop
      vertex 4.04078 5.42707 -1
      vertex 3.97294 5.21831 1
      vertex 3.97294 5.21831 -1
    endloop
  endfacet
  facet normal 0.866027 -0.499998 0
    outer loop
      vertex 4.04078 5.42707 1
      vertex 4.15053 5.61717 -1
      vertex 4.15053 5.61717 1
    endloop
  endfacet
  facet normal 0.866027 -0.499998 0
    outer loop
      vertex 4.15053 5.61717 -1
      vertex 4.04078 5.42707 1
      vertex 4.04078 5.42707 -1
    endloop
  endfacet
  facet normal 0.994522 -0.104526 0
    outer loop
      vertex 3.95 5 1
      vertex 3.97294 5.21831 -1
      vertex 3.97294 5.21831 1
    endloop
  endfacet
  facet normal 0.994522 -0.104526 0
    outer loop
      vertex 3.97294 5.21831 -1
      vertex 3.95 5 1
      vertex 3.95 5 -1
    endloop
  endfacet
  facet normal 0.587784 -0.809018 0
    outer loop
      vertex 4.29741 5.7803 -1
      vertex 4.475 5.90933 1
      vertex 4.29741 5.7803 1
    endloop
  endfacet
  facet normal 0.587784 -0.809018 0
    outer loop
      vertex 4.475 5.90933 1
      vertex 4.29741 5.7803 -1
      vertex 4.475 5.90933 -1
    endloop
  endfacet
  facet normal 0.207913 -0.978147 0
    outer loop
      vertex 4.67553 5.99861 -1
      vertex 4.89024 6.04425 1
      vertex 4.67553 5.99861 1
    endloop
  endfacet
  facet normal 0.207913 -0.978147 0
    outer loop
      vertex 4.89024 6.04425 1
      vertex 4.67553 5.99861 -1
      vertex 4.89024 6.04425 -1
    endloop
  endfacet
  facet normal -0.994522 0.104526 0
    outer loop
      vertex 6.02705 4.78169 -1
      vertex 6.05 5 1
      vertex 6.05 5 -1
    endloop
  endfacet
  facet normal -0.994522 0.104526 0
    outer loop
      vertex 6.05 5 1
      vertex 6.02705 4.78169 -1
      vertex 6.02705 4.78169 1
    endloop
  endfacet
  facet normal -0.207913 0.978147 0
    outer loop
      vertex 5.32447 4.00139 -1
      vertex 5.10975 3.95575 1
      vertex 5.32447 4.00139 1
    endloop
  endfacet
  facet normal -0.207913 0.978147 0
    outer loop
      vertex 5.10975 3.95575 1
      vertex 5.32447 4.00139 -1
      vertex 5.10975 3.95575 -1
    endloop
  endfacet
  facet normal -0.587784 0.809018 0
    outer loop
      vertex 5.70259 4.2197 -1
      vertex 5.525 4.09067 1
      vertex 5.70259 4.2197 1
    endloop
  endfacet
  facet normal -0.587784 0.809018 0
    outer loop
      vertex 5.525 4.09067 1
      vertex 5.70259 4.2197 -1
      vertex 5.525 4.09067 -1
    endloop
  endfacet
  facet normal -0.866027 0.499998 0
    outer loop
      vertex 5.84947 4.38282 -1
      vertex 5.95922 4.57293 1
      vertex 5.95922 4.57293 -1
    endloop
  endfacet
  facet normal -0.866027 0.499998 0
    outer loop
      vertex 5.95922 4.57293 1
      vertex 5.84947 4.38282 -1
      vertex 5.84947 4.38282 1
    endloop
  endfacet
  facet normal 0.587784 0.809018 -0
    outer loop
      vertex 4.475 4.09067 -1
      vertex 4.29741 4.2197 1
      vertex 4.475 4.09067 1
    endloop
  endfacet
  facet normal 0.587784 0.809018 0
    outer loop
      vertex 4.29741 4.2197 1
      vertex 4.475 4.09067 -1
      vertex 4.29741 4.2197 -1
    endloop
  endfacet
  facet normal 0.207913 0.978147 -0
    outer loop
      vertex 4.89024 3.95575 -1
      vertex 4.67553 4.00139 1
      vertex 4.89024 3.95575 1
    endloop
  endfacet
  facet normal 0.207913 0.978147 0
    outer loop
      vertex 4.67553 4.00139 1
      vertex 4.89024 3.95575 -1
      vertex 4.67553 4.00139 -1
    endloop
  endfacet
  facet normal 0.743147 0.669128 0
    outer loop
      vertex 4.29741 4.2197 1
      vertex 4.15053 4.38282 -1
      vertex 4.15053 4.38282 1
    endloop
  endfacet
  facet normal 0.743147 0.669128 0
    outer loop
      vertex 4.15053 4.38282 -1
      vertex 4.29741 4.2197 1
      vertex 4.29741 4.2197 -1
    endloop
  endfacet
  facet normal 0.994522 0.104526 0
    outer loop
      vertex 3.97294 4.78169 1
      vertex 3.95 5 -1
      vertex 3.95 5 1
    endloop
  endfacet
  facet normal 0.994522 0.104526 0
    outer loop
      vertex 3.95 5 -1
      vertex 3.97294 4.78169 1
      vertex 3.97294 4.78169 -1
    endloop
  endfacet
  facet normal -0.406735 0.913546 0
    outer loop
      vertex 5.525 4.09067 -1
      vertex 5.32447 4.00139 1
      vertex 5.525 4.09067 1
    endloop
  endfacet
  facet normal -0.406735 0.913546 0
    outer loop
      vertex 5.32447 4.00139 1
      vertex 5.525 4.09067 -1
      vertex 5.32447 4.00139 -1
    endloop
  endfacet
  facet normal -0.743147 0.669128 0
    outer loop
      vertex 5.70259 4.2197 -1
      vertex 5.84947 4.38282 1
      vertex 5.84947 4.38282 -1
    endloop
  endfacet
  facet normal -0.743147 0.669128 0
    outer loop
      vertex 5.84947 4.38282 1
      vertex 5.70259 4.2197 -1
      vertex 5.70259 4.2197 1
    endloop
  endfacet
  facet normal -0.951055 0.30902 0
    outer loop
      vertex 5.95922 4.57293 -1
      vertex 6.02705 4.78169 1
      vertex 6.02705 4.78169 -1
    endloop
  endfacet
  facet normal -0.951055 0.30902 0
    outer loop
      vertex 6.02705 4.78169 1
      vertex 5.95922 4.57293 -1
      vertex 5.95922 4.57293 1
    endloop
  endfacet
  facet normal 0.406735 0.913546 -0
    outer loop
      vertex 4.67553 4.00139 -1
      vertex 4.475 4.09067 1
      vertex 4.67553 4.00139 1
    endloop
  endfacet
  facet normal 0.406735 0.913546 0
    outer loop
      vertex 4.475 4.09067 1
      vertex 4.67553 4.00139 -1
      vertex 4.475 4.09067 -1
    endloop
  endfacet
  facet normal 0 1 -0
    outer loop
      vertex 5.10975 3.95575 -1
      vertex 4.89024 3.95575 1
      vertex 5.10975 3.95575 1
    endloop
  endfacet
  facet normal 0 1 0
    outer loop
      vertex 4.89024 3.95575 1
      vertex 5.10975 3.95575 -1
      vertex 4.89024 3.95575 -1
    endloop
  endfacet
  facet normal 0.866027 0.499998 0
    outer loop
      vertex 4.15053 4.38282 1
      vertex 4.04078 4.57293 -1
      vertex 4.04078 4.57293 1
    endloop
  endfacet
  facet normal 0.866027 0.499998 0
    outer loop
      vertex 4.04078 4.57293 -1
      vertex 4.15053 4.38282 1
      vertex 4.15053 4.38282 -1
    endloop
  endfacet
  facet normal 0 -1 0
    outer loop
      vertex 4.67553 -3.6 8.59861
      vertex 10.1 -3.6 12.7
      vertex -4.67553 -3.6 8.59861
    endloop
  endfacet
  facet normal 0 -1 0
    outer loop
      vertex 10.1 -3.6 12.7
      vertex 4.67553 -3.6 8.59861
      vertex 4.89024 -3.6 8.64425
    endloop
  endfacet
  facet normal 0 -1 0
    outer loop
      vertex -4.475 -3.6 8.50933
      vertex 4.67553 -3.6 8.59861
      vertex -4.67553 -3.6 8.59861
    endloop
  endfacet
  facet normal 0 -1 0
    outer loop
      vertex -4.475 -3.6 8.50933
      vertex 4.475 -3.6 8.50933
      vertex 4.67553 -3.6 8.59861
    endloop
  endfacet
  facet normal 0 -1 0
    outer loop
      vertex -4.29741 -3.6 8.3803
      vertex 4.475 -3.6 8.50933
      vertex -4.475 -3.6 8.50933
    endloop
  endfacet
  facet normal 0 -1 0
    outer loop
      vertex -4.29741 -3.6 8.3803
      vertex 4.29741 -3.6 8.3803
      vertex 4.475 -3.6 8.50933
    endloop
  endfacet
  facet normal 0 -1 0
    outer loop
      vertex -4.15053 -3.6 8.21717
      vertex 4.29741 -3.6 8.3803
      vertex -4.29741 -3.6 8.3803
    endloop
  endfacet
  facet normal 0 -1 0
    outer loop
      vertex -4.15053 -3.6 8.21717
      vertex 4.15053 -3.6 8.21717
      vertex 4.29741 -3.6 8.3803
    endloop
  endfacet
  facet normal 0 -1 0
    outer loop
      vertex -4.04078 -3.6 8.02707
      vertex 4.15053 -3.6 8.21717
      vertex -4.15053 -3.6 8.21717
    endloop
  endfacet
  facet normal 0 -1 0
    outer loop
      vertex -4.04078 -3.6 8.02707
      vertex 4.04078 -3.6 8.02707
      vertex 4.15053 -3.6 8.21717
    endloop
  endfacet
  facet normal 0 -1 0
    outer loop
      vertex -3.97294 -3.6 7.81831
      vertex 4.04078 -3.6 8.02707
      vertex -4.04078 -3.6 8.02707
    endloop
  endfacet
  facet normal 0 -1 0
    outer loop
      vertex -3.97294 -3.6 7.81831
      vertex 3.97294 -3.6 7.81831
      vertex 4.04078 -3.6 8.02707
    endloop
  endfacet
  facet normal 0 -1 0
    outer loop
      vertex -3.95 -3.6 7.6
      vertex 3.97294 -3.6 7.81831
      vertex -3.97294 -3.6 7.81831
    endloop
  endfacet
  facet normal 0 -1 0
    outer loop
      vertex -3.95 -3.6 7.6
      vertex 3.95 -3.6 7.6
      vertex 3.97294 -3.6 7.81831
    endloop
  endfacet
  facet normal 0 -1 0
    outer loop
      vertex -3.97294 -3.6 7.38169
      vertex 3.95 -3.6 7.6
      vertex -3.95 -3.6 7.6
    endloop
  endfacet
  facet normal 0 -1 0
    outer loop
      vertex -3.97294 -3.6 7.38169
      vertex 3.97294 -3.6 7.38169
      vertex 3.95 -3.6 7.6
    endloop
  endfacet
  facet normal 0 -1 0
    outer loop
      vertex -4.04078 -3.6 7.17293
      vertex 3.97294 -3.6 7.38169
      vertex -3.97294 -3.6 7.38169
    endloop
  endfacet
  facet normal 0 -1 0
    outer loop
      vertex -4.04078 -3.6 7.17293
      vertex 4.04078 -3.6 7.17293
      vertex 3.97294 -3.6 7.38169
    endloop
  endfacet
  facet normal 0 -1 0
    outer loop
      vertex -4.15053 -3.6 6.98282
      vertex 4.04078 -3.6 7.17293
      vertex -4.04078 -3.6 7.17293
    endloop
  endfacet
  facet normal 0 -1 0
    outer loop
      vertex -4.15053 -3.6 6.98282
      vertex 4.15053 -3.6 6.98282
      vertex 4.04078 -3.6 7.17293
    endloop
  endfacet
  facet normal 0 -1 0
    outer loop
      vertex -4.29741 -3.6 6.8197
      vertex 4.15053 -3.6 6.98282
      vertex -4.15053 -3.6 6.98282
    endloop
  endfacet
  facet normal 0 -1 0
    outer loop
      vertex -4.29741 -3.6 6.8197
      vertex 4.29741 -3.6 6.8197
      vertex 4.15053 -3.6 6.98282
    endloop
  endfacet
  facet normal 0 -1 0
    outer loop
      vertex -4.475 -3.6 6.69067
      vertex 4.29741 -3.6 6.8197
      vertex -4.29741 -3.6 6.8197
    endloop
  endfacet
  facet normal 0 -1 0
    outer loop
      vertex -4.475 -3.6 6.69067
      vertex 4.475 -3.6 6.69067
      vertex 4.29741 -3.6 6.8197
    endloop
  endfacet
  facet normal 0 -1 0
    outer loop
      vertex -10.1 -3.6 0.6
      vertex -4.475 -3.6 6.69067
      vertex -4.67553 -3.6 6.60139
    endloop
  endfacet
  facet normal 0 -1 -0
    outer loop
      vertex -4.475 -3.6 6.69067
      vertex -10.1 -3.6 0.6
      vertex 4.475 -3.6 6.69067
    endloop
  endfacet
  facet normal 0 -1 0
    outer loop
      vertex -10.1 -3.6 0.6
      vertex -4.67553 -3.6 6.60139
      vertex -4.89024 -3.6 6.55575
    endloop
  endfacet
  facet normal 0 -1 0
    outer loop
      vertex 10.1 -3.6 0.6
      vertex 4.475 -3.6 6.69067
      vertex -10.1 -3.6 0.6
    endloop
  endfacet
  facet normal 0 -1 0
    outer loop
      vertex -4.89024 -3.6 8.64425
      vertex -10.1 -3.6 12.7
      vertex -5.10975 -3.6 8.64425
    endloop
  endfacet
  facet normal 0 -1 0
    outer loop
      vertex -10.1 -3.6 12.7
      vertex -5.32447 -3.6 8.59861
      vertex -5.10975 -3.6 8.64425
    endloop
  endfacet
  facet normal 0 -1 0
    outer loop
      vertex -10.1 -3.6 12.7
      vertex -5.525 -3.6 8.50933
      vertex -5.32447 -3.6 8.59861
    endloop
  endfacet
  facet normal 0 -1 0
    outer loop
      vertex -10.1 -3.6 12.7
      vertex -5.70259 -3.6 8.3803
      vertex -5.525 -3.6 8.50933
    endloop
  endfacet
  facet normal 0 -1 0
    outer loop
      vertex -10.1 -3.6 12.7
      vertex -5.84947 -3.6 8.21717
      vertex -5.70259 -3.6 8.3803
    endloop
  endfacet
  facet normal 0 -1 0
    outer loop
      vertex -10.1 -3.6 12.7
      vertex -5.95922 -3.6 8.02707
      vertex -5.84947 -3.6 8.21717
    endloop
  endfacet
  facet normal 0 -1 0
    outer loop
      vertex -10.1 -3.6 12.7
      vertex -6.02705 -3.6 7.81831
      vertex -5.95922 -3.6 8.02707
    endloop
  endfacet
  facet normal 0 -1 0
    outer loop
      vertex -10.1 -3.6 12.7
      vertex -6.05 -3.6 7.6
      vertex -6.02705 -3.6 7.81831
    endloop
  endfacet
  facet normal 0 -1 0
    outer loop
      vertex -10.1 -3.6 12.7
      vertex -6.02705 -3.6 7.38169
      vertex -6.05 -3.6 7.6
    endloop
  endfacet
  facet normal 0 -1 0
    outer loop
      vertex -10.1 -3.6 0.6
      vertex -6.02705 -3.6 7.38169
      vertex -10.1 -3.6 12.7
    endloop
  endfacet
  facet normal 0 -1 -0
    outer loop
      vertex -6.02705 -3.6 7.38169
      vertex -10.1 -3.6 0.6
      vertex -5.95922 -3.6 7.17293
    endloop
  endfacet
  facet normal 0 -1 0
    outer loop
      vertex -10.1 -3.6 0.6
      vertex -4.89024 -3.6 6.55575
      vertex -5.10975 -3.6 6.55575
    endloop
  endfacet
  facet normal 0 -1 0
    outer loop
      vertex 4.475 -3.6 6.69067
      vertex 10.1 -3.6 0.6
      vertex 4.67553 -3.6 6.60139
    endloop
  endfacet
  facet normal 0 -1 0
    outer loop
      vertex 4.67553 -3.6 6.60139
      vertex 10.1 -3.6 0.6
      vertex 4.89024 -3.6 6.55575
    endloop
  endfacet
  facet normal 0 -1 -0
    outer loop
      vertex -5.32447 -3.6 6.60139
      vertex -10.1 -3.6 0.6
      vertex -5.10975 -3.6 6.55575
    endloop
  endfacet
  facet normal 0 -1 -0
    outer loop
      vertex -5.525 -3.6 6.69067
      vertex -10.1 -3.6 0.6
      vertex -5.32447 -3.6 6.60139
    endloop
  endfacet
  facet normal 0 -1 -0
    outer loop
      vertex -5.70259 -3.6 6.8197
      vertex -10.1 -3.6 0.6
      vertex -5.525 -3.6 6.69067
    endloop
  endfacet
  facet normal 0 -1 -0
    outer loop
      vertex -5.84947 -3.6 6.98282
      vertex -10.1 -3.6 0.6
      vertex -5.70259 -3.6 6.8197
    endloop
  endfacet
  facet normal 0 -1 -0
    outer loop
      vertex -5.95922 -3.6 7.17293
      vertex -10.1 -3.6 0.6
      vertex -5.84947 -3.6 6.98282
    endloop
  endfacet
  facet normal 0 -1 0
    outer loop
      vertex -4.67553 -3.6 8.59861
      vertex -10.1 -3.6 12.7
      vertex -4.89024 -3.6 8.64425
    endloop
  endfacet
  facet normal 0 -1 0
    outer loop
      vertex -10.1 -3.6 12.7
      vertex -4.67553 -3.6 8.59861
      vertex 10.1 -3.6 12.7
    endloop
  endfacet
  facet normal 0 -1 0
    outer loop
      vertex 5.10975 -3.6 8.64425
      vertex 10.1 -3.6 12.7
      vertex 4.89024 -3.6 8.64425
    endloop
  endfacet
  facet normal 0 -1 0
    outer loop
      vertex 5.32447 -3.6 8.59861
      vertex 10.1 -3.6 12.7
      vertex 5.10975 -3.6 8.64425
    endloop
  endfacet
  facet normal 0 -1 0
    outer loop
      vertex 5.525 -3.6 8.50933
      vertex 10.1 -3.6 12.7
      vertex 5.32447 -3.6 8.59861
    endloop
  endfacet
  facet normal 0 -1 0
    outer loop
      vertex 5.70259 -3.6 8.3803
      vertex 10.1 -3.6 12.7
      vertex 5.525 -3.6 8.50933
    endloop
  endfacet
  facet normal 0 -1 0
    outer loop
      vertex 5.84947 -3.6 8.21717
      vertex 10.1 -3.6 12.7
      vertex 5.70259 -3.6 8.3803
    endloop
  endfacet
  facet normal 0 -1 0
    outer loop
      vertex 5.95922 -3.6 8.02707
      vertex 10.1 -3.6 12.7
      vertex 5.84947 -3.6 8.21717
    endloop
  endfacet
  facet normal 0 -1 0
    outer loop
      vertex 6.02705 -3.6 7.81831
      vertex 10.1 -3.6 12.7
      vertex 5.95922 -3.6 8.02707
    endloop
  endfacet
  facet normal 0 -1 0
    outer loop
      vertex 6.05 -3.6 7.6
      vertex 10.1 -3.6 12.7
      vertex 6.02705 -3.6 7.81831
    endloop
  endfacet
  facet normal 0 -1 0
    outer loop
      vertex 6.02705 -3.6 7.38169
      vertex 10.1 -3.6 12.7
      vertex 6.05 -3.6 7.6
    endloop
  endfacet
  facet normal 0 -1 0
    outer loop
      vertex 10.1 -3.6 0.6
      vertex 6.02705 -3.6 7.38169
      vertex 5.95922 -3.6 7.17293
    endloop
  endfacet
  facet normal 0 -1 0
    outer loop
      vertex 10.1 -3.6 0.6
      vertex 5.95922 -3.6 7.17293
      vertex 5.84947 -3.6 6.98282
    endloop
  endfacet
  facet normal 0 -1 0
    outer loop
      vertex 4.89024 -3.6 6.55575
      vertex 10.1 -3.6 0.6
      vertex 5.10975 -3.6 6.55575
    endloop
  endfacet
  facet normal 0 -1 0
    outer loop
      vertex 6.02705 -3.6 7.38169
      vertex 10.1 -3.6 0.6
      vertex 10.1 -3.6 12.7
    endloop
  endfacet
  facet normal 0 -1 0
    outer loop
      vertex 5.70259 -3.6 6.8197
      vertex 10.1 -3.6 0.6
      vertex 5.84947 -3.6 6.98282
    endloop
  endfacet
  facet normal 0 -1 0
    outer loop
      vertex 5.525 -3.6 6.69067
      vertex 10.1 -3.6 0.6
      vertex 5.70259 -3.6 6.8197
    endloop
  endfacet
  facet normal 0 -1 0
    outer loop
      vertex 5.32447 -3.6 6.60139
      vertex 10.1 -3.6 0.6
      vertex 5.525 -3.6 6.69067
    endloop
  endfacet
  facet normal 0 -1 0
    outer loop
      vertex 5.10975 -3.6 6.55575
      vertex 10.1 -3.6 0.6
      vertex 5.32447 -3.6 6.60139
    endloop
  endfacet
  facet normal -0 0 1
    outer loop
      vertex -10.1 -1.6 12.7
      vertex 10.1 -3.6 12.7
      vertex 10.1 -1.6 12.7
    endloop
  endfacet
  facet normal 0 0 1
    outer loop
      vertex 10.1 -3.6 12.7
      vertex -10.1 -1.6 12.7
      vertex -10.1 -3.6 12.7
    endloop
  endfacet
  facet normal 0 1 -0
    outer loop
      vertex -4.67553 -1.6 8.59861
      vertex -10.1 -1.6 12.7
      vertex 4.67553 -1.6 8.59861
    endloop
  endfacet
  facet normal 0 1 0
    outer loop
      vertex -10.1 -1.6 12.7
      vertex -4.67553 -1.6 8.59861
      vertex -4.89024 -1.6 8.64425
    endloop
  endfacet
  facet normal 0 1 -0
    outer loop
      vertex 4.475 -1.6 8.50933
      vertex -4.67553 -1.6 8.59861
      vertex 4.67553 -1.6 8.59861
    endloop
  endfacet
  facet normal 0 1 0
    outer loop
      vertex 4.475 -1.6 8.50933
      vertex -4.475 -1.6 8.50933
      vertex -4.67553 -1.6 8.59861
    endloop
  endfacet
  facet normal 0 1 -0
    outer loop
      vertex 4.29741 -1.6 8.3803
      vertex -4.475 -1.6 8.50933
      vertex 4.475 -1.6 8.50933
    endloop
  endfacet
  facet normal 0 1 0
    outer loop
      vertex 4.29741 -1.6 8.3803
      vertex -4.29741 -1.6 8.3803
      vertex -4.475 -1.6 8.50933
    endloop
  endfacet
  facet normal 0 1 -0
    outer loop
      vertex 4.15053 -1.6 8.21717
      vertex -4.29741 -1.6 8.3803
      vertex 4.29741 -1.6 8.3803
    endloop
  endfacet
  facet normal 0 1 0
    outer loop
      vertex 4.15053 -1.6 8.21717
      vertex -4.15053 -1.6 8.21717
      vertex -4.29741 -1.6 8.3803
    endloop
  endfacet
  facet normal 0 1 -0
    outer loop
      vertex 4.04078 -1.6 8.02707
      vertex -4.15053 -1.6 8.21717
      vertex 4.15053 -1.6 8.21717
    endloop
  endfacet
  facet normal 0 1 0
    outer loop
      vertex 4.04078 -1.6 8.02707
      vertex -4.04078 -1.6 8.02707
      vertex -4.15053 -1.6 8.21717
    endloop
  endfacet
  facet normal 0 1 -0
    outer loop
      vertex 3.97294 -1.6 7.81831
      vertex -4.04078 -1.6 8.02707
      vertex 4.04078 -1.6 8.02707
    endloop
  endfacet
  facet normal 0 1 0
    outer loop
      vertex 3.97294 -1.6 7.81831
      vertex -3.97294 -1.6 7.81831
      vertex -4.04078 -1.6 8.02707
    endloop
  endfacet
  facet normal 0 1 -0
    outer loop
      vertex 3.95 -1.6 7.6
      vertex -3.97294 -1.6 7.81831
      vertex 3.97294 -1.6 7.81831
    endloop
  endfacet
  facet normal 0 1 0
    outer loop
      vertex 3.95 -1.6 7.6
      vertex -3.95 -1.6 7.6
      vertex -3.97294 -1.6 7.81831
    endloop
  endfacet
  facet normal 0 1 0
    outer loop
      vertex 3.97294 -1.6 7.38169
      vertex -3.95 -1.6 7.6
      vertex 3.95 -1.6 7.6
    endloop
  endfacet
  facet normal 0 1 0
    outer loop
      vertex 3.97294 -1.6 7.38169
      vertex -3.97294 -1.6 7.38169
      vertex -3.95 -1.6 7.6
    endloop
  endfacet
  facet normal 0 1 0
    outer loop
      vertex 4.04078 -1.6 7.17293
      vertex -3.97294 -1.6 7.38169
      vertex 3.97294 -1.6 7.38169
    endloop
  endfacet
  facet normal 0 1 0
    outer loop
      vertex 4.04078 -1.6 7.17293
      vertex -4.04078 -1.6 7.17293
      vertex -3.97294 -1.6 7.38169
    endloop
  endfacet
  facet normal 0 1 0
    outer loop
      vertex 4.15053 -1.6 6.98282
      vertex -4.04078 -1.6 7.17293
      vertex 4.04078 -1.6 7.17293
    endloop
  endfacet
  facet normal 0 1 0
    outer loop
      vertex 4.15053 -1.6 6.98282
      vertex -4.15053 -1.6 6.98282
      vertex -4.04078 -1.6 7.17293
    endloop
  endfacet
  facet normal 0 1 0
    outer loop
      vertex 4.29741 -1.6 6.8197
      vertex -4.15053 -1.6 6.98282
      vertex 4.15053 -1.6 6.98282
    endloop
  endfacet
  facet normal 0 1 0
    outer loop
      vertex 4.29741 -1.6 6.8197
      vertex -4.29741 -1.6 6.8197
      vertex -4.15053 -1.6 6.98282
    endloop
  endfacet
  facet normal 0 1 0
    outer loop
      vertex 4.475 -1.6 6.69067
      vertex -4.29741 -1.6 6.8197
      vertex 4.29741 -1.6 6.8197
    endloop
  endfacet
  facet normal 0 1 0
    outer loop
      vertex 4.475 -1.6 6.69067
      vertex -4.475 -1.6 6.69067
      vertex -4.29741 -1.6 6.8197
    endloop
  endfacet
  facet normal 0 1 0
    outer loop
      vertex 4.67553 -1.6 6.60139
      vertex -4.475 -1.6 6.69067
      vertex 4.475 -1.6 6.69067
    endloop
  endfacet
  facet normal 0 1 0
    outer loop
      vertex 4.67553 -1.6 6.60139
      vertex -4.67553 -1.6 6.60139
      vertex -4.475 -1.6 6.69067
    endloop
  endfacet
  facet normal 0 1 0
    outer loop
      vertex 10.1 -1.6 2.6
      vertex 4.67553 -1.6 6.60139
      vertex 4.89024 -1.6 6.55575
    endloop
  endfacet
  facet normal 0 1 0
    outer loop
      vertex 4.67553 -1.6 6.60139
      vertex 10.1 -1.6 2.6
      vertex -4.67553 -1.6 6.60139
    endloop
  endfacet
  facet normal 0 1 0
    outer loop
      vertex 4.89024 -1.6 8.64425
      vertex 10.1 -1.6 12.7
      vertex 5.10975 -1.6 8.64425
    endloop
  endfacet
  facet normal 0 1 0
    outer loop
      vertex 10.1 -1.6 12.7
      vertex 5.32447 -1.6 8.59861
      vertex 5.10975 -1.6 8.64425
    endloop
  endfacet
  facet normal 0 1 0
    outer loop
      vertex 10.1 -1.6 12.7
      vertex 5.525 -1.6 8.50933
      vertex 5.32447 -1.6 8.59861
    endloop
  endfacet
  facet normal 0 1 0
    outer loop
      vertex 10.1 -1.6 12.7
      vertex 5.70259 -1.6 8.3803
      vertex 5.525 -1.6 8.50933
    endloop
  endfacet
  facet normal 0 1 0
    outer loop
      vertex 10.1 -1.6 12.7
      vertex 5.84947 -1.6 8.21717
      vertex 5.70259 -1.6 8.3803
    endloop
  endfacet
  facet normal 0 1 0
    outer loop
      vertex 10.1 -1.6 12.7
      vertex 5.95922 -1.6 8.02707
      vertex 5.84947 -1.6 8.21717
    endloop
  endfacet
  facet normal 0 1 0
    outer loop
      vertex 10.1 -1.6 12.7
      vertex 6.02705 -1.6 7.81831
      vertex 5.95922 -1.6 8.02707
    endloop
  endfacet
  facet normal 0 1 0
    outer loop
      vertex 10.1 -1.6 12.7
      vertex 6.05 -1.6 7.6
      vertex 6.02705 -1.6 7.81831
    endloop
  endfacet
  facet normal 0 1 -0
    outer loop
      vertex 10.1 -1.6 2.6
      vertex 6.05 -1.6 7.6
      vertex 10.1 -1.6 12.7
    endloop
  endfacet
  facet normal 0 1 0
    outer loop
      vertex 6.05 -1.6 7.6
      vertex 10.1 -1.6 2.6
      vertex 6.02705 -1.6 7.38169
    endloop
  endfacet
  facet normal 0 1 0
    outer loop
      vertex 6.02705 -1.6 7.38169
      vertex 10.1 -1.6 2.6
      vertex 5.95922 -1.6 7.17293
    endloop
  endfacet
  facet normal 0 1 0
    outer loop
      vertex 10.1 -1.6 2.6
      vertex 4.89024 -1.6 6.55575
      vertex 5.10975 -1.6 6.55575
    endloop
  endfacet
  facet normal 0 1 0
    outer loop
      vertex -10.1 -1.6 2.6
      vertex -4.67553 -1.6 6.60139
      vertex 10.1 -1.6 2.6
    endloop
  endfacet
  facet normal 0 1 0
    outer loop
      vertex -4.67553 -1.6 6.60139
      vertex -10.1 -1.6 2.6
      vertex -4.89024 -1.6 6.55575
    endloop
  endfacet
  facet normal 0 1 0
    outer loop
      vertex 5.32447 -1.6 6.60139
      vertex 10.1 -1.6 2.6
      vertex 5.10975 -1.6 6.55575
    endloop
  endfacet
  facet normal 0 1 0
    outer loop
      vertex 5.525 -1.6 6.69067
      vertex 10.1 -1.6 2.6
      vertex 5.32447 -1.6 6.60139
    endloop
  endfacet
  facet normal 0 1 0
    outer loop
      vertex 5.70259 -1.6 6.8197
      vertex 10.1 -1.6 2.6
      vertex 5.525 -1.6 6.69067
    endloop
  endfacet
  facet normal 0 1 0
    outer loop
      vertex 5.84947 -1.6 6.98282
      vertex 10.1 -1.6 2.6
      vertex 5.70259 -1.6 6.8197
    endloop
  endfacet
  facet normal 0 1 0
    outer loop
      vertex 5.95922 -1.6 7.17293
      vertex 10.1 -1.6 2.6
      vertex 5.84947 -1.6 6.98282
    endloop
  endfacet
  facet normal 0 1 0
    outer loop
      vertex 4.67553 -1.6 8.59861
      vertex 10.1 -1.6 12.7
      vertex 4.89024 -1.6 8.64425
    endloop
  endfacet
  facet normal 0 1 0
    outer loop
      vertex 10.1 -1.6 12.7
      vertex 4.67553 -1.6 8.59861
      vertex -10.1 -1.6 12.7
    endloop
  endfacet
  facet normal 0 1 -0
    outer loop
      vertex -5.10975 -1.6 8.64425
      vertex -10.1 -1.6 12.7
      vertex -4.89024 -1.6 8.64425
    endloop
  endfacet
  facet normal 0 1 -0
    outer loop
      vertex -5.32447 -1.6 8.59861
      vertex -10.1 -1.6 12.7
      vertex -5.10975 -1.6 8.64425
    endloop
  endfacet
  facet normal 0 1 -0
    outer loop
      vertex -5.525 -1.6 8.50933
      vertex -10.1 -1.6 12.7
      vertex -5.32447 -1.6 8.59861
    endloop
  endfacet
  facet normal 0 1 -0
    outer loop
      vertex -5.70259 -1.6 8.3803
      vertex -10.1 -1.6 12.7
      vertex -5.525 -1.6 8.50933
    endloop
  endfacet
  facet normal 0 1 -0
    outer loop
      vertex -5.84947 -1.6 8.21717
      vertex -10.1 -1.6 12.7
      vertex -5.70259 -1.6 8.3803
    endloop
  endfacet
  facet normal 0 1 -0
    outer loop
      vertex -5.95922 -1.6 8.02707
      vertex -10.1 -1.6 12.7
      vertex -5.84947 -1.6 8.21717
    endloop
  endfacet
  facet normal 0 1 -0
    outer loop
      vertex -6.02705 -1.6 7.81831
      vertex -10.1 -1.6 12.7
      vertex -5.95922 -1.6 8.02707
    endloop
  endfacet
  facet normal 0 1 -0
    outer loop
      vertex -6.05 -1.6 7.6
      vertex -10.1 -1.6 12.7
      vertex -6.02705 -1.6 7.81831
    endloop
  endfacet
  facet normal 0 1 0
    outer loop
      vertex -10.1 -1.6 2.6
      vertex -6.05 -1.6 7.6
      vertex -6.02705 -1.6 7.38169
    endloop
  endfacet
  facet normal 0 1 0
    outer loop
      vertex -10.1 -1.6 2.6
      vertex -6.02705 -1.6 7.38169
      vertex -5.95922 -1.6 7.17293
    endloop
  endfacet
  facet normal 0 1 0
    outer loop
      vertex -10.1 -1.6 2.6
      vertex -5.95922 -1.6 7.17293
      vertex -5.84947 -1.6 6.98282
    endloop
  endfacet
  facet normal 0 1 0
    outer loop
      vertex -4.89024 -1.6 6.55575
      vertex -10.1 -1.6 2.6
      vertex -5.10975 -1.6 6.55575
    endloop
  endfacet
  facet normal 0 1 0
    outer loop
      vertex -6.05 -1.6 7.6
      vertex -10.1 -1.6 2.6
      vertex -10.1 -1.6 12.7
    endloop
  endfacet
  facet normal 0 1 0
    outer loop
      vertex -5.70259 -1.6 6.8197
      vertex -10.1 -1.6 2.6
      vertex -5.84947 -1.6 6.98282
    endloop
  endfacet
  facet normal 0 1 0
    outer loop
      vertex -5.525 -1.6 6.69067
      vertex -10.1 -1.6 2.6
      vertex -5.70259 -1.6 6.8197
    endloop
  endfacet
  facet normal 0 1 0
    outer loop
      vertex -5.32447 -1.6 6.60139
      vertex -10.1 -1.6 2.6
      vertex -5.525 -1.6 6.69067
    endloop
  endfacet
  facet normal 0 1 0
    outer loop
      vertex -5.10975 -1.6 6.55575
      vertex -10.1 -1.6 2.6
      vertex -5.32447 -1.6 6.60139
    endloop
  endfacet
  facet normal -0.994522 0 -0.104526
    outer loop
      vertex 6.05 -3.6 7.6
      vertex 6.02705 -1.6 7.81831
      vertex 6.05 -1.6 7.6
    endloop
  endfacet
  facet normal -0.994522 -0 -0.104526
    outer loop
      vertex 6.02705 -1.6 7.81831
      vertex 6.05 -3.6 7.6
      vertex 6.02705 -3.6 7.81831
    endloop
  endfacet
  facet normal 0 0 -1
    outer loop
      vertex 4.89024 -3.6 8.64425
      vertex 5.10975 -1.6 8.64425
      vertex 5.10975 -3.6 8.64425
    endloop
  endfacet
  facet normal -0 0 -1
    outer loop
      vertex 5.10975 -1.6 8.64425
      vertex 4.89024 -3.6 8.64425
      vertex 4.89024 -1.6 8.64425
    endloop
  endfacet
  facet normal -0.743147 0 -0.669128
    outer loop
      vertex 5.84947 -3.6 8.21717
      vertex 5.70259 -1.6 8.3803
      vertex 5.84947 -1.6 8.21717
    endloop
  endfacet
  facet normal -0.743147 -0 -0.669128
    outer loop
      vertex 5.70259 -1.6 8.3803
      vertex 5.84947 -3.6 8.21717
      vertex 5.70259 -3.6 8.3803
    endloop
  endfacet
  facet normal 0.743147 0 -0.669128
    outer loop
      vertex 4.29741 -3.6 8.3803
      vertex 4.15053 -1.6 8.21717
      vertex 4.29741 -1.6 8.3803
    endloop
  endfacet
  facet normal 0.743147 0 -0.669128
    outer loop
      vertex 4.15053 -1.6 8.21717
      vertex 4.29741 -3.6 8.3803
      vertex 4.15053 -3.6 8.21717
    endloop
  endfacet
  facet normal 0.406735 0 -0.913546
    outer loop
      vertex 4.475 -3.6 8.50933
      vertex 4.67553 -1.6 8.59861
      vertex 4.67553 -3.6 8.59861
    endloop
  endfacet
  facet normal 0.406735 0 -0.913546
    outer loop
      vertex 4.67553 -1.6 8.59861
      vertex 4.475 -3.6 8.50933
      vertex 4.475 -1.6 8.50933
    endloop
  endfacet
  facet normal 0.951055 -0 0.30902
    outer loop
      vertex 3.97294 -3.6 7.38169
      vertex 4.04078 -1.6 7.17293
      vertex 3.97294 -1.6 7.38169
    endloop
  endfacet
  facet normal 0.951055 0 0.30902
    outer loop
      vertex 4.04078 -1.6 7.17293
      vertex 3.97294 -3.6 7.38169
      vertex 4.04078 -3.6 7.17293
    endloop
  endfacet
  facet normal -0.866027 0 -0.499998
    outer loop
      vertex 5.95922 -3.6 8.02707
      vertex 5.84947 -1.6 8.21717
      vertex 5.95922 -1.6 8.02707
    endloop
  endfacet
  facet normal -0.866027 -0 -0.499998
    outer loop
      vertex 5.84947 -1.6 8.21717
      vertex 5.95922 -3.6 8.02707
      vertex 5.84947 -3.6 8.21717
    endloop
  endfacet
  facet normal -0.951056 0 -0.30902
    outer loop
      vertex 6.02705 -3.6 7.81831
      vertex 5.95922 -1.6 8.02707
      vertex 6.02705 -1.6 7.81831
    endloop
  endfacet
  facet normal -0.951056 -0 -0.30902
    outer loop
      vertex 5.95922 -1.6 8.02707
      vertex 6.02705 -3.6 7.81831
      vertex 5.95922 -3.6 8.02707
    endloop
  endfacet
  facet normal -0.406735 0 -0.913546
    outer loop
      vertex 5.32447 -3.6 8.59861
      vertex 5.525 -1.6 8.50933
      vertex 5.525 -3.6 8.50933
    endloop
  endfacet
  facet normal -0.406735 0 -0.913546
    outer loop
      vertex 5.525 -1.6 8.50933
      vertex 5.32447 -3.6 8.59861
      vertex 5.32447 -1.6 8.59861
    endloop
  endfacet
  facet normal -0.207913 0 -0.978147
    outer loop
      vertex 5.10975 -3.6 8.64425
      vertex 5.32447 -1.6 8.59861
      vertex 5.32447 -3.6 8.59861
    endloop
  endfacet
  facet normal -0.207913 0 -0.978147
    outer loop
      vertex 5.32447 -1.6 8.59861
      vertex 5.10975 -3.6 8.64425
      vertex 5.10975 -1.6 8.64425
    endloop
  endfacet
  facet normal -0.587784 0 -0.809018
    outer loop
      vertex 5.525 -3.6 8.50933
      vertex 5.70259 -1.6 8.3803
      vertex 5.70259 -3.6 8.3803
    endloop
  endfacet
  facet normal -0.587784 0 -0.809018
    outer loop
      vertex 5.70259 -1.6 8.3803
      vertex 5.525 -3.6 8.50933
      vertex 5.525 -1.6 8.50933
    endloop
  endfacet
  facet normal 0.951056 0 -0.30902
    outer loop
      vertex 4.04078 -3.6 8.02707
      vertex 3.97294 -1.6 7.81831
      vertex 4.04078 -1.6 8.02707
    endloop
  endfacet
  facet normal 0.951056 0 -0.30902
    outer loop
      vertex 3.97294 -1.6 7.81831
      vertex 4.04078 -3.6 8.02707
      vertex 3.97294 -3.6 7.81831
    endloop
  endfacet
  facet normal 0.866027 0 -0.499998
    outer loop
      vertex 4.15053 -3.6 8.21717
      vertex 4.04078 -1.6 8.02707
      vertex 4.15053 -1.6 8.21717
    endloop
  endfacet
  facet normal 0.866027 0 -0.499998
    outer loop
      vertex 4.04078 -1.6 8.02707
      vertex 4.15053 -3.6 8.21717
      vertex 4.04078 -3.6 8.02707
    endloop
  endfacet
  facet normal 0.994522 0 -0.104526
    outer loop
      vertex 3.97294 -3.6 7.81831
      vertex 3.95 -1.6 7.6
      vertex 3.97294 -1.6 7.81831
    endloop
  endfacet
  facet normal 0.994522 0 -0.104526
    outer loop
      vertex 3.95 -1.6 7.6
      vertex 3.97294 -3.6 7.81831
      vertex 3.95 -3.6 7.6
    endloop
  endfacet
  facet normal 0.587784 0 -0.809018
    outer loop
      vertex 4.29741 -3.6 8.3803
      vertex 4.475 -1.6 8.50933
      vertex 4.475 -3.6 8.50933
    endloop
  endfacet
  facet normal 0.587784 0 -0.809018
    outer loop
      vertex 4.475 -1.6 8.50933
      vertex 4.29741 -3.6 8.3803
      vertex 4.29741 -1.6 8.3803
    endloop
  endfacet
  facet normal 0.207913 0 -0.978147
    outer loop
      vertex 4.67553 -3.6 8.59861
      vertex 4.89024 -1.6 8.64425
      vertex 4.89024 -3.6 8.64425
    endloop
  endfacet
  facet normal 0.207913 0 -0.978147
    outer loop
      vertex 4.89024 -1.6 8.64425
      vertex 4.67553 -3.6 8.59861
      vertex 4.67553 -1.6 8.59861
    endloop
  endfacet
  facet normal -0.994522 0 0.104526
    outer loop
      vertex 6.02705 -3.6 7.38169
      vertex 6.05 -1.6 7.6
      vertex 6.02705 -1.6 7.38169
    endloop
  endfacet
  facet normal -0.994522 0 0.104526
    outer loop
      vertex 6.05 -1.6 7.6
      vertex 6.02705 -3.6 7.38169
      vertex 6.05 -3.6 7.6
    endloop
  endfacet
  facet normal -0.207913 0 0.978147
    outer loop
      vertex 5.10975 -1.6 6.55575
      vertex 5.32447 -3.6 6.60139
      vertex 5.32447 -1.6 6.60139
    endloop
  endfacet
  facet normal -0.207913 0 0.978147
    outer loop
      vertex 5.32447 -3.6 6.60139
      vertex 5.10975 -1.6 6.55575
      vertex 5.10975 -3.6 6.55575
    endloop
  endfacet
  facet normal -0.587784 0 0.809018
    outer loop
      vertex 5.525 -1.6 6.69067
      vertex 5.70259 -3.6 6.8197
      vertex 5.70259 -1.6 6.8197
    endloop
  endfacet
  facet normal -0.587784 0 0.809018
    outer loop
      vertex 5.70259 -3.6 6.8197
      vertex 5.525 -1.6 6.69067
      vertex 5.525 -3.6 6.69067
    endloop
  endfacet
  facet normal -0.866027 0 0.499998
    outer loop
      vertex 5.84947 -3.6 6.98282
      vertex 5.95922 -1.6 7.17293
      vertex 5.84947 -1.6 6.98282
    endloop
  endfacet
  facet normal -0.866027 0 0.499998
    outer loop
      vertex 5.95922 -1.6 7.17293
      vertex 5.84947 -3.6 6.98282
      vertex 5.95922 -3.6 7.17293
    endloop
  endfacet
  facet normal 0.587784 0 0.809018
    outer loop
      vertex 4.29741 -1.6 6.8197
      vertex 4.475 -3.6 6.69067
      vertex 4.475 -1.6 6.69067
    endloop
  endfacet
  facet normal 0.587784 0 0.809018
    outer loop
      vertex 4.475 -3.6 6.69067
      vertex 4.29741 -1.6 6.8197
      vertex 4.29741 -3.6 6.8197
    endloop
  endfacet
  facet normal 0.207913 0 0.978147
    outer loop
      vertex 4.67553 -1.6 6.60139
      vertex 4.89024 -3.6 6.55575
      vertex 4.89024 -1.6 6.55575
    endloop
  endfacet
  facet normal 0.207913 0 0.978147
    outer loop
      vertex 4.89024 -3.6 6.55575
      vertex 4.67553 -1.6 6.60139
      vertex 4.67553 -3.6 6.60139
    endloop
  endfacet
  facet normal 0.743147 -0 0.669128
    outer loop
      vertex 4.15053 -3.6 6.98282
      vertex 4.29741 -1.6 6.8197
      vertex 4.15053 -1.6 6.98282
    endloop
  endfacet
  facet normal 0.743147 0 0.669128
    outer loop
      vertex 4.29741 -1.6 6.8197
      vertex 4.15053 -3.6 6.98282
      vertex 4.29741 -3.6 6.8197
    endloop
  endfacet
  facet normal 0.994522 -0 0.104526
    outer loop
      vertex 3.95 -3.6 7.6
      vertex 3.97294 -1.6 7.38169
      vertex 3.95 -1.6 7.6
    endloop
  endfacet
  facet normal 0.994522 0 0.104526
    outer loop
      vertex 3.97294 -1.6 7.38169
      vertex 3.95 -3.6 7.6
      vertex 3.97294 -3.6 7.38169
    endloop
  endfacet
  facet normal -0.406735 0 0.913546
    outer loop
      vertex 5.32447 -1.6 6.60139
      vertex 5.525 -3.6 6.69067
      vertex 5.525 -1.6 6.69067
    endloop
  endfacet
  facet normal -0.406735 0 0.913546
    outer loop
      vertex 5.525 -3.6 6.69067
      vertex 5.32447 -1.6 6.60139
      vertex 5.32447 -3.6 6.60139
    endloop
  endfacet
  facet normal -0.743147 0 0.669128
    outer loop
      vertex 5.70259 -3.6 6.8197
      vertex 5.84947 -1.6 6.98282
      vertex 5.70259 -1.6 6.8197
    endloop
  endfacet
  facet normal -0.743147 0 0.669128
    outer loop
      vertex 5.84947 -1.6 6.98282
      vertex 5.70259 -3.6 6.8197
      vertex 5.84947 -3.6 6.98282
    endloop
  endfacet
  facet normal -0.951055 0 0.30902
    outer loop
      vertex 5.95922 -3.6 7.17293
      vertex 6.02705 -1.6 7.38169
      vertex 5.95922 -1.6 7.17293
    endloop
  endfacet
  facet normal -0.951055 0 0.30902
    outer loop
      vertex 6.02705 -1.6 7.38169
      vertex 5.95922 -3.6 7.17293
      vertex 6.02705 -3.6 7.38169
    endloop
  endfacet
  facet normal 0.406735 0 0.913546
    outer loop
      vertex 4.475 -1.6 6.69067
      vertex 4.67553 -3.6 6.60139
      vertex 4.67553 -1.6 6.60139
    endloop
  endfacet
  facet normal 0.406735 0 0.913546
    outer loop
      vertex 4.67553 -3.6 6.60139
      vertex 4.475 -1.6 6.69067
      vertex 4.475 -3.6 6.69067
    endloop
  endfacet
  facet normal -0 0 1
    outer loop
      vertex 4.89024 -1.6 6.55575
      vertex 5.10975 -3.6 6.55575
      vertex 5.10975 -1.6 6.55575
    endloop
  endfacet
  facet normal 0 0 1
    outer loop
      vertex 5.10975 -3.6 6.55575
      vertex 4.89024 -1.6 6.55575
      vertex 4.89024 -3.6 6.55575
    endloop
  endfacet
  facet normal 0.866027 -0 0.499998
    outer loop
      vertex 4.04078 -3.6 7.17293
      vertex 4.15053 -1.6 6.98282
      vertex 4.04078 -1.6 7.17293
    endloop
  endfacet
  facet normal 0.866027 0 0.499998
    outer loop
      vertex 4.15053 -1.6 6.98282
      vertex 4.04078 -3.6 7.17293
      vertex 4.15053 -3.6 6.98282
    endloop
  endfacet
  facet normal -0 0 1
    outer loop
      vertex -10.1 0 2.6
      vertex 10.1 -1.6 2.6
      vertex 10.1 0 2.6
    endloop
  endfacet
  facet normal 0 0 1
    outer loop
      vertex 10.1 -1.6 2.6
      vertex -10.1 0 2.6
      vertex -10.1 -1.6 2.6
    endloop
  endfacet
  facet normal 0 -1 0
    outer loop
      vertex -10.1 -3.6 -1
      vertex 10.1 -3.6 0.6
      vertex -10.1 -3.6 0.6
    endloop
  endfacet
  facet normal 0 -1 -0
    outer loop
      vertex 10.1 -3.6 0.6
      vertex -10.1 -3.6 -1
      vertex 10.1 -3.6 -1
    endloop
  endfacet
  facet normal 0 1 -0
    outer loop
      vertex 10.1 0 1
      vertex -10.1 0 2.6
      vertex 10.1 0 2.6
    endloop
  endfacet
  facet normal 0 1 0
    outer loop
      vertex -10.1 0 2.6
      vertex 10.1 0 1
      vertex -10.1 0 1
    endloop
  endfacet
  facet normal -1 0 0
    outer loop
      vertex -10.1 10.1 -1
      vertex -10.1 0 1
      vertex -10.1 10.1 1
    endloop
  endfacet
  facet normal -1 0 0
    outer loop
      vertex -10.1 0 1
      vertex -10.1 -1.6 2.6
      vertex -10.1 0 2.6
    endloop
  endfacet
  facet normal -1 0 0
    outer loop
      vertex -10.1 -3.6 -1
      vertex -10.1 0 1
      vertex -10.1 10.1 -1
    endloop
  endfacet
  facet normal -1 0 0
    outer loop
      vertex -10.1 -3.6 0.6
      vertex -10.1 0 1
      vertex -10.1 -3.6 -1
    endloop
  endfacet
  facet normal -1 -0 0
    outer loop
      vertex -10.1 0 1
      vertex -10.1 -3.6 0.6
      vertex -10.1 -1.6 2.6
    endloop
  endfacet
  facet normal -1 -0 0
    outer loop
      vertex -10.1 -1.6 2.6
      vertex -10.1 -3.6 0.6
      vertex -10.1 -3.6 12.7
    endloop
  endfacet
  facet normal -1 0 0
    outer loop
      vertex -10.1 -1.6 2.6
      vertex -10.1 -3.6 12.7
      vertex -10.1 -1.6 12.7
    endloop
  endfacet
  facet normal 0.994522 -0.104526 0
    outer loop
      vertex -6.05 5 1
      vertex -6.02705 5.21831 -1
      vertex -6.02705 5.21831 1
    endloop
  endfacet
  facet normal 0.994522 -0.104526 0
    outer loop
      vertex -6.02705 5.21831 -1
      vertex -6.05 5 1
      vertex -6.05 5 -1
    endloop
  endfacet
  facet normal 0 -1 0
    outer loop
      vertex -5.10975 6.04425 -1
      vertex -4.89024 6.04425 1
      vertex -5.10975 6.04425 1
    endloop
  endfacet
  facet normal 0 -1 -0
    outer loop
      vertex -4.89024 6.04425 1
      vertex -5.10975 6.04425 -1
      vertex -4.89024 6.04425 -1
    endloop
  endfacet
  facet normal 0.743147 -0.669128 0
    outer loop
      vertex -5.84947 5.61717 1
      vertex -5.70259 5.7803 -1
      vertex -5.70259 5.7803 1
    endloop
  endfacet
  facet normal 0.743147 -0.669128 0
    outer loop
      vertex -5.70259 5.7803 -1
      vertex -5.84947 5.61717 1
      vertex -5.84947 5.61717 -1
    endloop
  endfacet
  facet normal -0.743147 -0.669128 0
    outer loop
      vertex -4.15053 5.61717 -1
      vertex -4.29741 5.7803 1
      vertex -4.29741 5.7803 -1
    endloop
  endfacet
  facet normal -0.743147 -0.669128 0
    outer loop
      vertex -4.29741 5.7803 1
      vertex -4.15053 5.61717 -1
      vertex -4.15053 5.61717 1
    endloop
  endfacet
  facet normal -0.406735 -0.913546 0
    outer loop
      vertex -4.67553 5.99861 -1
      vertex -4.475 5.90933 1
      vertex -4.67553 5.99861 1
    endloop
  endfacet
  facet normal -0.406735 -0.913546 -0
    outer loop
      vertex -4.475 5.90933 1
      vertex -4.67553 5.99861 -1
      vertex -4.475 5.90933 -1
    endloop
  endfacet
  facet normal -0.951055 0.30902 0
    outer loop
      vertex -4.04078 4.57293 -1
      vertex -3.97294 4.78169 1
      vertex -3.97294 4.78169 -1
    endloop
  endfacet
  facet normal -0.951055 0.30902 0
    outer loop
      vertex -3.97294 4.78169 1
      vertex -4.04078 4.57293 -1
      vertex -4.04078 4.57293 1
    endloop
  endfacet
  facet normal 0.866027 -0.499998 0
    outer loop
      vertex -5.95922 5.42707 1
      vertex -5.84947 5.61717 -1
      vertex -5.84947 5.61717 1
    endloop
  endfacet
  facet normal 0.866027 -0.499998 0
    outer loop
      vertex -5.84947 5.61717 -1
      vertex -5.95922 5.42707 1
      vertex -5.95922 5.42707 -1
    endloop
  endfacet
  facet normal 0.951055 -0.30902 0
    outer loop
      vertex -6.02705 5.21831 1
      vertex -5.95922 5.42707 -1
      vertex -5.95922 5.42707 1
    endloop
  endfacet
  facet normal 0.951055 -0.30902 0
    outer loop
      vertex -5.95922 5.42707 -1
      vertex -6.02705 5.21831 1
      vertex -6.02705 5.21831 -1
    endloop
  endfacet
  facet normal 0.406735 -0.913546 0
    outer loop
      vertex -5.525 5.90933 -1
      vertex -5.32447 5.99861 1
      vertex -5.525 5.90933 1
    endloop
  endfacet
  facet normal 0.406735 -0.913546 0
    outer loop
      vertex -5.32447 5.99861 1
      vertex -5.525 5.90933 -1
      vertex -5.32447 5.99861 -1
    endloop
  endfacet
  facet normal 0.207913 -0.978147 0
    outer loop
      vertex -5.32447 5.99861 -1
      vertex -5.10975 6.04425 1
      vertex -5.32447 5.99861 1
    endloop
  endfacet
  facet normal 0.207913 -0.978147 0
    outer loop
      vertex -5.10975 6.04425 1
      vertex -5.32447 5.99861 -1
      vertex -5.10975 6.04425 -1
    endloop
  endfacet
  facet normal 0.587784 -0.809018 0
    outer loop
      vertex -5.70259 5.7803 -1
      vertex -5.525 5.90933 1
      vertex -5.70259 5.7803 1
    endloop
  endfacet
  facet normal 0.587784 -0.809018 0
    outer loop
      vertex -5.525 5.90933 1
      vertex -5.70259 5.7803 -1
      vertex -5.525 5.90933 -1
    endloop
  endfacet
  facet normal -0.951055 -0.30902 0
    outer loop
      vertex -3.97294 5.21831 -1
      vertex -4.04078 5.42707 1
      vertex -4.04078 5.42707 -1
    endloop
  endfacet
  facet normal -0.951055 -0.30902 0
    outer loop
      vertex -4.04078 5.42707 1
      vertex -3.97294 5.21831 -1
      vertex -3.97294 5.21831 1
    endloop
  endfacet
  facet normal -0.866027 -0.499998 0
    outer loop
      vertex -4.04078 5.42707 -1
      vertex -4.15053 5.61717 1
      vertex -4.15053 5.61717 -1
    endloop
  endfacet
  facet normal -0.866027 -0.499998 0
    outer loop
      vertex -4.15053 5.61717 1
      vertex -4.04078 5.42707 -1
      vertex -4.04078 5.42707 1
    endloop
  endfacet
  facet normal -0.994522 -0.104526 0
    outer loop
      vertex -3.95 5 -1
      vertex -3.97294 5.21831 1
      vertex -3.97294 5.21831 -1
    endloop
  endfacet
  facet normal -0.994522 -0.104526 0
    outer loop
      vertex -3.97294 5.21831 1
      vertex -3.95 5 -1
      vertex -3.95 5 1
    endloop
  endfacet
  facet normal -0.587784 -0.809018 0
    outer loop
      vertex -4.475 5.90933 -1
      vertex -4.29741 5.7803 1
      vertex -4.475 5.90933 1
    endloop
  endfacet
  facet normal -0.587784 -0.809018 -0
    outer loop
      vertex -4.29741 5.7803 1
      vertex -4.475 5.90933 -1
      vertex -4.29741 5.7803 -1
    endloop
  endfacet
  facet normal -0.207913 -0.978147 0
    outer loop
      vertex -4.89024 6.04425 -1
      vertex -4.67553 5.99861 1
      vertex -4.89024 6.04425 1
    endloop
  endfacet
  facet normal -0.207913 -0.978147 -0
    outer loop
      vertex -4.67553 5.99861 1
      vertex -4.89024 6.04425 -1
      vertex -4.67553 5.99861 -1
    endloop
  endfacet
  facet normal 0.994522 0.104526 0
    outer loop
      vertex -6.02705 4.78169 1
      vertex -6.05 5 -1
      vertex -6.05 5 1
    endloop
  endfacet
  facet normal 0.994522 0.104526 0
    outer loop
      vertex -6.05 5 -1
      vertex -6.02705 4.78169 1
      vertex -6.02705 4.78169 -1
    endloop
  endfacet
  facet normal 0.207913 0.978147 -0
    outer loop
      vertex -5.10975 3.95575 -1
      vertex -5.32447 4.00139 1
      vertex -5.10975 3.95575 1
    endloop
  endfacet
  facet normal 0.207913 0.978147 0
    outer loop
      vertex -5.32447 4.00139 1
      vertex -5.10975 3.95575 -1
      vertex -5.32447 4.00139 -1
    endloop
  endfacet
  facet normal 0.587784 0.809018 -0
    outer loop
      vertex -5.525 4.09067 -1
      vertex -5.70259 4.2197 1
      vertex -5.525 4.09067 1
    endloop
  endfacet
  facet normal 0.587784 0.809018 0
    outer loop
      vertex -5.70259 4.2197 1
      vertex -5.525 4.09067 -1
      vertex -5.70259 4.2197 -1
    endloop
  endfacet
  facet normal 0.866027 0.499998 0
    outer loop
      vertex -5.84947 4.38282 1
      vertex -5.95922 4.57293 -1
      vertex -5.95922 4.57293 1
    endloop
  endfacet
  facet normal 0.866027 0.499998 0
    outer loop
      vertex -5.95922 4.57293 -1
      vertex -5.84947 4.38282 1
      vertex -5.84947 4.38282 -1
    endloop
  endfacet
  facet normal -0.587784 0.809018 0
    outer loop
      vertex -4.29741 4.2197 -1
      vertex -4.475 4.09067 1
      vertex -4.29741 4.2197 1
    endloop
  endfacet
  facet normal -0.587784 0.809018 0
    outer loop
      vertex -4.475 4.09067 1
      vertex -4.29741 4.2197 -1
      vertex -4.475 4.09067 -1
    endloop
  endfacet
  facet normal -0.207913 0.978147 0
    outer loop
      vertex -4.67553 4.00139 -1
      vertex -4.89024 3.95575 1
      vertex -4.67553 4.00139 1
    endloop
  endfacet
  facet normal -0.207913 0.978147 0
    outer loop
      vertex -4.89024 3.95575 1
      vertex -4.67553 4.00139 -1
      vertex -4.89024 3.95575 -1
    endloop
  endfacet
  facet normal -0.743147 0.669128 0
    outer loop
      vertex -4.29741 4.2197 -1
      vertex -4.15053 4.38282 1
      vertex -4.15053 4.38282 -1
    endloop
  endfacet
  facet normal -0.743147 0.669128 0
    outer loop
      vertex -4.15053 4.38282 1
      vertex -4.29741 4.2197 -1
      vertex -4.29741 4.2197 1
    endloop
  endfacet
  facet normal -0.994522 0.104526 0
    outer loop
      vertex -3.97294 4.78169 -1
      vertex -3.95 5 1
      vertex -3.95 5 -1
    endloop
  endfacet
  facet normal -0.994522 0.104526 0
    outer loop
      vertex -3.95 5 1
      vertex -3.97294 4.78169 -1
      vertex -3.97294 4.78169 1
    endloop
  endfacet
  facet normal 0.406735 0.913546 -0
    outer loop
      vertex -5.32447 4.00139 -1
      vertex -5.525 4.09067 1
      vertex -5.32447 4.00139 1
    endloop
  endfacet
  facet normal 0.406735 0.913546 0
    outer loop
      vertex -5.525 4.09067 1
      vertex -5.32447 4.00139 -1
      vertex -5.525 4.09067 -1
    endloop
  endfacet
  facet normal 0.743147 0.669128 0
    outer loop
      vertex -5.70259 4.2197 1
      vertex -5.84947 4.38282 -1
      vertex -5.84947 4.38282 1
    endloop
  endfacet
  facet normal 0.743147 0.669128 0
    outer loop
      vertex -5.84947 4.38282 -1
      vertex -5.70259 4.2197 1
      vertex -5.70259 4.2197 -1
    endloop
  endfacet
  facet normal 0.951055 0.30902 0
    outer loop
      vertex -5.95922 4.57293 1
      vertex -6.02705 4.78169 -1
      vertex -6.02705 4.78169 1
    endloop
  endfacet
  facet normal 0.951055 0.30902 0
    outer loop
      vertex -6.02705 4.78169 -1
      vertex -5.95922 4.57293 1
      vertex -5.95922 4.57293 -1
    endloop
  endfacet
  facet normal -0.406735 0.913546 0
    outer loop
      vertex -4.475 4.09067 -1
      vertex -4.67553 4.00139 1
      vertex -4.475 4.09067 1
    endloop
  endfacet
  facet normal -0.406735 0.913546 0
    outer loop
      vertex -4.67553 4.00139 1
      vertex -4.475 4.09067 -1
      vertex -4.67553 4.00139 -1
    endloop
  endfacet
  facet normal 0 1 -0
    outer loop
      vertex -4.89024 3.95575 -1
      vertex -5.10975 3.95575 1
      vertex -4.89024 3.95575 1
    endloop
  endfacet
  facet normal 0 1 0
    outer loop
      vertex -5.10975 3.95575 1
      vertex -4.89024 3.95575 -1
      vertex -5.10975 3.95575 -1
    endloop
  endfacet
  facet normal -0.866027 0.499998 0
    outer loop
      vertex -4.15053 4.38282 -1
      vertex -4.04078 4.57293 1
      vertex -4.04078 4.57293 -1
    endloop
  endfacet
  facet normal -0.866027 0.499998 0
    outer loop
      vertex -4.04078 4.57293 1
      vertex -4.15053 4.38282 -1
      vertex -4.15053 4.38282 1
    endloop
  endfacet
  facet normal 0.994522 0 -0.104526
    outer loop
      vertex -6.02705 -3.6 7.81831
      vertex -6.05 -1.6 7.6
      vertex -6.02705 -1.6 7.81831
    endloop
  endfacet
  facet normal 0.994522 0 -0.104526
    outer loop
      vertex -6.05 -1.6 7.6
      vertex -6.02705 -3.6 7.81831
      vertex -6.05 -3.6 7.6
    endloop
  endfacet
  facet normal 0 0 -1
    outer loop
      vertex -5.10975 -3.6 8.64425
      vertex -4.89024 -1.6 8.64425
      vertex -4.89024 -3.6 8.64425
    endloop
  endfacet
  facet normal -0 0 -1
    outer loop
      vertex -4.89024 -1.6 8.64425
      vertex -5.10975 -3.6 8.64425
      vertex -5.10975 -1.6 8.64425
    endloop
  endfacet
  facet normal 0.743147 0 -0.669128
    outer loop
      vertex -5.70259 -3.6 8.3803
      vertex -5.84947 -1.6 8.21717
      vertex -5.70259 -1.6 8.3803
    endloop
  endfacet
  facet normal 0.743147 0 -0.669128
    outer loop
      vertex -5.84947 -1.6 8.21717
      vertex -5.70259 -3.6 8.3803
      vertex -5.84947 -3.6 8.21717
    endloop
  endfacet
  facet normal -0.743147 0 -0.669128
    outer loop
      vertex -4.15053 -3.6 8.21717
      vertex -4.29741 -1.6 8.3803
      vertex -4.15053 -1.6 8.21717
    endloop
  endfacet
  facet normal -0.743147 -0 -0.669128
    outer loop
      vertex -4.29741 -1.6 8.3803
      vertex -4.15053 -3.6 8.21717
      vertex -4.29741 -3.6 8.3803
    endloop
  endfacet
  facet normal -0.406735 0 -0.913546
    outer loop
      vertex -4.67553 -3.6 8.59861
      vertex -4.475 -1.6 8.50933
      vertex -4.475 -3.6 8.50933
    endloop
  endfacet
  facet normal -0.406735 0 -0.913546
    outer loop
      vertex -4.475 -1.6 8.50933
      vertex -4.67553 -3.6 8.59861
      vertex -4.67553 -1.6 8.59861
    endloop
  endfacet
  facet normal -0.951055 0 0.30902
    outer loop
      vertex -4.04078 -3.6 7.17293
      vertex -3.97294 -1.6 7.38169
      vertex -4.04078 -1.6 7.17293
    endloop
  endfacet
  facet normal -0.951055 0 0.30902
    outer loop
      vertex -3.97294 -1.6 7.38169
      vertex -4.04078 -3.6 7.17293
      vertex -3.97294 -3.6 7.38169
    endloop
  endfacet
  facet normal 0.866027 0 -0.499998
    outer loop
      vertex -5.84947 -3.6 8.21717
      vertex -5.95922 -1.6 8.02707
      vertex -5.84947 -1.6 8.21717
    endloop
  endfacet
  facet normal 0.866027 0 -0.499998
    outer loop
      vertex -5.95922 -1.6 8.02707
      vertex -5.84947 -3.6 8.21717
      vertex -5.95922 -3.6 8.02707
    endloop
  endfacet
  facet normal 0.951056 0 -0.30902
    outer loop
      vertex -5.95922 -3.6 8.02707
      vertex -6.02705 -1.6 7.81831
      vertex -5.95922 -1.6 8.02707
    endloop
  endfacet
  facet normal 0.951056 0 -0.30902
    outer loop
      vertex -6.02705 -1.6 7.81831
      vertex -5.95922 -3.6 8.02707
      vertex -6.02705 -3.6 7.81831
    endloop
  endfacet
  facet normal 0.406735 0 -0.913546
    outer loop
      vertex -5.525 -3.6 8.50933
      vertex -5.32447 -1.6 8.59861
      vertex -5.32447 -3.6 8.59861
    endloop
  endfacet
  facet normal 0.406735 0 -0.913546
    outer loop
      vertex -5.32447 -1.6 8.59861
      vertex -5.525 -3.6 8.50933
      vertex -5.525 -1.6 8.50933
    endloop
  endfacet
  facet normal 0.207913 0 -0.978147
    outer loop
      vertex -5.32447 -3.6 8.59861
      vertex -5.10975 -1.6 8.64425
      vertex -5.10975 -3.6 8.64425
    endloop
  endfacet
  facet normal 0.207913 0 -0.978147
    outer loop
      vertex -5.10975 -1.6 8.64425
      vertex -5.32447 -3.6 8.59861
      vertex -5.32447 -1.6 8.59861
    endloop
  endfacet
  facet normal 0.587784 0 -0.809018
    outer loop
      vertex -5.70259 -3.6 8.3803
      vertex -5.525 -1.6 8.50933
      vertex -5.525 -3.6 8.50933
    endloop
  endfacet
  facet normal 0.587784 0 -0.809018
    outer loop
      vertex -5.525 -1.6 8.50933
      vertex -5.70259 -3.6 8.3803
      vertex -5.70259 -1.6 8.3803
    endloop
  endfacet
  facet normal -0.951056 0 -0.30902
    outer loop
      vertex -3.97294 -3.6 7.81831
      vertex -4.04078 -1.6 8.02707
      vertex -3.97294 -1.6 7.81831
    endloop
  endfacet
  facet normal -0.951056 -0 -0.30902
    outer loop
      vertex -4.04078 -1.6 8.02707
      vertex -3.97294 -3.6 7.81831
      vertex -4.04078 -3.6 8.02707
    endloop
  endfacet
  facet normal -0.866027 0 -0.499998
    outer loop
      vertex -4.04078 -3.6 8.02707
      vertex -4.15053 -1.6 8.21717
      vertex -4.04078 -1.6 8.02707
    endloop
  endfacet
  facet normal -0.866027 -0 -0.499998
    outer loop
      vertex -4.15053 -1.6 8.21717
      vertex -4.04078 -3.6 8.02707
      vertex -4.15053 -3.6 8.21717
    endloop
  endfacet
  facet normal -0.994522 0 -0.104526
    outer loop
      vertex -3.95 -3.6 7.6
      vertex -3.97294 -1.6 7.81831
      vertex -3.95 -1.6 7.6
    endloop
  endfacet
  facet normal -0.994522 -0 -0.104526
    outer loop
      vertex -3.97294 -1.6 7.81831
      vertex -3.95 -3.6 7.6
      vertex -3.97294 -3.6 7.81831
    endloop
  endfacet
  facet normal -0.587784 0 -0.809018
    outer loop
      vertex -4.475 -3.6 8.50933
      vertex -4.29741 -1.6 8.3803
      vertex -4.29741 -3.6 8.3803
    endloop
  endfacet
  facet normal -0.587784 0 -0.809018
    outer loop
      vertex -4.29741 -1.6 8.3803
      vertex -4.475 -3.6 8.50933
      vertex -4.475 -1.6 8.50933
    endloop
  endfacet
  facet normal -0.207913 0 -0.978147
    outer loop
      vertex -4.89024 -3.6 8.64425
      vertex -4.67553 -1.6 8.59861
      vertex -4.67553 -3.6 8.59861
    endloop
  endfacet
  facet normal -0.207913 0 -0.978147
    outer loop
      vertex -4.67553 -1.6 8.59861
      vertex -4.89024 -3.6 8.64425
      vertex -4.89024 -1.6 8.64425
    endloop
  endfacet
  facet normal 0.994522 -0 0.104526
    outer loop
      vertex -6.05 -3.6 7.6
      vertex -6.02705 -1.6 7.38169
      vertex -6.05 -1.6 7.6
    endloop
  endfacet
  facet normal 0.994522 0 0.104526
    outer loop
      vertex -6.02705 -1.6 7.38169
      vertex -6.05 -3.6 7.6
      vertex -6.02705 -3.6 7.38169
    endloop
  endfacet
  facet normal 0.207913 0 0.978147
    outer loop
      vertex -5.32447 -1.6 6.60139
      vertex -5.10975 -3.6 6.55575
      vertex -5.10975 -1.6 6.55575
    endloop
  endfacet
  facet normal 0.207913 0 0.978147
    outer loop
      vertex -5.10975 -3.6 6.55575
      vertex -5.32447 -1.6 6.60139
      vertex -5.32447 -3.6 6.60139
    endloop
  endfacet
  facet normal 0.587784 0 0.809018
    outer loop
      vertex -5.70259 -1.6 6.8197
      vertex -5.525 -3.6 6.69067
      vertex -5.525 -1.6 6.69067
    endloop
  endfacet
  facet normal 0.587784 0 0.809018
    outer loop
      vertex -5.525 -3.6 6.69067
      vertex -5.70259 -1.6 6.8197
      vertex -5.70259 -3.6 6.8197
    endloop
  endfacet
  facet normal 0.866027 -0 0.499998
    outer loop
      vertex -5.95922 -3.6 7.17293
      vertex -5.84947 -1.6 6.98282
      vertex -5.95922 -1.6 7.17293
    endloop
  endfacet
  facet normal 0.866027 0 0.499998
    outer loop
      vertex -5.84947 -1.6 6.98282
      vertex -5.95922 -3.6 7.17293
      vertex -5.84947 -3.6 6.98282
    endloop
  endfacet
  facet normal -0.587784 0 0.809018
    outer loop
      vertex -4.475 -1.6 6.69067
      vertex -4.29741 -3.6 6.8197
      vertex -4.29741 -1.6 6.8197
    endloop
  endfacet
  facet normal -0.587784 0 0.809018
    outer loop
      vertex -4.29741 -3.6 6.8197
      vertex -4.475 -1.6 6.69067
      vertex -4.475 -3.6 6.69067
    endloop
  endfacet
  facet normal -0.207913 0 0.978147
    outer loop
      vertex -4.89024 -1.6 6.55575
      vertex -4.67553 -3.6 6.60139
      vertex -4.67553 -1.6 6.60139
    endloop
  endfacet
  facet normal -0.207913 0 0.978147
    outer loop
      vertex -4.67553 -3.6 6.60139
      vertex -4.89024 -1.6 6.55575
      vertex -4.89024 -3.6 6.55575
    endloop
  endfacet
  facet normal -0.743147 0 0.669128
    outer loop
      vertex -4.29741 -3.6 6.8197
      vertex -4.15053 -1.6 6.98282
      vertex -4.29741 -1.6 6.8197
    endloop
  endfacet
  facet normal -0.743147 0 0.669128
    outer loop
      vertex -4.15053 -1.6 6.98282
      vertex -4.29741 -3.6 6.8197
      vertex -4.15053 -3.6 6.98282
    endloop
  endfacet
  facet normal -0.994522 0 0.104526
    outer loop
      vertex -3.97294 -3.6 7.38169
      vertex -3.95 -1.6 7.6
      vertex -3.97294 -1.6 7.38169
    endloop
  endfacet
  facet normal -0.994522 0 0.104526
    outer loop
      vertex -3.95 -1.6 7.6
      vertex -3.97294 -3.6 7.38169
      vertex -3.95 -3.6 7.6
    endloop
  endfacet
  facet normal 0.406735 0 0.913546
    outer loop
      vertex -5.525 -1.6 6.69067
      vertex -5.32447 -3.6 6.60139
      vertex -5.32447 -1.6 6.60139
    endloop
  endfacet
  facet normal 0.406735 0 0.913546
    outer loop
      vertex -5.32447 -3.6 6.60139
      vertex -5.525 -1.6 6.69067
      vertex -5.525 -3.6 6.69067
    endloop
  endfacet
  facet normal 0.743147 -0 0.669128
    outer loop
      vertex -5.84947 -3.6 6.98282
      vertex -5.70259 -1.6 6.8197
      vertex -5.84947 -1.6 6.98282
    endloop
  endfacet
  facet normal 0.743147 0 0.669128
    outer loop
      vertex -5.70259 -1.6 6.8197
      vertex -5.84947 -3.6 6.98282
      vertex -5.70259 -3.6 6.8197
    endloop
  endfacet
  facet normal 0.951055 -0 0.30902
    outer loop
      vertex -6.02705 -3.6 7.38169
      vertex -5.95922 -1.6 7.17293
      vertex -6.02705 -1.6 7.38169
    endloop
  endfacet
  facet normal 0.951055 0 0.30902
    outer loop
      vertex -5.95922 -1.6 7.17293
      vertex -6.02705 -3.6 7.38169
      vertex -5.95922 -3.6 7.17293
    endloop
  endfacet
  facet normal -0.406735 0 0.913546
    outer loop
      vertex -4.67553 -1.6 6.60139
      vertex -4.475 -3.6 6.69067
      vertex -4.475 -1.6 6.69067
    endloop
  endfacet
  facet normal -0.406735 0 0.913546
    outer loop
      vertex -4.475 -3.6 6.69067
      vertex -4.67553 -1.6 6.60139
      vertex -4.67553 -3.6 6.60139
    endloop
  endfacet
  facet normal -0 0 1
    outer loop
      vertex -5.10975 -1.6 6.55575
      vertex -4.89024 -3.6 6.55575
      vertex -4.89024 -1.6 6.55575
    endloop
  endfacet
  facet normal 0 0 1
    outer loop
      vertex -4.89024 -3.6 6.55575
      vertex -5.10975 -1.6 6.55575
      vertex -5.10975 -3.6 6.55575
    endloop
  endfacet
  facet normal -0.866027 0 0.499998
    outer loop
      vertex -4.15053 -3.6 6.98282
      vertex -4.04078 -1.6 7.17293
      vertex -4.15053 -1.6 6.98282
    endloop
  endfacet
  facet normal -0.866027 0 0.499998
    outer loop
      vertex -4.04078 -1.6 7.17293
      vertex -4.15053 -3.6 6.98282
      vertex -4.04078 -3.6 7.17293
    endloop
  endfacet
endsolid OpenSCAD_Model
